<svg width="4267" height="2667" viewBox="0 0 4267 2667" fill="none" xmlns="http://www.w3.org/2000/svg">
<path d="M497.603 2282.91C497.603 2282.91 33.099 1816.84 419.048 1312.24C761.487 864.533 1160.74 895.147 1453.67 1076.83C1578.41 1154.2 1938.12 1086.36 2244.27 630.8C2661.76 9.54699 4108.97 386.334 3845.11 1342.16C3717.41 1804.71 4233.73 1821.52 3970.64 2283.88L497.603 2282.91" fill="#EBF3FA"/>
<path d="M2569.09 2087.39C2569.08 2087.12 2570.55 2057.03 2556.01 2050.11L2557.04 2049.12C2563.69 2051.44 2571.08 2058.64 2574.04 2068.79C2576.23 2076.33 2574.56 2077.99 2574.57 2078.27L2569.09 2087.39" fill="#A4C8FC"/>
<path d="M2472.71 2009.39C2472.71 2009.39 2477.68 2048.13 2501.31 2059.48C2524.93 2070.81 2558.28 2050.45 2558.28 2050.45C2558.28 2050.45 2553.31 2011.72 2529.68 2000.37C2506.05 1989.03 2472.71 2009.39 2472.71 2009.39Z" fill="#A4C8FC"/>
<path d="M2566.61 2143.84C2566.33 2142.33 2561.09 2106.89 2574.51 2067.39C2587.39 2029.44 2580.25 1997.25 2580.2 1996.93H2589.68C2589.93 1998.31 2590.59 2029.89 2580.48 2073.17C2571.4 2112.13 2588.37 2143.84 2584.76 2143.84H2566.61" fill="#A4C8FC"/>
<path d="M2586.52 2039.21C2586.57 2039.01 2591.11 2013.04 2603.28 2010.08C2597.84 2010.79 2590.92 2014.69 2587.05 2021.95C2584.17 2027.35 2585.19 2028.87 2585.13 2029.08L2586.52 2039.21Z" fill="#A4C8FC"/>
<path d="M2625.61 2041.89C2607.41 2038.21 2597.25 2012.47 2597.25 2012.47C2597.25 2012.47 2616.6 1992.68 2634.81 1996.35C2653.01 2000.03 2663.17 2025.79 2663.17 2025.79C2663.17 2025.79 2643.83 2045.57 2625.61 2041.89" fill="#A4C8FC"/>
<path d="M2484.17 1957.97C2455.19 1913.96 2467.37 1854.77 2511.39 1825.77C2555.41 1796.79 2614.6 1808.97 2643.59 1852.99C2672.59 1897.01 2660.4 1956.2 2616.39 1985.19C2572.36 2014.17 2513.17 2002 2484.17 1957.97Z" fill="#FFB93E"/>
<path d="M2519.53 1838.13C2481.88 1862.93 2471.41 1913.75 2496.21 1951.4C2521.01 1989.05 2571.83 1999.51 2609.48 1974.71C2647.13 1949.91 2657.6 1899.11 2632.8 1861.45C2608 1823.8 2557.19 1813.33 2519.53 1838.13V1838.13ZM2612.33 1979.04C2592.93 1991.81 2569.72 1996.28 2546.97 1991.59C2524.23 1986.91 2504.67 1973.65 2491.88 1954.25C2479.11 1934.85 2474.65 1911.64 2479.33 1888.89C2484.01 1866.15 2497.28 1846.57 2516.68 1833.8C2536.08 1821.03 2559.28 1816.57 2582.04 1821.25C2604.79 1825.93 2624.35 1839.2 2637.12 1858.6C2649.91 1877.99 2654.36 1901.2 2649.68 1923.96C2645 1946.71 2631.73 1966.27 2612.33 1979.04" fill="#FFA412"/>
<path d="M2588.39 1920.92C2587.53 1919.23 2586.56 1917.87 2585.44 1916.81C2584.32 1915.76 2582.95 1914.99 2581.35 1914.48C2579.75 1913.99 2577.87 1913.72 2575.71 1913.69C2573.56 1913.65 2571.04 1913.84 2568.15 1914.23C2563.16 1914.87 2558.53 1915.24 2554.25 1915.35C2549.97 1915.45 2546.07 1915.05 2542.53 1914.16C2539 1913.27 2535.84 1911.73 2533.04 1909.56C2530.25 1907.39 2527.87 1904.33 2525.89 1900.39C2524.19 1896.97 2523.23 1893.56 2523.03 1890.13C2522.83 1886.72 2523.33 1883.4 2524.53 1880.17C2525.75 1876.96 2527.59 1873.91 2530.07 1871.03C2532.56 1868.16 2535.65 1865.56 2539.36 1863.25L2532.91 1850.35L2543.29 1845.15L2549.84 1858.23C2553.8 1856.84 2557.68 1856.13 2561.45 1856.11C2565.23 1856.08 2568.76 1856.72 2572.08 1858.03C2575.39 1859.35 2578.43 1861.32 2581.19 1863.99C2583.96 1866.65 2586.35 1869.99 2588.36 1874.01L2569.6 1883.41C2567.19 1878.59 2564.31 1875.51 2560.96 1874.19C2557.63 1872.88 2554.16 1873.11 2550.56 1874.91C2548.61 1875.88 2547.08 1877 2545.95 1878.24C2544.81 1879.49 2544.03 1880.81 2543.59 1882.21C2543.15 1883.61 2543.04 1885.07 2543.25 1886.57C2543.47 1888.08 2543.95 1889.57 2544.68 1891.05C2545.43 1892.55 2546.32 1893.79 2547.36 1894.77C2548.4 1895.76 2549.69 1896.51 2551.28 1897C2552.85 1897.49 2554.73 1897.75 2556.95 1897.77C2559.15 1897.8 2561.79 1897.65 2564.87 1897.32C2569.85 1896.79 2574.48 1896.48 2578.75 1896.4C2583.01 1896.33 2586.92 1896.75 2590.47 1897.67C2594 1898.57 2597.17 1900.12 2599.97 1902.29C2602.76 1904.47 2605.13 1907.51 2607.08 1911.4C2608.85 1914.93 2609.83 1918.43 2610 1921.85C2610.19 1925.29 2609.65 1928.59 2608.44 1931.77C2607.21 1934.95 2605.32 1937.96 2602.76 1940.8C2600.21 1943.64 2597.07 1946.21 2593.36 1948.52L2599.37 1960.52L2589.04 1965.69L2583.07 1953.75C2579.29 1955.19 2575.43 1956.15 2571.47 1956.61C2567.51 1957.09 2563.67 1956.84 2559.93 1955.87C2556.2 1954.91 2552.68 1953.08 2549.4 1950.4C2546.11 1947.72 2543.25 1943.97 2540.84 1939.15L2559.6 1929.75C2561.03 1932.6 2562.63 1934.79 2564.37 1936.29C2566.13 1937.8 2567.97 1938.8 2569.89 1939.27C2571.8 1939.75 2573.73 1939.79 2575.67 1939.39C2577.61 1939 2579.47 1938.36 2581.24 1937.47C2583.28 1936.45 2584.93 1935.29 2586.21 1934C2587.48 1932.71 2588.41 1931.33 2588.99 1929.89C2589.56 1928.45 2589.79 1926.96 2589.68 1925.44C2589.56 1923.91 2589.13 1922.4 2588.39 1920.92" fill="#FFA412"/>
<path d="M2661.99 2134.63L2661.97 2134.71L2660.08 2163.95L2653.01 2272.49H2520.92L2513.13 2165.43L2511 2135.92L2510.91 2134.63H2661.99" fill="#B4C9F7"/>
<path d="M2661.97 2134.71L2660.08 2163.95C2650.12 2160.48 2622.47 2152.15 2586.44 2152.15C2540.95 2152.15 2513.13 2165.43 2513.13 2165.43L2511 2135.92L2661.97 2134.71Z" fill="#9BB8EA"/>
<path d="M2666.57 2150.08H2506.11L2504.28 2131.43H2668.61L2666.57 2150.08Z" fill="#B4C9F7"/>
<path d="M2655.04 2278.28H2518.08L2516.51 2271.79H2656.79L2655.04 2278.28Z" fill="#B4C9F7"/>
<path d="M4087.64 2287.71H254.989C252.596 2287.71 250.639 2285.75 250.639 2283.35V2281.87C250.639 2279.48 252.596 2277.52 254.989 2277.52H4087.64C4090.03 2277.52 4091.99 2279.48 4091.99 2281.87V2283.35C4091.99 2285.75 4090.03 2287.71 4087.64 2287.71Z" fill="#2E3552"/>
<path d="M3482.15 1579.35L3469.32 1589.76C3469.32 1589.76 3434.24 1577.19 3426.32 1618.87C3426.32 1618.87 3424.21 1636.64 3435.47 1636.68C3446.72 1636.71 3442.08 1634.73 3458.01 1635.2C3473.96 1635.67 3487.16 1627.27 3489.49 1614.33L3497.12 1603.37L3482.15 1579.35" fill="#EA8E50"/>
<path d="M3483.6 1601.71C3473.37 1591.01 3474.19 1583.12 3474.19 1583.12C3474.19 1583.12 3592.67 1486.12 3604.69 1478.21C3612.88 1472.83 3700.13 1395.48 3740.92 1348.32C3761.15 1324.92 3786.21 1334 3814.88 1342.23L3838.49 1349C3867 1357.19 3874.41 1397.05 3851.03 1416.44C3785.15 1471.01 3675.55 1532.39 3655.03 1545.29C3604.12 1577.31 3504.48 1615.37 3504.48 1615.37C3504.48 1615.37 3492.39 1610.88 3483.6 1601.71" fill="#1E3D70"/>
<path d="M3348.39 2197.67C3348.39 2197.67 3319.64 2219.21 3275.57 2207.83C3275.57 2207.83 3240.05 2199.73 3232.27 2217.45C3232.27 2217.45 3286.75 2245.12 3300.53 2252.69C3310.92 2258.4 3321.76 2267.4 3329.43 2274.36C3335.49 2279.87 3344.95 2279.13 3350.12 2272.77C3352.51 2269.83 3355.25 2266.31 3358.27 2262.24C3366.67 2250.85 3386.23 2214.08 3386.23 2214.08L3348.39 2197.67" fill="#233862"/>
<path d="M3676.44 1410.63C3676.44 1299.6 3586.43 1209.6 3475.4 1209.6C3364.37 1209.6 3274.36 1299.6 3274.36 1410.63C3274.36 1521.65 3364.37 1611.67 3475.4 1611.67C3586.43 1611.67 3676.44 1521.65 3676.44 1410.63Z" fill="#E2810E"/>
<path d="M3693.97 1410.63C3693.97 1299.6 3603.97 1209.6 3492.93 1209.6C3381.91 1209.6 3291.91 1299.6 3291.91 1410.63C3291.91 1521.65 3381.91 1611.67 3492.93 1611.67C3603.97 1611.67 3693.97 1521.65 3693.97 1410.63Z" fill="#FFB93E"/>
<path d="M3320.71 1413C3320.71 1507.97 3397.96 1585.24 3492.93 1585.24C3587.91 1585.24 3665.17 1507.97 3665.17 1413C3665.17 1318.04 3587.91 1240.77 3492.93 1240.77C3397.96 1240.77 3320.71 1318.04 3320.71 1413ZM3363.43 1542.52C3328.83 1507.93 3309.77 1461.93 3309.77 1413C3309.77 1364.08 3328.83 1318.08 3363.43 1283.49C3398.01 1248.89 3444.01 1229.84 3492.93 1229.84C3541.87 1229.84 3587.87 1248.89 3622.45 1283.49C3657.05 1318.08 3676.11 1364.08 3676.11 1413C3676.11 1461.93 3657.05 1507.93 3622.45 1542.52C3587.87 1577.12 3541.87 1596.17 3492.93 1596.17C3444.01 1596.17 3398.01 1577.12 3363.43 1542.52Z" fill="#FFA412"/>
<path d="M3470.69 1475.61C3472.25 1478.43 3474.39 1480.79 3477.07 1482.65C3479.76 1484.53 3482.97 1485.87 3486.71 1486.67C3490.45 1487.45 3494.69 1487.57 3499.45 1487.01C3503.61 1486.52 3507.63 1485.49 3511.49 1483.93C3515.36 1482.39 3518.71 1480.08 3521.53 1477.03C3524.35 1473.97 3526.43 1470.09 3527.77 1465.41C3529.12 1460.72 3529.39 1455.04 3528.6 1448.36L3572.49 1443.15C3573.83 1454.44 3573.16 1464.35 3570.47 1472.87C3567.79 1481.39 3563.72 1488.67 3558.28 1494.69C3552.83 1500.73 3546.36 1505.63 3538.84 1509.37C3531.33 1513.13 3523.43 1515.92 3515.12 1517.77L3518.44 1545.71L3494.28 1548.56L3490.96 1520.49C3481.75 1520.73 3473.24 1519.83 3465.45 1517.8C3457.67 1515.76 3450.85 1512.67 3445.03 1508.49C3439.19 1504.32 3434.44 1499.11 3430.77 1492.87C3427.11 1486.63 3424.79 1479.37 3423.8 1471.09C3422.72 1461.97 3423.37 1453.88 3425.77 1446.83C3428.17 1439.77 3431.96 1433.39 3437.12 1427.67C3442.31 1421.95 3448.68 1416.69 3456.28 1411.88C3463.87 1407.07 3472.36 1402.24 3481.75 1397.41C3487.55 1394.43 3492.37 1391.64 3496.23 1389.04C3500.08 1386.44 3503.11 1383.79 3505.29 1381.09C3507.49 1378.4 3508.93 1375.59 3509.6 1372.64C3510.28 1369.71 3510.41 1366.49 3510 1363.01C3509.59 1359.53 3508.69 1356.35 3507.33 1353.45C3505.96 1350.57 3504.08 1348.15 3501.69 1346.19C3499.31 1344.23 3496.39 1342.81 3492.95 1341.93C3489.51 1341.05 3485.51 1340.88 3480.95 1341.43C3472.55 1342.41 3466.17 1346.01 3461.83 1352.2C3457.48 1358.4 3455.97 1367.13 3457.31 1378.41L3413.43 1383.63C3412.31 1374.23 3412.64 1365.57 3414.43 1357.68C3416.21 1349.8 3419.25 1342.79 3423.56 1336.64C3427.85 1330.51 3433.35 1325.28 3440.03 1320.96C3446.69 1316.64 3454.32 1313.4 3462.89 1311.23L3459.25 1280.61L3483.56 1277.73L3487.15 1307.92C3496.35 1307.69 3504.81 1308.67 3512.52 1310.85C3520.23 1313.04 3527 1316.27 3532.84 1320.53C3538.68 1324.8 3543.41 1330.05 3547.03 1336.29C3550.64 1342.55 3552.93 1349.67 3553.88 1357.67C3554.97 1366.88 3554.32 1375.01 3551.92 1382.07C3549.52 1389.13 3545.73 1395.49 3540.56 1401.16C3535.37 1406.83 3528.96 1412.05 3521.32 1416.81C3513.67 1421.59 3505.09 1426.31 3495.57 1430.96C3490.04 1433.63 3485.4 1436.23 3481.64 1438.76C3477.89 1441.31 3474.89 1443.96 3472.65 1446.69C3470.41 1449.44 3468.91 1452.39 3468.16 1455.53C3467.4 1458.68 3467.25 1462.21 3467.72 1466.17C3468.13 1469.65 3469.12 1472.8 3470.69 1475.61" fill="#FFA412"/>
<path d="M3331.51 2186.72C3331.51 2186.72 3349.03 2227.09 3389.44 2219.67C3389.44 2219.67 3471.91 2151.56 3528.47 2080.81C3546.84 2057.84 3562.49 2034.57 3571.68 2013.29C3609.2 1926.44 3710.44 1796.91 3774.81 1731.25L3613.76 1672.99C3613.76 1672.99 3562.17 1776.76 3493.53 1904.23C3444.07 1996.08 3385.76 2100.23 3331.51 2186.72" fill="#2B478B"/>
<path d="M3493.53 1904.23L3528.47 2080.81C3546.84 2057.84 3562.49 2034.57 3571.68 2013.29C3609.2 1926.44 3710.44 1796.91 3774.81 1731.25L3613.76 1672.99C3613.76 1672.99 3562.17 1776.76 3493.53 1904.23" fill="#233862"/>
<path d="M3625.17 2221.09C3625.17 2221.09 3626.93 2253.31 3587.88 2257.61C3587.88 2257.61 3565.56 2257.72 3565.51 2278.23L3679 2278.59C3679 2278.59 3682.29 2270.32 3683.09 2252.6C3683.71 2239 3669.92 2203.44 3669.92 2203.44L3625.17 2221.09" fill="#233862"/>
<path d="M3666.59 1672.99C3666.59 1672.99 3594.84 1751.83 3549.29 1893.87C3524.51 1971.15 3594.71 2165.44 3608.39 2232.96C3608.39 2232.96 3655.48 2236.95 3687.68 2224.51C3687.68 2224.51 3690.13 2085.07 3671.31 1977.6C3660.76 1917.45 3765.77 1848.97 3811.65 1740.29C3842.87 1666.36 3804.89 1667.61 3758.23 1665.84L3666.59 1672.99" fill="#2B478B"/>
<path d="M3749.41 1321.24C3789.33 1343.79 3871.05 1323 3871.05 1323C3871.05 1323 3837.87 1285.05 3852.95 1223.95L3821.6 1239.87L3787.93 1256.96C3787.93 1256.96 3785.76 1267.76 3784.24 1287.15C3783.87 1292.13 3783.52 1297.71 3783.28 1303.8C3762.77 1310.01 3749.41 1321.24 3749.41 1321.24Z" fill="#FFB07B"/>
<path d="M3603.03 1668.92C3603.03 1675.93 3611.11 1679.29 3612.83 1679.63C3628.93 1682.57 3673.89 1700.07 3714.39 1704.07C3748.49 1707.64 3780.15 1704.25 3814.93 1697.27C3819.53 1696.33 3830.35 1693.43 3831.12 1689.01C3832.08 1684.2 3965.28 1417.47 3861.73 1302.88C3859.31 1300.2 3838.85 1305.04 3820.17 1309.48C3802.91 1313.57 3787.07 1311.29 3772.93 1305.61L3755.4 1314.84C3733.87 1326.84 3693.13 1369.45 3688.37 1402.89C3685.95 1419.91 3676.23 1432.49 3673.41 1447.45C3672.36 1452.99 3671.29 1458.4 3670.21 1463.67C3668.09 1474 3665.91 1483.83 3663.65 1493.19C3657.56 1518.48 3651.13 1540.25 3644.81 1559.07C3638.11 1579.03 3631.51 1595.64 3625.63 1609.53C3617.99 1627.56 3611.55 1641.03 3607.51 1651.35C3604.67 1658.6 3603.03 1664.29 3603.03 1668.92" fill="#D2E3FC"/>
<path d="M3607.51 1651.35C3795.55 1562.75 3860.67 1392.64 3860.67 1392.64C3860.67 1392.64 3707.89 1449 3670.21 1463.67C3668.09 1474 3665.91 1483.83 3663.65 1493.19C3657.56 1518.48 3651.13 1540.25 3644.81 1559.07C3638.11 1579.03 3631.51 1595.64 3625.63 1609.53C3617.99 1627.56 3611.55 1641.03 3607.51 1651.35" fill="#A4C8FC"/>
<path d="M3497.49 1600L3481.24 1605.96C3481.24 1605.96 3448.71 1582.95 3428.45 1620.37C3428.45 1620.37 3421.12 1636.72 3432.72 1640.27C3444.32 1643.81 3440.11 1640.48 3456.4 1645.91C3472.71 1651.33 3488.77 1647.43 3494.93 1635.77L3505.97 1627.68L3497.49 1600" fill="#FFB07B"/>
<path d="M3484.12 1622.97C3478.11 1607.31 3475.37 1600.2 3475.37 1600.2C3475.37 1600.2 3598.15 1500.13 3610.67 1491.55C3619.19 1485.69 3704.05 1422.25 3745.43 1372.81C3765.96 1348.29 3798.32 1337.08 3829.61 1343.64L3855.39 1349.05C3886.52 1355.57 3896.63 1394.97 3872.48 1415.67C3804.49 1473.96 3689.81 1541.56 3668.43 1555.63C3615.35 1590.53 3497.95 1639.45 3497.95 1639.45C3497.95 1639.45 3488.84 1635.29 3484.12 1622.97" fill="#D2E3FC"/>
<path d="M3784.24 1287.15C3823.51 1289.35 3849.03 1256.93 3849.03 1256.93C3849.03 1256.93 3831.28 1247.11 3821.6 1239.87L3787.93 1256.96C3787.93 1256.96 3785.76 1267.76 3784.24 1287.15Z" fill="#EA8E50"/>
<path d="M3767.52 1246.84C3767.52 1246.84 3827 1289.52 3853.01 1252.07C3879.03 1214.61 3904.21 1194.91 3867.35 1166.07C3830.47 1137.24 3813.08 1146.35 3801.36 1156.73C3789.64 1167.12 3752.72 1234.77 3767.52 1246.84Z" fill="#FFB07B"/>
<path d="M3795.08 1122.91C3797.21 1108.52 3802 1098.39 3802 1098.39C3802 1098.39 3805.73 1113.84 3834 1111.72C3862.25 1109.59 3907.04 1114.49 3921.97 1146.69C3922.92 1148.75 3923.76 1150.85 3924.52 1153.01C3927.23 1145.87 3927.87 1135.17 3927.87 1135.17C3933.24 1149.04 3927.87 1166.37 3927.87 1166.37C3927.95 1166.88 3928.01 1167.39 3928.09 1167.89C3934.32 1173.16 3939.56 1189.56 3939.56 1189.56C3937.68 1184.99 3933.09 1182 3929 1180.16C3929.12 1205.23 3918.96 1229.72 3901.13 1237.01C3875.05 1247.67 3875.25 1239.53 3849.03 1256.93C3849.03 1256.93 3842 1248.2 3846.79 1242.35C3851.59 1236.48 3869.72 1227.95 3859.59 1219.41C3849.45 1210.88 3845.72 1220.48 3842 1214.61C3838.27 1208.75 3856.92 1191.69 3832.93 1175.69C3808.93 1159.69 3792.95 1137.31 3795.08 1122.91" fill="#233862"/>
<path d="M1234.05 2245.43V2268.67C1234.05 2270.51 1233.37 2272.23 1232.22 2273.65C1231.01 2275.16 1229.26 2276.35 1227.22 2277.01C1226.59 2277.21 1225.94 2277.37 1225.26 2277.47C1224.65 2277.56 1224.03 2277.61 1223.38 2277.61H782.696C777.015 2277.61 772.333 2273.83 772.045 2269.12C772.04 2268.97 772.033 2268.81 772.033 2268.67V2245.43C772.033 2245.28 772.04 2245.12 772.045 2244.97C772.333 2240.25 777.015 2236.47 782.696 2236.47H1223.38C1224.03 2236.47 1224.65 2236.52 1225.26 2236.61C1225.94 2236.72 1226.59 2236.87 1227.22 2237.08C1229.26 2237.75 1231.01 2238.92 1232.22 2240.43C1233.37 2241.85 1234.05 2243.57 1234.05 2245.43" fill="#FFB93E"/>
<path d="M1017.65 2277.61H781.553C776.484 2277.61 772.305 2273.83 772.045 2269.12C772.04 2268.97 772.033 2268.81 772.033 2268.67V2245.43C772.033 2245.28 772.04 2245.12 772.045 2244.97C772.305 2240.25 776.484 2236.47 781.553 2236.47H988.653C991.959 2248.59 999.668 2265.33 1017.65 2277.61" fill="#FFA412"/>
<path d="M1180.42 2277.61H1175.41V2236.48H1180.42V2277.61Z" fill="#FFA412"/>
<path d="M1163.47 2277.61H1158.46V2236.48H1163.47V2277.61Z" fill="#FFA412"/>
<path d="M1143.14 2277.61H1138.13V2236.48H1143.14V2277.61Z" fill="#FFA412"/>
<path d="M1111.97 2277.61H1106.97V2236.48H1111.97V2277.61Z" fill="#FFA412"/>
<path d="M1079.02 2277.61H1074.01V2236.48H1079.02V2277.61Z" fill="#FFA412"/>
<path d="M1028.5 2277.61H1023.49V2236.48H1028.5V2277.61Z" fill="#FFA412"/>
<path d="M981.196 2277.61H976.188V2236.48H981.196V2277.61Z" fill="#FFA412"/>
<path d="M938.959 2277.61H933.949V2236.48H938.959V2277.61Z" fill="#FFA412"/>
<path d="M1196.56 2277.61H1191.55V2236.48H1196.56V2277.61Z" fill="#FFA412"/>
<path d="M1207.22 2277.61H1202.21V2236.48H1207.22V2277.61Z" fill="#FFA412"/>
<path d="M1217.52 2277.61H1212.51V2236.48H1217.52V2277.61Z" fill="#FFA412"/>
<path d="M1225.26 2236.61V2277.47C1224.65 2277.56 1224.03 2277.61 1223.38 2277.61H1220.25V2236.47H1223.38C1224.03 2236.47 1224.65 2236.52 1225.26 2236.61Z" fill="#FFA412"/>
<path d="M1232.22 2240.43V2273.65C1231.01 2275.16 1229.26 2276.35 1227.22 2277.01V2237.08C1229.26 2237.75 1231.01 2238.92 1232.22 2240.43" fill="#FFA412"/>
<path d="M1186.93 2204.29V2227.52C1186.93 2229.37 1186.26 2231.09 1185.1 2232.52C1183.89 2234.03 1182.14 2235.2 1180.1 2235.87C1179.47 2236.08 1178.82 2236.23 1178.15 2236.33C1177.53 2236.43 1176.91 2236.47 1176.27 2236.47H735.579C729.897 2236.47 725.217 2232.69 724.928 2227.97C724.921 2227.83 724.917 2227.68 724.917 2227.52V2204.29C724.917 2204.13 724.921 2203.97 724.928 2203.83C725.217 2199.12 729.897 2195.33 735.579 2195.33H1176.27C1176.55 2195.33 1176.83 2195.35 1177.11 2195.36C1177.23 2195.37 1177.35 2195.37 1177.47 2195.39C1177.6 2195.4 1177.73 2195.41 1177.86 2195.44C1177.96 2195.44 1178.05 2195.47 1178.15 2195.48C1178.82 2195.57 1179.47 2195.73 1180.1 2195.93C1180.19 2195.97 1180.28 2196 1180.37 2196.03C1180.46 2196.07 1180.56 2196.09 1180.65 2196.13C1180.82 2196.2 1181.01 2196.27 1181.18 2196.35C1181.28 2196.39 1181.39 2196.44 1181.49 2196.49C1181.58 2196.53 1181.67 2196.57 1181.76 2196.63C1181.93 2196.71 1182.1 2196.8 1182.26 2196.89C1182.45 2197 1182.63 2197.12 1182.81 2197.24C1182.95 2197.32 1183.09 2197.41 1183.22 2197.52C1183.23 2197.52 1183.24 2197.52 1183.25 2197.53C1183.33 2197.6 1183.43 2197.67 1183.52 2197.73C1183.79 2197.95 1184.05 2198.17 1184.29 2198.41C1184.37 2198.48 1184.44 2198.55 1184.5 2198.61C1184.57 2198.68 1184.64 2198.76 1184.71 2198.83C1184.84 2198.99 1184.98 2199.13 1185.1 2199.29C1186.26 2200.72 1186.93 2202.44 1186.93 2204.29" fill="#FFB93E"/>
<path d="M970.528 2236.47H734.436C729.361 2236.47 725.188 2232.69 724.928 2227.97C724.921 2227.83 724.917 2227.68 724.917 2227.52V2204.29C724.917 2204.13 724.921 2203.97 724.928 2203.83C725.188 2199.12 729.361 2195.33 734.436 2195.33H941.53C941.624 2195.67 941.719 2196 941.819 2196.35C945.278 2208.36 953.041 2224.53 970.528 2236.47" fill="#FFA412"/>
<path d="M1133.31 2236.47H1128.3V2195.33H1133.31V2236.47Z" fill="#FFA412"/>
<path d="M1116.35 2236.47H1111.34V2195.33H1116.35V2236.47Z" fill="#FFA412"/>
<path d="M1096.02 2236.47H1091.01V2195.33H1096.02V2236.47Z" fill="#FFA412"/>
<path d="M1064.86 2236.47H1059.85V2195.33H1064.86V2236.47Z" fill="#FFA412"/>
<path d="M1031.9 2236.47H1026.89V2195.33H1031.9V2236.47Z" fill="#FFA412"/>
<path d="M981.381 2236.47H976.372V2195.33H981.381V2236.47Z" fill="#FFA412"/>
<path d="M934.079 2236.47H929.071V2195.33H934.079V2236.47Z" fill="#FFA412"/>
<path d="M891.84 2236.47H886.832V2195.33H891.84V2236.47Z" fill="#FFA412"/>
<path d="M1149.44 2236.47H1144.43V2195.33H1149.44V2236.47Z" fill="#FFA412"/>
<path d="M1160.11 2236.47H1155.1V2195.33H1160.11V2236.47Z" fill="#FFA412"/>
<path d="M1170.4 2236.47H1165.39V2195.33H1170.4V2236.47Z" fill="#FFA412"/>
<path d="M1178.15 2195.48V2236.33C1177.53 2236.43 1176.91 2236.47 1176.27 2236.47H1173.14V2195.33H1176.27C1176.91 2195.33 1177.53 2195.39 1178.15 2195.48Z" fill="#FFA412"/>
<path d="M1185.1 2199.29V2232.52C1183.89 2234.03 1182.14 2235.2 1180.1 2235.87V2195.93C1182.14 2196.6 1183.89 2197.79 1185.1 2199.29" fill="#FFA412"/>
<path d="M1209.7 2164.16V2187.4C1209.7 2189.24 1209.03 2190.96 1207.87 2192.39C1206.66 2193.89 1204.91 2195.08 1202.87 2195.75C1202.24 2195.95 1201.59 2196.11 1200.92 2196.2C1200.3 2196.29 1199.68 2196.35 1199.04 2196.35H758.348C756.58 2196.35 754.906 2195.99 753.432 2195.33C750.314 2193.96 748.086 2191.33 747.732 2188.25C747.715 2188.12 747.703 2187.99 747.698 2187.85C747.691 2187.71 747.686 2187.55 747.686 2187.4V2164.16C747.686 2164.01 747.691 2163.85 747.698 2163.69C747.986 2158.99 752.666 2155.2 758.348 2155.2H1199.04C1199.68 2155.2 1200.3 2155.25 1200.92 2155.35C1201.59 2155.45 1202.24 2155.6 1202.87 2155.81C1204.91 2156.47 1206.66 2157.65 1207.87 2159.16C1209.03 2160.59 1209.7 2162.31 1209.7 2164.16Z" fill="#FFB93E"/>
<path d="M993.298 2196.35H757.204C755.624 2196.35 754.134 2195.99 752.819 2195.33C750.031 2193.96 748.046 2191.33 747.732 2188.25C747.715 2188.12 747.703 2187.99 747.698 2187.85C747.691 2187.71 747.686 2187.55 747.686 2187.4V2164.16C747.686 2164.01 747.691 2163.85 747.698 2163.69C747.956 2158.99 752.136 2155.2 757.204 2155.2H964.306C967.523 2166.99 974.902 2183.16 991.847 2195.33C992.326 2195.68 992.808 2196.01 993.298 2196.35" fill="#FFA412"/>
<path d="M1156.07 2196.35H1151.07V2155.2H1156.07V2196.35Z" fill="#FFA412"/>
<path d="M1139.12 2196.35H1134.11V2155.2H1139.12V2196.35Z" fill="#FFA412"/>
<path d="M1118.79 2196.35H1113.78V2155.2H1118.79V2196.35Z" fill="#FFA412"/>
<path d="M1087.63 2196.35H1082.62V2155.2H1087.63V2196.35Z" fill="#FFA412"/>
<path d="M1054.67 2196.35H1049.66V2155.2H1054.67V2196.35Z" fill="#FFA412"/>
<path d="M1004.15 2196.35H999.143V2155.2H1004.15V2196.35Z" fill="#FFA412"/>
<path d="M956.849 2196.35H951.84V2155.2H956.849V2196.35Z" fill="#FFA412"/>
<path d="M914.611 2196.35H909.603V2155.2H914.611V2196.35Z" fill="#FFA412"/>
<path d="M1172.21 2196.35H1167.2V2155.2H1172.21V2196.35Z" fill="#FFA412"/>
<path d="M1182.87 2196.35H1177.87V2155.2H1182.87V2196.35Z" fill="#FFA412"/>
<path d="M1193.17 2196.35H1188.16V2155.2H1193.17V2196.35Z" fill="#FFA412"/>
<path d="M1200.92 2155.35V2196.2C1200.3 2196.29 1199.68 2196.35 1199.04 2196.35H1195.91V2155.2H1199.04C1199.68 2155.2 1200.3 2155.25 1200.92 2155.35Z" fill="#FFA412"/>
<path d="M1207.87 2159.16V2192.39C1206.66 2193.89 1204.91 2195.08 1202.87 2195.75V2155.81C1204.91 2156.47 1206.66 2157.65 1207.87 2159.16" fill="#FFA412"/>
<path d="M1220.25 2123.01V2146.25C1220.25 2148.11 1219.58 2149.83 1218.43 2151.25C1217.21 2152.76 1215.47 2153.93 1213.42 2154.6C1212.8 2154.81 1212.14 2154.96 1211.47 2155.07C1210.86 2155.16 1210.23 2155.2 1209.59 2155.2H768.904C763.223 2155.2 758.543 2151.43 758.253 2146.71C758.248 2146.56 758.241 2146.4 758.241 2146.25V2123.01C758.241 2122.87 758.248 2122.71 758.253 2122.56C758.519 2118.2 762.544 2114.64 767.643 2114.13C768.056 2114.08 768.473 2114.07 768.904 2114.07H1209.59C1210.23 2114.07 1210.86 2114.12 1211.47 2114.21C1212.14 2114.31 1212.8 2114.47 1213.42 2114.67C1215.47 2115.33 1217.21 2116.52 1218.43 2118.03C1219.58 2119.45 1220.25 2121.17 1220.25 2123.01" fill="#FFB93E"/>
<path d="M1003.85 2155.2H767.76C762.692 2155.2 758.512 2151.43 758.253 2146.71C758.248 2146.56 758.241 2146.4 758.241 2146.25V2123.01C758.241 2122.87 758.248 2122.71 758.253 2122.56C758.489 2118.2 762.084 2114.64 766.635 2114.13C767 2114.08 767.377 2114.07 767.76 2114.07H974.861C974.867 2114.08 974.872 2114.11 974.879 2114.13C978.196 2126.23 985.907 2142.95 1003.85 2155.2Z" fill="#FFA412"/>
<path d="M1166.63 2155.2H1161.62V2114.07H1166.63V2155.2Z" fill="#FFA412"/>
<path d="M1149.68 2155.2H1144.67V2114.07H1149.68V2155.2Z" fill="#FFA412"/>
<path d="M1129.35 2155.2H1124.34V2114.07H1129.35V2155.2Z" fill="#FFA412"/>
<path d="M1098.18 2155.2H1093.17V2114.07H1098.18V2155.2Z" fill="#FFA412"/>
<path d="M1065.23 2155.2H1060.22V2114.07H1065.23V2155.2Z" fill="#FFA412"/>
<path d="M1014.71 2155.2H1009.7V2114.07H1014.71V2155.2Z" fill="#FFA412"/>
<path d="M967.404 2155.2H962.396V2114.07H967.404V2155.2Z" fill="#FFA412"/>
<path d="M925.167 2155.2H920.157V2114.07H925.167V2155.2Z" fill="#FFA412"/>
<path d="M1182.77 2155.2H1177.76V2114.07H1182.77V2155.2Z" fill="#FFA412"/>
<path d="M1193.43 2155.2H1188.42V2114.07H1193.43V2155.2Z" fill="#FFA412"/>
<path d="M1203.73 2155.2H1198.72V2114.07H1203.73V2155.2Z" fill="#FFA412"/>
<path d="M1211.47 2114.21V2155.07C1210.86 2155.16 1210.23 2155.2 1209.59 2155.2H1206.46V2114.07H1209.59C1210.23 2114.07 1210.86 2114.11 1211.47 2114.21Z" fill="#FFA412"/>
<path d="M1218.43 2118.01V2151.25C1217.21 2152.76 1215.47 2153.93 1213.42 2154.6V2114.67C1215.47 2115.33 1217.21 2116.52 1218.43 2118.01Z" fill="#FFA412"/>
<path d="M1187.85 2081.95V2105.17C1187.85 2107.03 1187.18 2108.75 1186.03 2110.17C1184.81 2111.68 1183.07 2112.87 1181.02 2113.53C1180.4 2113.73 1179.75 2113.89 1179.07 2113.99C1178.87 2114.01 1178.66 2114.04 1178.45 2114.07C1178.34 2114.08 1178.22 2114.08 1178.11 2114.09C1177.99 2114.11 1177.88 2114.11 1177.76 2114.12C1177.57 2114.12 1177.38 2114.13 1177.19 2114.13H736.504C730.823 2114.13 726.141 2110.35 725.853 2105.64C725.848 2105.48 725.841 2105.33 725.841 2105.17V2081.95C725.841 2081.79 725.848 2081.64 725.853 2081.48C725.86 2081.36 725.871 2081.23 725.883 2081.11C726.307 2077.32 729.584 2074.19 733.876 2073.27C733.981 2073.24 734.093 2073.23 734.199 2073.2C734.943 2073.07 735.715 2072.99 736.504 2072.99H1177.19C1177.52 2072.99 1177.83 2073 1178.15 2073.03C1178.29 2073.04 1178.43 2073.05 1178.57 2073.07H1178.58C1178.74 2073.08 1178.91 2073.11 1179.07 2073.13C1179.75 2073.23 1180.4 2073.39 1181.02 2073.59C1183.07 2074.25 1184.81 2075.44 1186.03 2076.95C1187.18 2078.37 1187.85 2080.09 1187.85 2081.95" fill="#FFB93E"/>
<path d="M971.453 2114.13H735.361C730.292 2114.13 726.112 2110.35 725.853 2105.64C725.848 2105.48 725.841 2105.33 725.841 2105.17V2081.95C725.841 2081.79 725.848 2081.64 725.853 2081.48C725.86 2081.36 725.871 2081.23 725.883 2081.11C726.267 2077.23 729.313 2074.05 733.268 2073.21C733.404 2073.17 733.539 2073.15 733.675 2073.13C734.223 2073.04 734.783 2072.99 735.361 2072.99H942.461C942.484 2073.09 942.513 2073.19 942.544 2073.28C945.885 2085.35 953.595 2101.89 971.36 2114.07C971.389 2114.08 971.424 2114.11 971.453 2114.13" fill="#FFA412"/>
<path d="M1134.23 2114.13H1129.22V2072.99H1134.23V2114.13Z" fill="#FFA412"/>
<path d="M1117.28 2114.13H1112.27V2072.99H1117.28V2114.13Z" fill="#FFA412"/>
<path d="M1096.95 2114.13H1091.94V2072.99H1096.95V2114.13Z" fill="#FFA412"/>
<path d="M1065.78 2114.13H1060.77V2072.99H1065.78V2114.13Z" fill="#FFA412"/>
<path d="M1032.83 2114.13H1027.82V2072.99H1032.83V2114.13Z" fill="#FFA412"/>
<path d="M982.307 2114.13H977.299V2072.99H982.307V2114.13Z" fill="#FFA412"/>
<path d="M935.005 2114.13H929.997V2072.99H935.005V2114.13Z" fill="#FFA412"/>
<path d="M892.767 2114.13H887.759V2072.99H892.767V2114.13Z" fill="#FFA412"/>
<path d="M1150.37 2114.13H1145.36V2072.99H1150.37V2114.13Z" fill="#FFA412"/>
<path d="M1161.03 2114.13H1156.02V2072.99H1161.03V2114.13Z" fill="#FFA412"/>
<path d="M1171.33 2114.13H1166.32V2072.99H1171.33V2114.13Z" fill="#FFA412"/>
<path d="M1179.07 2073.13V2113.99C1178.46 2114.08 1177.83 2114.13 1177.19 2114.13H1174.06V2072.99H1177.19C1177.83 2072.99 1178.46 2073.04 1179.07 2073.13Z" fill="#FFA412"/>
<path d="M1186.03 2076.95V2110.17C1184.81 2111.68 1183.07 2112.87 1181.02 2113.52V2073.59C1183.07 2074.25 1184.81 2075.44 1186.03 2076.95Z" fill="#FFA412"/>
<path d="M1186.93 2041.09V2064.33C1186.93 2066.17 1186.26 2067.89 1185.1 2069.32C1183.89 2070.83 1182.14 2072.01 1180.1 2072.68C1179.61 2072.84 1179.1 2072.97 1178.58 2073.07H1178.57C1178.42 2073.09 1178.29 2073.12 1178.15 2073.13C1177.53 2073.23 1176.91 2073.28 1176.27 2073.28H735.579C735.113 2073.28 734.647 2073.25 734.199 2073.2C734.023 2073.19 733.846 2073.16 733.675 2073.13C728.883 2072.4 725.181 2068.96 724.928 2064.79C724.921 2064.64 724.917 2064.48 724.917 2064.33V2041.09C724.917 2040.95 724.921 2040.79 724.928 2040.64C725.217 2035.92 729.897 2032.13 735.579 2032.13H1176.27C1176.55 2032.13 1176.83 2032.15 1177.11 2032.17C1177.23 2032.19 1177.35 2032.19 1177.47 2032.2C1177.6 2032.21 1177.73 2032.23 1177.86 2032.24C1177.96 2032.25 1178.05 2032.27 1178.15 2032.28C1178.82 2032.39 1179.47 2032.53 1180.1 2032.75C1180.19 2032.77 1180.28 2032.8 1180.37 2032.84C1180.46 2032.87 1180.56 2032.91 1180.65 2032.93C1180.83 2033 1181.01 2033.08 1181.18 2033.16C1181.38 2033.24 1181.57 2033.33 1181.76 2033.43C1181.93 2033.52 1182.1 2033.6 1182.26 2033.69C1182.45 2033.81 1182.63 2033.92 1182.81 2034.04C1182.95 2034.13 1183.09 2034.23 1183.22 2034.32C1183.23 2034.33 1183.24 2034.33 1183.25 2034.35C1183.33 2034.41 1183.43 2034.48 1183.52 2034.55C1183.79 2034.75 1184.05 2034.99 1184.29 2035.21C1184.37 2035.28 1184.44 2035.35 1184.5 2035.43C1184.57 2035.49 1184.64 2035.56 1184.71 2035.64C1184.84 2035.79 1184.98 2035.95 1185.1 2036.09C1186.26 2037.52 1186.93 2039.24 1186.93 2041.09" fill="#FFB93E"/>
<path d="M970.528 2073.28H734.436C734.247 2073.28 734.057 2073.28 733.876 2073.27C733.669 2073.25 733.469 2073.24 733.268 2073.21C728.729 2072.69 725.164 2069.13 724.928 2064.79C724.921 2064.64 724.917 2064.48 724.917 2064.33V2041.09C724.917 2040.95 724.921 2040.79 724.928 2040.64C725.188 2035.92 729.361 2032.13 734.436 2032.13H941.53C941.624 2032.48 941.719 2032.81 941.819 2033.16C945.25 2045.08 952.917 2061.08 970.104 2072.99C970.245 2073.09 970.387 2073.19 970.528 2073.28" fill="#FFA412"/>
<path d="M1133.31 2073.28H1128.3V2032.15H1133.31V2073.28Z" fill="#FFA412"/>
<path d="M1116.35 2073.28H1111.34V2032.15H1116.35V2073.28Z" fill="#FFA412"/>
<path d="M1096.02 2073.28H1091.01V2032.15H1096.02V2073.28Z" fill="#FFA412"/>
<path d="M1064.86 2073.28H1059.85V2032.15H1064.86V2073.28Z" fill="#FFA412"/>
<path d="M1031.9 2073.28H1026.89V2032.15H1031.9V2073.28Z" fill="#FFA412"/>
<path d="M981.381 2073.28H976.372V2032.15H981.381V2073.28Z" fill="#FFA412"/>
<path d="M934.079 2073.28H929.071V2032.15H934.079V2073.28Z" fill="#FFA412"/>
<path d="M891.84 2073.28H886.832V2032.15H891.84V2073.28Z" fill="#FFA412"/>
<path d="M1149.44 2073.28H1144.43V2032.15H1149.44V2073.28Z" fill="#FFA412"/>
<path d="M1160.11 2073.28H1155.1V2032.15H1160.11V2073.28Z" fill="#FFA412"/>
<path d="M1170.4 2073.28H1165.39V2032.15H1170.4V2073.28Z" fill="#FFA412"/>
<path d="M1178.15 2032.28V2073.13C1177.53 2073.23 1176.91 2073.28 1176.27 2073.28H1173.14V2032.15H1176.27C1176.91 2032.15 1177.53 2032.19 1178.15 2032.28Z" fill="#FFA412"/>
<path d="M1185.1 2036.09V2069.32C1183.89 2070.83 1182.14 2072.01 1180.1 2072.68V2032.75C1182.14 2033.41 1183.89 2034.59 1185.1 2036.09Z" fill="#FFA412"/>
<path d="M1209.7 2000.97V2024.2C1209.7 2026.05 1209.03 2027.77 1207.87 2029.2C1206.66 2030.71 1204.91 2031.89 1202.87 2032.55C1202.24 2032.76 1201.59 2032.91 1200.92 2033.01C1200.3 2033.11 1199.68 2033.16 1199.04 2033.16H758.348C756.58 2033.16 754.906 2032.79 753.432 2032.13C750.314 2030.77 748.086 2028.13 747.732 2025.07C747.715 2024.93 747.703 2024.8 747.698 2024.67C747.691 2024.51 747.686 2024.36 747.686 2024.2V2000.97C747.686 2000.81 747.691 2000.67 747.698 2000.51C747.986 1995.8 752.666 1992.01 758.348 1992.01H1199.04C1199.68 1992.01 1200.3 1992.07 1200.92 1992.16C1201.59 1992.25 1202.24 1992.41 1202.87 1992.61C1204.91 1993.28 1206.66 1994.47 1207.87 1995.97C1209.03 1997.4 1209.7 1999.12 1209.7 2000.97" fill="#FFB93E"/>
<path d="M993.298 2033.16H757.204C755.624 2033.16 754.134 2032.79 752.819 2032.13C750.031 2030.77 748.046 2028.13 747.732 2025.07C747.715 2024.93 747.703 2024.8 747.698 2024.67C747.691 2024.51 747.686 2024.36 747.686 2024.2V2000.97C747.686 2000.81 747.691 2000.67 747.698 2000.51C747.956 1995.8 752.136 1992.01 757.204 1992.01H964.306C967.523 2003.8 974.902 2019.96 991.847 2032.13C992.326 2032.48 992.808 2032.81 993.298 2033.16" fill="#FFA412"/>
<path d="M1156.07 2033.16H1151.07V1992.01H1156.07V2033.16Z" fill="#FFA412"/>
<path d="M1139.12 2033.16H1134.11V1992.01H1139.12V2033.16Z" fill="#FFA412"/>
<path d="M1118.79 2033.16H1113.78V1992.01H1118.79V2033.16Z" fill="#FFA412"/>
<path d="M1087.63 2033.16H1082.62V1992.01H1087.63V2033.16Z" fill="#FFA412"/>
<path d="M1054.67 2033.16H1049.66V1992.01H1054.67V2033.16Z" fill="#FFA412"/>
<path d="M1004.15 2033.16H999.143V1992.01H1004.15V2033.16Z" fill="#FFA412"/>
<path d="M956.849 2033.16H951.84V1992.01H956.849V2033.16Z" fill="#FFA412"/>
<path d="M914.611 2033.16H909.603V1992.01H914.611V2033.16Z" fill="#FFA412"/>
<path d="M1172.21 2033.16H1167.2V1992.01H1172.21V2033.16Z" fill="#FFA412"/>
<path d="M1182.87 2033.16H1177.87V1992.01H1182.87V2033.16Z" fill="#FFA412"/>
<path d="M1193.17 2033.16H1188.16V1992.01H1193.17V2033.16Z" fill="#FFA412"/>
<path d="M1200.92 1992.16V2033.01C1200.3 2033.11 1199.68 2033.16 1199.04 2033.16H1195.91V1992.01H1199.04C1199.68 1992.01 1200.3 1992.07 1200.92 1992.16Z" fill="#FFA412"/>
<path d="M1207.87 1995.97V2029.2C1206.66 2030.71 1204.91 2031.89 1202.87 2032.55V1992.61C1204.91 1993.28 1206.66 1994.47 1207.87 1995.97Z" fill="#FFA412"/>
<path d="M1245.71 1959.83V1983.07C1245.71 1984.91 1245.04 1986.63 1243.88 1988.05C1242.67 1989.56 1240.93 1990.75 1238.88 1991.41C1238.25 1991.61 1237.6 1991.77 1236.93 1991.87C1236.32 1991.96 1235.69 1992.01 1235.05 1992.01H794.361C788.679 1992.01 783.999 1988.23 783.709 1983.52C783.704 1983.36 783.697 1983.21 783.697 1983.07V1959.83C783.697 1959.68 783.704 1959.52 783.709 1959.36C783.975 1955.01 788 1951.45 793.099 1950.93C793.512 1950.89 793.936 1950.87 794.361 1950.87H1235.05C1235.69 1950.87 1236.32 1950.92 1236.93 1951.01C1237.6 1951.12 1238.25 1951.27 1238.88 1951.48C1240.93 1952.13 1242.67 1953.32 1243.88 1954.83C1245.04 1956.25 1245.71 1957.97 1245.71 1959.83" fill="#FFB93E"/>
<path d="M1029.31 1992.01H793.217C788.148 1992.01 783.969 1988.23 783.709 1983.52C783.704 1983.36 783.697 1983.21 783.697 1983.07V1959.83C783.697 1959.68 783.704 1959.52 783.709 1959.36C783.945 1955.01 787.541 1951.45 792.091 1950.93C792.456 1950.89 792.833 1950.87 793.217 1950.87H1000.32C1000.32 1950.89 1000.33 1950.92 1000.33 1950.93C1003.65 1963.04 1011.36 1979.75 1029.31 1992.01" fill="#FFA412"/>
<path d="M1192.09 1992.01H1187.08V1950.88H1192.09V1992.01Z" fill="#FFA412"/>
<path d="M1175.13 1992.01H1170.13V1950.88H1175.13V1992.01Z" fill="#FFA412"/>
<path d="M1154.8 1992.01H1149.8V1950.88H1154.8V1992.01Z" fill="#FFA412"/>
<path d="M1123.64 1992.01H1118.63V1950.88H1123.64V1992.01Z" fill="#FFA412"/>
<path d="M1090.69 1992.01H1085.68V1950.88H1090.69V1992.01Z" fill="#FFA412"/>
<path d="M1040.17 1992.01H1035.16V1950.88H1040.17V1992.01Z" fill="#FFA412"/>
<path d="M992.862 1992.01H987.854V1950.88H992.862V1992.01Z" fill="#FFA412"/>
<path d="M950.626 1992.01H945.616V1950.88H950.626V1992.01Z" fill="#FFA412"/>
<path d="M1208.23 1992.01H1203.22V1950.88H1208.23V1992.01Z" fill="#FFA412"/>
<path d="M1218.89 1992.01H1213.88V1950.88H1218.89V1992.01Z" fill="#FFA412"/>
<path d="M1229.19 1992.01H1224.18V1950.88H1229.19V1992.01Z" fill="#FFA412"/>
<path d="M1236.93 1951.01V1991.87C1236.32 1991.96 1235.69 1992.01 1235.05 1992.01H1231.92V1950.87H1235.05C1235.69 1950.87 1236.32 1950.92 1236.93 1951.01Z" fill="#FFA412"/>
<path d="M1243.89 1954.83V1988.05C1242.67 1989.56 1240.93 1990.75 1238.88 1991.41V1951.48C1240.93 1952.13 1242.67 1953.32 1243.89 1954.83Z" fill="#FFA412"/>
<path d="M1187.85 1918.75V1941.99C1187.85 1943.84 1187.18 1945.55 1186.03 1946.99C1184.81 1948.49 1183.07 1949.67 1181.02 1950.33C1180.4 1950.55 1179.75 1950.69 1179.07 1950.8C1178.87 1950.83 1178.66 1950.85 1178.45 1950.87C1178.29 1950.89 1178.12 1950.91 1177.96 1950.91C1177.88 1950.92 1177.79 1950.92 1177.71 1950.93C1177.54 1950.93 1177.37 1950.93 1177.19 1950.93H736.504C730.823 1950.93 726.141 1947.16 725.853 1942.44C725.848 1942.29 725.841 1942.13 725.841 1941.99V1918.75C725.841 1918.6 725.848 1918.44 725.853 1918.29C726.141 1913.57 730.823 1909.8 736.504 1909.8H1177.19C1177.38 1909.8 1177.57 1909.8 1177.76 1909.81C1178.21 1909.83 1178.64 1909.88 1179.07 1909.93C1179.75 1910.04 1180.4 1910.19 1181.02 1910.4C1181.34 1910.51 1181.65 1910.61 1181.95 1910.75C1182.14 1910.83 1182.32 1910.91 1182.5 1911C1182.51 1911 1182.54 1911.01 1182.56 1911.03C1182.74 1911.11 1182.92 1911.2 1183.09 1911.31C1183.13 1911.32 1183.16 1911.35 1183.18 1911.36C1183.35 1911.44 1183.51 1911.55 1183.66 1911.65C1184.04 1911.88 1184.39 1912.15 1184.72 1912.43C1184.83 1912.51 1184.93 1912.6 1185.02 1912.69C1185.04 1912.71 1185.06 1912.72 1185.07 1912.73C1185.14 1912.79 1185.2 1912.84 1185.26 1912.91C1185.27 1912.92 1185.28 1912.93 1185.29 1912.93C1185.4 1913.04 1185.5 1913.15 1185.6 1913.27C1185.75 1913.43 1185.89 1913.59 1186.03 1913.75C1187.18 1915.19 1187.85 1916.89 1187.85 1918.75" fill="#FFB93E"/>
<path d="M971.453 1950.93H735.361C730.292 1950.93 726.112 1947.16 725.853 1942.44C725.848 1942.29 725.841 1942.13 725.841 1941.99V1918.75C725.841 1918.6 725.848 1918.44 725.853 1918.29C726.112 1913.57 730.292 1909.8 735.361 1909.8H942.461C942.544 1910.11 942.632 1910.43 942.732 1910.75C946.168 1922.75 953.913 1938.92 971.36 1950.87C971.389 1950.89 971.424 1950.92 971.453 1950.93" fill="#FFA412"/>
<path d="M1134.23 1950.93H1129.22V1909.8H1134.23V1950.93Z" fill="#FFA412"/>
<path d="M1117.28 1950.93H1112.27V1909.8H1117.28V1950.93Z" fill="#FFA412"/>
<path d="M1096.95 1950.93H1091.94V1909.8H1096.95V1950.93Z" fill="#FFA412"/>
<path d="M1065.78 1950.93H1060.77V1909.8H1065.78V1950.93Z" fill="#FFA412"/>
<path d="M1032.83 1950.93H1027.82V1909.8H1032.83V1950.93Z" fill="#FFA412"/>
<path d="M982.307 1950.93H977.299V1909.8H982.307V1950.93Z" fill="#FFA412"/>
<path d="M935.005 1950.93H929.997V1909.8H935.005V1950.93Z" fill="#FFA412"/>
<path d="M892.767 1950.93H887.759V1909.8H892.767V1950.93Z" fill="#FFA412"/>
<path d="M1150.37 1950.93H1145.36V1909.8H1150.37V1950.93Z" fill="#FFA412"/>
<path d="M1161.03 1950.93H1156.02V1909.8H1161.03V1950.93Z" fill="#FFA412"/>
<path d="M1171.33 1950.93H1166.32V1909.8H1171.33V1950.93Z" fill="#FFA412"/>
<path d="M1179.07 1909.93V1950.8C1178.46 1950.89 1177.83 1950.93 1177.19 1950.93H1174.06V1909.8H1177.19C1177.83 1909.8 1178.46 1909.84 1179.07 1909.93Z" fill="#FFA412"/>
<path d="M1186.03 1913.75V1946.99C1184.81 1948.49 1183.07 1949.67 1181.02 1950.33V1910.4C1183.07 1911.07 1184.81 1912.25 1186.03 1913.75Z" fill="#FFA412"/>
<path d="M1220.25 1878.56V1901.8C1220.25 1903.64 1219.58 1905.36 1218.43 1906.79C1217.21 1908.29 1215.47 1909.48 1213.42 1910.15C1212.8 1910.35 1212.14 1910.51 1211.47 1910.6C1210.86 1910.69 1210.23 1910.75 1209.59 1910.75H768.904C767.195 1910.75 765.573 1910.4 764.141 1909.8C760.929 1908.44 758.631 1905.76 758.283 1902.61C758.271 1902.51 758.259 1902.37 758.253 1902.25C758.248 1902.09 758.241 1901.95 758.241 1901.8V1878.56C758.241 1878.4 758.248 1878.25 758.253 1878.09C758.519 1873.73 762.544 1870.19 767.643 1869.67C768.056 1869.63 768.473 1869.6 768.904 1869.6H1209.59C1210.23 1869.6 1210.86 1869.65 1211.47 1869.75C1212.14 1869.85 1212.8 1870 1213.42 1870.21C1215.47 1870.87 1217.21 1872.05 1218.43 1873.56C1219.58 1874.99 1220.25 1876.71 1220.25 1878.56" fill="#FFB93E"/>
<path d="M1003.85 1910.75H767.76C766.233 1910.75 764.789 1910.4 763.511 1909.8C760.64 1908.44 758.595 1905.76 758.283 1902.61C758.271 1902.51 758.259 1902.37 758.253 1902.25C758.248 1902.09 758.241 1901.95 758.241 1901.8V1878.56C758.241 1878.4 758.248 1878.25 758.253 1878.09C758.489 1873.75 762.084 1870.19 766.635 1869.67C767 1869.63 767.377 1869.6 767.76 1869.6H974.861C974.867 1869.63 974.872 1869.65 974.879 1869.67C978.108 1881.47 985.517 1897.64 1002.5 1909.8C1002.94 1910.12 1003.39 1910.44 1003.85 1910.75" fill="#FFA412"/>
<path d="M1166.63 1910.75H1161.62V1869.6H1166.63V1910.75Z" fill="#FFA412"/>
<path d="M1149.68 1910.75H1144.67V1869.6H1149.68V1910.75Z" fill="#FFA412"/>
<path d="M1129.35 1910.75H1124.34V1869.6H1129.35V1910.75Z" fill="#FFA412"/>
<path d="M1098.18 1910.75H1093.17V1869.6H1098.18V1910.75" fill="#FFA412"/>
<path d="M1065.23 1910.75H1060.22V1869.6H1065.23V1910.75Z" fill="#FFA412"/>
<path d="M1014.71 1910.75H1009.7V1869.6H1014.71V1910.75Z" fill="#FFA412"/>
<path d="M967.404 1910.75H962.396V1869.6H967.404V1910.75Z" fill="#FFA412"/>
<path d="M925.167 1910.75H920.157V1869.6H925.167V1910.75Z" fill="#FFA412"/>
<path d="M1182.77 1910.75H1177.76V1869.6H1182.77V1910.75Z" fill="#FFA412"/>
<path d="M1193.43 1910.75H1188.42V1869.6H1193.43V1910.75Z" fill="#FFA412"/>
<path d="M1203.73 1910.75H1198.72V1869.6H1203.73V1910.75Z" fill="#FFA412"/>
<path d="M1211.47 1869.75V1910.6C1210.86 1910.69 1210.23 1910.75 1209.59 1910.75H1206.46V1869.6H1209.59C1210.23 1869.6 1210.86 1869.65 1211.47 1869.75Z" fill="#FFA412"/>
<path d="M1218.43 1873.56V1906.79C1217.21 1908.29 1215.47 1909.48 1213.42 1910.15V1870.21C1215.47 1870.87 1217.21 1872.05 1218.43 1873.56Z" fill="#FFA412"/>
<path d="M1234.05 1837.48V1860.72C1234.05 1862.57 1233.37 1864.28 1232.22 1865.72C1231.01 1867.21 1229.26 1868.4 1227.22 1869.07C1226.59 1869.28 1225.94 1869.43 1225.26 1869.53C1225.06 1869.56 1224.85 1869.59 1224.65 1869.6C1224.53 1869.61 1224.42 1869.63 1224.3 1869.64C1224.19 1869.64 1224.07 1869.65 1223.95 1869.65C1223.76 1869.67 1223.57 1869.67 1223.38 1869.67H782.696C777.015 1869.67 772.333 1865.89 772.045 1861.17C772.039 1861.03 772.033 1860.87 772.033 1860.72V1837.48C772.033 1837.33 772.039 1837.17 772.045 1837.03C772.333 1832.31 777.015 1828.53 782.696 1828.53H1223.38C1224.03 1828.53 1224.65 1828.57 1225.26 1828.67C1225.94 1828.77 1226.59 1828.92 1227.22 1829.13C1229.26 1829.8 1231.01 1830.97 1232.22 1832.48C1233.37 1833.92 1234.05 1835.63 1234.05 1837.48" fill="#FFB93E"/>
<path d="M1017.65 1869.67H781.553C776.484 1869.67 772.305 1865.89 772.045 1861.17C772.039 1861.03 772.033 1860.87 772.033 1860.72V1837.48C772.033 1837.33 772.039 1837.17 772.045 1837.03C772.305 1832.31 776.484 1828.53 781.553 1828.53H988.653C991.953 1840.63 999.639 1857.33 1017.55 1869.6C1017.58 1869.63 1017.62 1869.65 1017.65 1869.67" fill="#FFA412"/>
<path d="M1180.42 1869.67H1175.41V1828.53H1180.42V1869.67Z" fill="#FFA412"/>
<path d="M1163.47 1869.67H1158.46V1828.53H1163.47V1869.67Z" fill="#FFA412"/>
<path d="M1143.14 1869.67H1138.13V1828.53H1143.14V1869.67Z" fill="#FFA412"/>
<path d="M1111.97 1869.67H1106.97V1828.53H1111.97V1869.67Z" fill="#FFA412"/>
<path d="M1079.02 1869.67H1074.01V1828.53H1079.02V1869.67Z" fill="#FFA412"/>
<path d="M1028.5 1869.67H1023.49V1828.53H1028.5V1869.67Z" fill="#FFA412"/>
<path d="M981.196 1869.67H976.188V1828.53H981.196V1869.67Z" fill="#FFA412"/>
<path d="M938.96 1828.53V1869.67H933.949V1828.53H938.96Z" fill="#FFA412"/>
<path d="M1196.56 1869.67H1191.55V1828.53H1196.56V1869.67Z" fill="#FFA412"/>
<path d="M1207.22 1869.67H1202.21V1828.53H1207.22V1869.67Z" fill="#FFA412"/>
<path d="M1217.52 1869.67H1212.51V1828.53H1217.52V1869.67Z" fill="#FFA412"/>
<path d="M1225.27 1828.67V1869.52C1224.65 1869.63 1224.03 1869.67 1223.39 1869.67H1220.25V1828.53H1223.39C1224.03 1828.53 1224.65 1828.57 1225.27 1828.67Z" fill="#FFA412"/>
<path d="M1232.22 1832.48V1865.72C1231.01 1867.21 1229.26 1868.4 1227.22 1869.07V1829.13C1229.26 1829.8 1231.01 1830.97 1232.22 1832.48" fill="#FFA412"/>
<path d="M537.037 2068.28C537.037 1952.6 630.808 1858.84 746.48 1858.84C862.152 1858.84 955.921 1952.6 955.921 2068.28C955.921 2183.95 862.152 2277.72 746.48 2277.72C630.808 2277.72 537.037 2183.95 537.037 2068.28" fill="#E2810E"/>
<path d="M518.767 2068.28C518.767 1952.6 612.536 1858.84 728.208 1858.84C843.88 1858.84 937.651 1952.6 937.651 2068.28C937.651 2183.95 843.88 2277.72 728.208 2277.72C612.536 2277.72 518.767 2183.95 518.767 2068.28" fill="#FFB93E"/>
<path d="M728.208 1891.31C629.264 1891.31 548.768 1971.81 548.768 2070.75C548.768 2169.69 629.264 2250.19 728.208 2250.19C827.152 2250.19 907.649 2169.69 907.649 2070.75C907.649 1971.81 827.152 1891.31 728.208 1891.31V1891.31ZM728.208 2261.57C677.237 2261.57 629.317 2241.72 593.276 2205.68C557.233 2169.64 537.384 2121.72 537.384 2070.75C537.384 2019.77 557.233 1971.87 593.276 1935.81C629.317 1899.77 677.237 1879.92 728.208 1879.92C779.18 1879.92 827.1 1899.77 863.141 1935.81C899.184 1971.87 919.032 2019.77 919.032 2070.75C919.032 2121.72 899.184 2169.64 863.141 2205.68C827.1 2241.72 779.18 2261.57 728.208 2261.57Z" fill="#FFA412"/>
<path d="M754.479 2126.13C754.968 2122.01 754.815 2118.33 754.028 2115.05C753.239 2111.79 751.676 2108.71 749.344 2105.85C747.008 2102.99 743.885 2100.24 739.975 2097.59C736.064 2094.93 731.225 2092.23 725.457 2089.45C715.548 2084.6 706.611 2079.69 698.645 2074.72C690.676 2069.75 683.996 2064.32 678.6 2058.41C673.203 2052.51 669.256 2045.88 666.759 2038.52C664.261 2031.17 663.583 2022.69 664.723 2013.09C665.711 2004.76 668.087 1997.35 671.856 1990.84C675.621 1984.33 680.551 1978.85 686.64 1974.41C692.729 1969.96 699.787 1966.6 707.813 1964.32C715.837 1962.05 724.651 1961.03 734.249 1961.28L737.98 1929.83L763.296 1932.83L759.512 1964.72C768.443 1966.97 776.385 1970.35 783.339 1974.85C790.291 1979.35 796.009 1984.8 800.495 1991.2C804.973 1997.59 808.147 2004.89 810.007 2013.12C811.864 2021.33 812.213 2030.35 811.052 2040.15L765.327 2034.72C766.721 2022.96 765.153 2013.85 760.625 2007.4C756.093 2000.96 749.452 1997.21 740.697 1996.17C735.951 1995.61 731.783 1995.79 728.2 1996.71C724.613 1997.61 721.579 1999.09 719.089 2001.13C716.601 2003.17 714.641 2005.69 713.216 2008.71C711.789 2011.72 710.861 2015.04 710.431 2018.67C710.001 2022.29 710.139 2025.64 710.845 2028.69C711.549 2031.76 713.047 2034.69 715.336 2037.51C717.623 2040.31 720.772 2043.07 724.783 2045.77C728.793 2048.49 733.824 2051.4 739.875 2054.51C749.649 2059.53 758.496 2064.56 766.405 2069.57C774.313 2074.59 780.964 2080.07 786.355 2086.03C791.744 2091.97 795.688 2098.64 798.185 2105.99C800.681 2113.33 801.367 2121.76 800.239 2131.27C799.216 2139.89 796.795 2147.45 792.975 2153.96C789.155 2160.45 784.204 2165.88 778.128 2170.23C772.049 2174.57 764.953 2177.8 756.84 2179.92C748.728 2182.04 739.872 2182.97 730.275 2182.73L726.804 2211.97L701.647 2209L705.099 2179.89C696.447 2177.97 688.209 2175.05 680.385 2171.15C672.559 2167.24 665.809 2162.15 660.137 2155.85C654.467 2149.57 650.231 2141.99 647.433 2133.11C644.636 2124.23 643.935 2113.92 645.329 2102.16L691.056 2107.59C690.231 2114.53 690.516 2120.47 691.917 2125.35C693.315 2130.23 695.483 2134.27 698.423 2137.44C701.361 2140.63 704.845 2143.03 708.88 2144.65C712.912 2146.27 717.089 2147.33 721.417 2147.85C726.373 2148.44 730.8 2148.32 734.696 2147.49C738.591 2146.65 741.939 2145.27 744.739 2143.31C747.539 2141.36 749.753 2138.92 751.385 2135.97C753.017 2133.04 754.048 2129.76 754.479 2126.13" fill="#FFA412"/>
<path d="M1113.34 1780.69C1091.89 1818.03 1064.92 1832.43 1064.92 1832.43H952.701C952.701 1832.43 1129.7 1752.23 1113.34 1780.69Z" fill="#233862"/>
<path d="M1027.15 2069.49C1024.23 2072.84 1023.85 2076.59 1025.3 2080.59C1025.3 2080.6 1025.31 2080.63 1025.33 2080.64C1028.01 2088.04 1036.85 2096.29 1047.12 2104.55C1048.43 2105.6 1049.6 2106.56 1050.62 2107.45C1050.88 2107.69 1051.15 2107.92 1051.4 2108.16C1051.61 2108.35 1051.81 2108.53 1052.01 2108.71C1061.58 2117.53 1057.98 2119.56 1075.19 2137.48C1094.81 2157.89 1108.31 2158.25 1112.16 2156.4C1115.41 2154.81 1108.8 2143.99 1101.48 2131.81C1101.13 2131.23 1100.78 2130.64 1100.42 2130.04C1099.44 2128.43 1098.47 2126.79 1097.51 2125.16C1088.93 2110.51 1091.13 2103.64 1093.17 2081.84C1094.82 2064.13 1120.72 1982.89 1120.72 1982.89L1083.12 1976.41C1083.12 1976.41 1071.8 2041.11 1059.32 2051.07C1052.65 2056.37 1045.18 2056.44 1038.77 2060.37C1038.32 2060.65 1037.87 2060.93 1037.44 2061.23C1033.79 2063.64 1030.08 2066.13 1027.15 2069.49" fill="#FFB27D"/>
<path d="M1027.15 2069.49C1024.23 2072.84 1023.85 2076.59 1025.3 2080.59C1025.3 2080.6 1025.31 2080.63 1025.33 2080.64C1028.61 2088.03 1037.23 2096.24 1047.15 2104.47C1048.45 2105.55 1049.6 2106.53 1050.62 2107.45C1050.88 2107.69 1051.15 2107.92 1051.4 2108.16C1051.61 2108.35 1051.81 2108.53 1052.01 2108.71C1061.58 2117.53 1057.98 2119.56 1075.19 2137.48C1094.81 2157.89 1108.31 2158.25 1112.16 2156.4C1115.41 2154.81 1108.8 2143.99 1101.48 2131.81C1097.66 2130.41 1079.92 2123.21 1066.51 2106.04C1054.69 2090.97 1046.82 2071.6 1038.77 2060.37C1038.32 2060.65 1037.87 2060.93 1037.44 2061.23C1033.79 2063.64 1030.08 2066.13 1027.15 2069.49" fill="#233862"/>
<path d="M1330.33 2046C1332.65 2057.61 1349.2 2055.68 1367.68 2051.16C1386.16 2046.64 1381.77 2052.01 1408.08 2049.09C1434.37 2046.19 1442.35 2036.37 1443.15 2032.47C1443.87 2029 1430.87 2027.77 1416.93 2026.17C1415.17 2025.97 1413.41 2025.75 1411.65 2025.53C1395.91 2023.56 1384.39 2013.4 1370.09 2005.07C1356.55 1997.16 1336.33 1964.97 1336.33 1964.97L1300.26 1967.83C1300.26 1967.83 1319.19 1996.59 1326.51 2009.08C1330.82 2016.44 1330.59 2026.16 1330.05 2033.67C1329.77 2037.75 1329.51 2041.92 1330.33 2046" fill="#FFB27D"/>
<path d="M1367.68 2051.16C1386.16 2046.64 1381.77 2052.01 1408.08 2049.09C1434.37 2046.19 1442.35 2036.37 1443.15 2032.47C1443.87 2029 1430.87 2027.77 1416.93 2026.17L1416.8 2026.44C1416.8 2026.44 1401.03 2037.63 1379.13 2038.15C1361.28 2038.57 1342.37 2033.47 1330.05 2033.67C1329.77 2037.75 1329.51 2041.92 1330.33 2046C1332.65 2057.61 1349.2 2055.68 1367.68 2051.16Z" fill="#233862"/>
<path d="M1192.08 1815.33L1158.36 1906.08L1114.33 2024.57C1114.33 2024.57 1102.38 2025.72 1090.94 2022.43C1080.4 2019.39 1068.32 2011.41 1068.32 2011.41C1068.32 2011.41 1080.54 1884.2 1103.35 1811.16C1109.19 1792.41 1115.74 1777.25 1122.97 1768.72C1158.33 1726.93 1192.08 1815.33 1192.08 1815.33Z" fill="#233862"/>
<path d="M1157.79 1671.21C1135.7 1664.08 1072.68 1673.24 1009.38 1685.63L996.129 1663.76L859.403 1653.09C859.403 1653.09 814.285 1753.15 838.987 1816.89C842.616 1826.27 851.603 1830.21 863.9 1830.41C863.905 1830.41 863.909 1830.43 863.915 1830.43C863.915 1830.43 945.5 1832.43 971.924 1832.43C1039.92 1832.43 1115.83 1785.68 1125.65 1783.72C1141.72 1780.51 1148.15 1812.65 1164.22 1846.4C1180.29 1880.16 1315.3 1995.88 1315.3 1995.88C1315.3 1995.88 1336.05 1996.08 1344.63 1992.87C1353.84 1989.41 1357.21 1984.92 1357.21 1984.92C1357.21 1984.92 1207.62 1687.28 1157.79 1671.21" fill="#2B478B"/>
<path d="M981.604 1262.27C971.355 1256.16 961.365 1255.28 955.315 1255.48C950.948 1255.61 946.585 1255.2 942.255 1254.61C890.444 1247.65 859.261 1322.95 857.428 1345.76C854.048 1387.8 831.805 1394.21 800.496 1420.55C737.717 1473.35 756.127 1534.71 790.453 1557.49C811.051 1571.17 847.355 1557.49 847.355 1557.49C847.867 1557.85 946.639 1502.28 995.327 1475.48C1068.32 1465.09 1010.93 1279.72 981.604 1262.27" fill="#233862"/>
<path d="M954.518 1452.65C954.732 1452.8 930.563 1461.04 914.402 1453.89C899.198 1447.17 887.68 1422.16 887.906 1422.15C894.822 1421.83 902.415 1415.77 908.262 1376.09L911.208 1377.16L960.726 1394.97C960.726 1394.97 957.138 1410.87 954.818 1425.99C952.863 1438.69 951.814 1450.87 954.518 1452.65Z" fill="#FFB27D"/>
<path d="M960.725 1394.97C960.725 1394.97 957.137 1410.87 954.817 1425.99C926.375 1420.87 915.212 1392.53 911.208 1377.16L960.725 1394.97Z" fill="#ED975D"/>
<path d="M968.1 1410.75C968.1 1410.75 900.351 1401.65 906.663 1359.55C912.975 1317.44 908.481 1287.92 952.004 1291.95C995.528 1295.96 1001.5 1313.29 1002.82 1327.85C1004.13 1342.41 985.885 1412.03 968.1 1410.75" fill="#FFB27D"/>
<path d="M1000.35 1304.77C1000.35 1304.77 956.976 1342.15 927.476 1345.16C897.976 1348.17 886.808 1338.71 886.808 1338.71C886.808 1338.71 904.196 1324.27 914.66 1300.97C917.745 1294.11 924.26 1289.39 931.76 1288.75C952.825 1286.92 992.757 1286.09 1000.35 1304.77Z" fill="#233862"/>
<path d="M973.236 1301.43C973.236 1301.43 987.745 1315.45 992.313 1325.87C996.723 1335.91 998.045 1359.92 994.533 1369.45C994.533 1369.45 1017.14 1325.49 1004.34 1304.15C990.771 1281.49 973.236 1301.43 973.236 1301.43Z" fill="#233862"/>
<path d="M1011.57 1552.45C1009.52 1689.6 1011 1660.95 996.003 1673.96C992.388 1677.09 982.225 1678.96 968.852 1679.84C926.8 1682.63 852.876 1675.71 850.065 1667.93C840.365 1641.04 847.213 1632.68 839.12 1591.52C838.277 1587.13 837.232 1582.4 836.007 1577.24C829.26 1548.96 822.693 1539.35 846.631 1493.92C868.34 1452.77 890.892 1419.37 892.92 1420.57C950.195 1454.57 954.813 1426 954.813 1426C954.813 1426 1012.57 1485.56 1011.57 1552.45Z" fill="white"/>
<path d="M1158.36 1906.08L1114.33 2024.57C1114.33 2024.57 1102.38 2025.72 1090.94 2022.43C1080.4 2019.39 1068.32 2011.41 1068.32 2011.41C1068.32 2011.41 1080.54 1884.2 1103.35 1811.16L1158.36 1906.08" fill="#2B478B"/>
<path d="M954.817 1425.99C954.817 1425.99 1013.75 1435.99 1020.67 1461.36C1027.59 1486.73 1068.32 1635.91 1068.32 1635.91C1068.32 1635.91 1038.36 1641.28 1024.52 1627.44C1010.67 1613.6 976.356 1499.03 976.356 1499.03L954.817 1425.99Z" fill="white"/>
<path d="M968.852 1679.84C926.8 1682.63 852.876 1675.71 850.065 1667.93C840.365 1641.04 847.213 1632.68 839.12 1591.52L859.403 1534.4C859.403 1534.4 856.049 1598 874.805 1614.73C893.543 1631.47 951.601 1647.03 960.719 1661C965.116 1667.71 968.008 1674.44 968.852 1679.84" fill="#EBF3FF"/>
<path d="M920.669 1653.09C920.669 1653.09 962.157 1643.85 968.852 1647.53C975.545 1651.21 991.907 1664.63 993.955 1669.29C996.003 1673.96 979.051 1665.75 973.537 1664.27C969.967 1663.31 960.567 1666.57 955.915 1668.13C936.333 1674.65 924.336 1671.29 924.336 1671.29L920.669 1653.09Z" fill="#FFB27D"/>
<path d="M892.886 1420.55C892.886 1420.55 837.179 1423.97 817.895 1450.88C790.75 1488.73 736.898 1650.09 767.76 1671.61C802.518 1695.85 925.944 1677.96 925.944 1677.96C925.944 1677.96 930.051 1658.76 924.336 1649.47C918.622 1640.19 825.754 1625.19 821.467 1620.89C817.182 1616.61 875.044 1537.31 875.044 1524.45C875.044 1511.6 892.886 1420.55 892.886 1420.55" fill="white"/>
<path d="M970.86 1659.08C970.86 1659.08 979.553 1670.29 982.403 1671.63C985.252 1672.97 987.093 1672.64 987.093 1672.64L981.236 1662.09L970.86 1659.08Z" fill="#FFB27D"/>
<path d="M968.852 1647.53L994.125 1659.8C994.125 1659.8 993.051 1661.56 989.939 1661.43C986.825 1661.28 978.976 1658.41 978.976 1658.41L968.852 1647.53" fill="#FFB27D"/>
<path d="M982.403 1688.81H1182.32L1242.46 1539.25H1042.85L982.403 1688.81Z" fill="#F99746"/>
<path d="M1184.67 1682.99H920.669V1688.81H1182.32L1184.67 1682.99Z" fill="#ED7D2B"/>
<path d="M1131.86 1614.03C1133.36 1608.77 1130.32 1604.52 1125.07 1604.52C1119.81 1604.52 1114.33 1608.77 1112.82 1614.03C1111.31 1619.29 1114.35 1623.55 1119.61 1623.55C1124.87 1623.55 1130.35 1619.29 1131.86 1614.03Z" fill="white"/>
<path d="M2129.6 1703.13C2129.57 1702.33 2134.01 1611.65 2090.2 1590.79L2093.29 1587.83C2113.36 1594.83 2135.61 1616.49 2144.51 1647.08C2151.12 1669.81 2146.09 1674.8 2146.12 1675.65L2129.6 1703.13Z" fill="#A4C8FC"/>
<path d="M2015.2 1523.52C2015.2 1523.52 2010.2 1570.17 2034.63 1590.01C2059.07 1609.85 2103.69 1595.37 2103.69 1595.37C2103.69 1595.37 2108.69 1548.73 2084.25 1528.89C2059.83 1509.05 2015.2 1523.52 2015.2 1523.52" fill="#A4C8FC"/>
<path d="M2122.12 1873.23C2121.29 1868.67 2105.49 1761.88 2145.92 1642.87C2184.75 1528.52 2163.24 1431.57 2163.08 1430.61H2191.65C2192.39 1434.75 2194.37 1529.91 2163.93 1660.32C2136.56 1777.67 2187.69 1873.23 2176.8 1873.23H2122.12" fill="#A4C8FC"/>
<path d="M2182.13 1557.97C2182.28 1557.36 2195.92 1479.12 2232.61 1470.21C2216.21 1472.35 2195.37 1484.09 2183.72 1505.96C2175.05 1522.21 2178.09 1526.83 2177.93 1527.47L2182.13 1557.97" fill="#A4C8FC"/>
<path d="M2035.28 1350.43C2035.28 1350.43 1995.69 1294.55 1950.75 1278.13C1950.75 1278.13 1967.56 1409.21 1942.97 1410.84C1918.39 1412.45 1934.77 1263.43 1934.77 1263.43C1934.77 1263.43 1817.67 1198.41 1770.12 1200.21C1770.12 1200.21 1837.44 1331.19 1813.21 1326.71C1788.99 1322.23 1712.61 1189.19 1712.61 1189.19C1712.61 1189.19 1590.4 1159.08 1566.28 1231.12C1542.17 1303.17 1572.05 1341.65 1590.09 1347.31C1608.12 1352.96 1725.65 1358.31 1721.72 1373.39C1717.77 1388.45 1637.03 1408.21 1593.6 1391.89C1593.6 1391.89 1635.35 1515.25 1699.76 1512.91C1764.19 1510.56 1786.33 1472.07 1826.17 1471.33C1866.01 1470.6 1894.36 1482.99 1873.91 1492.49C1853.45 1502.01 1786.76 1490.91 1753.13 1516.25C1719.51 1541.61 1692.6 1556.87 1751.37 1572.56C1810.13 1588.24 1898.84 1570.53 1940.93 1542.48C1941.05 1542.4 1975.4 1539.67 2002.44 1698.65C2012.87 1759.95 2004.85 1850.87 2004.85 1850.87L2026.67 1847.53C2038.76 1669.33 1974.44 1521.17 1974.44 1521.17C1974.44 1521.17 2083.57 1440.49 2035.28 1350.43" fill="#A4C8FC"/>
<path d="M2392.16 1585.63C2392.16 1585.63 2260.68 1530.39 2307.75 1429.89C2307.75 1429.89 2347.37 1366.96 2395.15 1346.53C2395.15 1346.53 2384.63 1489.64 2411.39 1489.95C2438.13 1490.27 2411.6 1329.64 2411.6 1329.64C2411.6 1329.64 2534.75 1252.25 2586.41 1251.41C2586.41 1251.41 2521.12 1397.39 2547.12 1391.11C2573.13 1384.81 2648.12 1236.08 2648.12 1236.08C2648.12 1236.08 2778.85 1196.24 2809.24 1272.93C2839.64 1349.64 2809.49 1393.13 2790.27 1400.31C2771.05 1407.49 2643.92 1420.21 2649.08 1436.33C2654.25 1452.44 2742.96 1469.12 2789.09 1448.87C2789.09 1448.87 2751.08 1585.08 2681.09 1586.32C2611.11 1587.56 2584.83 1547.12 2541.59 1548.68C2498.35 1550.24 2468.33 1565.32 2491.07 1574.43C2513.81 1583.55 2585.47 1567.57 2623.41 1593.09C2661.37 1618.6 2691.45 1633.56 2628.65 1654.03C2565.84 1674.49 2449.52 1679.32 2420.84 1632.48C2392.16 1585.63 2392.16 1585.63 2392.16 1585.63" fill="#D2E3FC"/>
<path d="M2751.05 1304.57C2751.05 1304.57 2417.55 1455.87 2392.16 1585.63C2392.16 1585.63 2400.15 1641.49 2372.81 1709.71L2375.61 1734.44C2375.61 1734.44 2402.36 1646.25 2420.84 1632.48C2420.84 1632.48 2331.04 1532.44 2751.05 1304.57Z" fill="#A4C8FC"/>
<path d="M2372.81 1709.71C2372.81 1709.71 2328.6 1796.83 2370.21 1892.07L2383.52 1886.83C2383.52 1886.83 2357.89 1779.63 2379.63 1721.8C2401.37 1663.97 2372.81 1709.71 2372.81 1709.71Z" fill="#A4C8FC"/>
<path d="M1890.87 987.213C1944.75 1044.55 1916.72 1158.43 1916.72 1158.43C1916.72 1158.43 1801.32 1179.35 1747.43 1122C1693.55 1064.65 1721.57 950.773 1721.57 950.773C1721.57 950.773 1836.97 929.867 1890.87 987.213" fill="#A4C8FC"/>
<path d="M1890.87 987.213C1944.75 1044.55 1916.72 1158.43 1916.72 1158.43L1721.57 950.774C1721.57 950.774 1836.97 929.867 1890.87 987.213Z" fill="#D2E3FC"/>
<path d="M2585.84 1205.63C2557.71 1238.2 2494.17 1229.44 2494.17 1229.44C2494.17 1229.44 2476.23 1167.87 2504.35 1135.28C2532.47 1102.71 2596.01 1111.47 2596.01 1111.47C2596.01 1111.47 2613.96 1173.05 2585.84 1205.63Z" fill="#A4C8FC"/>
<path d="M2253.48 1492.19C2234.63 1497.41 2212.8 1478.08 2212.8 1478.08C2212.8 1478.08 2221.55 1450.27 2240.4 1445.04C2259.24 1439.8 2281.07 1459.15 2281.07 1459.15C2281.07 1459.15 2272.32 1486.96 2253.48 1492.19Z" fill="#A4C8FC"/>
<path d="M1920.59 880.867C1933.51 911.507 1905.67 952.507 1905.67 952.507C1905.67 952.507 1856.87 943.827 1843.95 913.187C1831.03 882.547 1858.87 841.547 1858.87 841.547C1858.87 841.547 1907.67 850.227 1920.59 880.867Z" fill="#A4C8FC"/>
<path d="M1894.77 1175.81C1874.93 1018.25 1986.59 874.427 2144.16 854.6C2301.72 834.76 2445.53 946.4 2465.37 1103.97C2485.21 1261.53 2373.56 1405.35 2216 1425.19C2058.43 1445.03 1914.61 1333.39 1894.77 1175.81Z" fill="#E2810E"/>
<path d="M1869.89 1178.95C1850.05 1021.39 1961.69 877.56 2119.27 857.733C2276.83 837.893 2420.64 949.533 2440.48 1107.11C2460.32 1264.67 2348.68 1408.48 2191.11 1428.32C2033.55 1448.16 1889.73 1336.52 1869.89 1178.95" fill="#FFB93E"/>
<path d="M2124.84 901.96C1990.05 918.933 1894.21 1042.4 1911.17 1177.17C1928.15 1311.95 2051.61 1407.8 2186.39 1390.83C2321.17 1373.85 2417.01 1250.4 2400.04 1115.63C2383.07 980.84 2259.61 885 2124.84 901.96V901.96ZM2188.33 1406.33C2118.91 1415.08 2050.23 1396.25 1994.95 1353.35C1939.67 1310.43 1904.41 1248.56 1895.67 1179.12C1886.93 1109.69 1905.75 1041.01 1948.67 985.733C1991.57 930.453 2053.45 895.2 2122.88 886.453C2192.32 877.72 2261 896.533 2316.27 939.453C2371.55 982.36 2406.8 1044.24 2415.55 1113.67C2424.29 1183.09 2405.47 1251.79 2362.56 1307.05C2319.64 1362.33 2257.77 1397.59 2188.33 1406.33" fill="#FFA412"/>
<path d="M2200.89 1217.33C2200.85 1211.64 2200.01 1206.64 2198.39 1202.32C2196.75 1198 2194.09 1194.08 2190.43 1190.59C2186.75 1187.09 2182.03 1183.88 2176.24 1180.93C2170.45 1178 2163.4 1175.13 2155.07 1172.35C2140.75 1167.44 2127.72 1162.28 2116.03 1156.88C2104.31 1151.48 2094.28 1145.21 2085.92 1138.09C2077.56 1130.97 2071.04 1122.63 2066.37 1113.04C2061.72 1103.45 2059.33 1092.01 2059.24 1078.75C2059.16 1067.23 2061.12 1056.72 2065.15 1047.2C2069.16 1037.69 2074.93 1029.39 2082.47 1022.29C2090 1015.19 2099.03 1009.4 2109.57 1004.92C2120.12 1000.45 2131.95 997.547 2145.07 996.24L2144.75 952.747L2179.75 952.507L2180.07 996.6C2192.61 998.133 2204.01 1001.37 2214.27 1006.31C2224.51 1011.25 2233.23 1017.69 2240.43 1025.63C2247.63 1033.57 2253.21 1042.99 2257.15 1053.85C2261.09 1064.73 2263.11 1076.95 2263.21 1090.49L2199.99 1090.95C2199.88 1074.69 2196.17 1062.56 2188.91 1054.55C2181.63 1046.55 2171.93 1042.57 2159.83 1042.67C2153.27 1042.71 2147.63 1043.67 2142.89 1045.53C2138.17 1047.39 2134.29 1049.93 2131.25 1053.13C2128.21 1056.35 2125.97 1060.11 2124.55 1064.45C2123.12 1068.8 2122.43 1073.48 2122.47 1078.49C2122.49 1083.51 2123.25 1088.04 2124.75 1092.09C2126.23 1096.15 2128.77 1099.89 2132.37 1103.32C2135.97 1106.75 2140.73 1109.96 2146.67 1112.97C2152.59 1115.97 2159.95 1119.08 2168.72 1122.27C2182.89 1127.44 2195.8 1132.77 2207.44 1138.24C2219.07 1143.72 2229.07 1150.04 2237.44 1157.23C2245.8 1164.41 2252.31 1172.81 2256.97 1182.39C2261.64 1191.97 2264.01 1203.35 2264.11 1216.48C2264.2 1228.4 2262.2 1239.12 2258.11 1248.63C2254.01 1258.15 2248.2 1266.37 2240.67 1273.33C2233.13 1280.31 2224.03 1285.92 2213.33 1290.2C2202.65 1294.48 2190.75 1297.27 2177.63 1298.59L2177.92 1339.01L2143.13 1339.27L2142.85 1299.03C2130.73 1297.91 2119.01 1295.35 2107.68 1291.36C2096.36 1287.37 2086.29 1281.59 2077.48 1274C2068.68 1266.41 2061.61 1256.81 2056.28 1245.19C2050.95 1233.59 2048.21 1219.64 2048.11 1203.39L2111.32 1202.95C2111.39 1212.56 2112.79 1220.57 2115.53 1226.99C2118.28 1233.4 2121.93 1238.53 2126.48 1242.36C2131.03 1246.19 2136.19 1248.85 2141.96 1250.37C2147.72 1251.89 2153.6 1252.63 2159.59 1252.59C2166.44 1252.53 2172.44 1251.61 2177.61 1249.81C2182.77 1248.01 2187.09 1245.55 2190.57 1242.4C2194.05 1239.27 2196.65 1235.55 2198.37 1231.28C2200.09 1226.99 2200.93 1222.35 2200.89 1217.33" fill="#FFA412"/>
<path d="M2409.49 1845.47L2409.47 1845.69L2403.75 1933.77L2382.45 2260.83H1984.47L1961.03 1938.25L1954.57 1849.36L1954.29 1845.47H2409.49" fill="#739AF0"/>
<path d="M2409.47 1845.69L2403.75 1933.77C2373.76 1923.33 2290.44 1898.24 2181.89 1898.24C2044.8 1898.24 1961.03 1938.25 1961.03 1938.25L1954.57 1849.36L2409.47 1845.69" fill="#618DD8"/>
<path d="M2423.32 1892.03H1939.85L1934.32 1835.81H2429.45L2423.32 1892.03Z" fill="#739AF0"/>
<path d="M2388.57 2278.28H1975.92L1971.2 2258.71H2393.81L2388.57 2278.28Z" fill="#618DD8"/>
<path d="M1674.73 2096.09C1674.36 2094.04 1667.25 2046 1685.44 1992.47C1702.91 1941.04 1693.24 1897.43 1693.16 1897H1706.01C1706.35 1898.85 1707.24 1941.67 1693.55 2000.32C1681.23 2053.11 1704.23 2096.09 1699.33 2096.09H1674.73" fill="#A4C8FC"/>
<path d="M1701.73 1954.28C1701.8 1954.01 1707.93 1918.81 1724.44 1914.81C1717.07 1915.77 1707.69 1921.05 1702.44 1930.89C1698.55 1938.2 1699.91 1940.27 1699.84 1940.56L1701.73 1954.28Z" fill="#A4C8FC"/>
<path d="M1671.24 1946.05C1671.24 1946.05 1655.09 1919.81 1635.39 1911.15C1635.39 1911.15 1639.13 1970.48 1628.05 1970.49C1616.97 1970.51 1628.64 1904.08 1628.64 1904.08C1628.64 1904.08 1577.96 1871.51 1556.56 1870.95C1556.56 1870.95 1582.99 1931.68 1572.24 1928.97C1561.51 1926.25 1531.07 1864.33 1531.07 1864.33C1531.07 1864.33 1477.08 1847.27 1464.17 1878.91C1451.25 1910.56 1463.56 1928.69 1471.49 1931.75C1479.43 1934.81 1532.03 1940.61 1529.81 1947.27C1527.61 1953.92 1490.8 1960.45 1471.77 1951.87C1471.77 1951.87 1486.95 2008.45 1515.92 2009.27C1544.91 2010.08 1555.97 1993.44 1573.87 1994.27C1591.77 1995.09 1604.15 2001.47 1594.68 2005.15C1585.23 2008.83 1555.61 2001.91 1539.79 2012.31C1523.96 2022.72 1511.44 2028.79 1537.36 2037.53C1563.29 2046.28 1603.61 2040.89 1623.32 2029.52C1623.39 2029.49 1638.88 2029.25 1646.41 2101.41C1649.31 2129.21 1643.08 2169.8 1643.08 2169.8L1652.97 2168.93C1663.56 2089.29 1638.99 2020.93 1638.99 2020.93C1638.99 2020.93 1690.31 1987.88 1671.24 1946.05" fill="#A4C8FC"/>
<path d="M1733.83 1924.69C1725.35 1927.04 1715.52 1918.35 1715.52 1918.35C1715.52 1918.35 1719.45 1905.84 1727.93 1903.48C1736.41 1901.13 1746.23 1909.83 1746.23 1909.83C1746.23 1909.83 1742.29 1922.35 1733.83 1924.69" fill="#A4C8FC"/>
<path d="M1831.36 1733.49C1801.76 1752.88 1802 1805.64 1802 1805.64C1802 1805.64 1850.25 1826.95 1879.87 1807.56C1909.48 1788.17 1909.23 1735.41 1909.23 1735.41C1909.23 1735.41 1860.97 1714.11 1831.36 1733.49Z" fill="#A4C8FC"/>
<path d="M1831.36 1733.49C1801.76 1752.88 1802 1805.64 1802 1805.64L1909.23 1735.41C1909.23 1735.41 1860.97 1714.11 1831.36 1733.49" fill="#D2E3FC"/>
<path d="M1829.59 1683.85C1820.71 1695.89 1828.56 1716.76 1828.56 1716.76C1828.56 1716.76 1850.81 1718.11 1859.69 1706.07C1868.57 1694.04 1860.72 1673.17 1860.72 1673.17C1860.72 1673.17 1838.47 1671.81 1829.59 1683.85" fill="#A4C8FC"/>
<path d="M1572.48 1782.39C1563.55 1711.51 1613.77 1646.83 1684.65 1637.89C1755.52 1628.97 1820.21 1679.2 1829.13 1750.07C1838.05 1820.95 1787.84 1885.64 1716.96 1894.56C1646.09 1903.48 1581.4 1853.27 1572.48 1782.39Z" fill="#E2810E"/>
<path d="M1561.28 1783.8C1552.36 1712.92 1602.57 1648.23 1673.45 1639.31C1744.32 1630.39 1809.01 1680.6 1817.93 1751.48C1826.87 1822.36 1776.64 1887.04 1705.77 1895.97C1634.89 1904.89 1570.2 1854.67 1561.28 1783.8" fill="#FFB93E"/>
<path d="M1675.96 1659.21C1615.33 1666.84 1572.23 1722.37 1579.85 1783C1587.49 1843.63 1643.01 1886.73 1703.64 1879.11C1764.27 1871.47 1807.39 1815.93 1799.75 1755.31C1792.12 1694.69 1736.59 1651.57 1675.96 1659.21ZM1704.52 1886.08C1673.29 1890.01 1642.4 1881.55 1617.53 1862.24C1592.67 1842.93 1576.81 1815.11 1572.88 1783.88C1568.95 1752.64 1577.41 1721.75 1596.72 1696.89C1616.01 1672.03 1643.85 1656.16 1675.08 1652.23C1706.31 1648.31 1737.2 1656.76 1762.07 1676.07C1786.93 1695.37 1802.79 1723.2 1806.72 1754.43C1810.65 1785.67 1802.19 1816.56 1782.88 1841.43C1763.59 1866.28 1735.75 1882.15 1704.52 1886.08Z" fill="#FFA412"/>
<path d="M1710.17 1801.07C1710.15 1798.51 1709.77 1796.25 1709.04 1794.31C1708.31 1792.36 1707.11 1790.6 1705.45 1789.03C1703.8 1787.45 1701.68 1786.01 1699.08 1784.69C1696.48 1783.37 1693.31 1782.08 1689.56 1780.83C1683.11 1778.61 1677.25 1776.29 1672 1773.87C1666.72 1771.44 1662.21 1768.63 1658.45 1765.41C1654.69 1762.21 1651.76 1758.47 1649.67 1754.15C1647.56 1749.84 1646.49 1744.69 1646.45 1738.72C1646.41 1733.55 1647.31 1728.81 1649.11 1724.53C1650.91 1720.25 1653.51 1716.52 1656.89 1713.33C1660.28 1710.13 1664.35 1707.53 1669.09 1705.52C1673.84 1703.51 1679.16 1702.2 1685.05 1701.61L1684.92 1682.05L1700.65 1681.93L1700.8 1701.77C1706.44 1702.47 1711.57 1703.92 1716.19 1706.15C1720.79 1708.36 1724.71 1711.27 1727.96 1714.83C1731.19 1718.41 1733.69 1722.64 1735.48 1727.53C1737.24 1732.43 1738.16 1737.92 1738.2 1744.01L1709.76 1744.21C1709.71 1736.91 1708.05 1731.44 1704.77 1727.84C1701.51 1724.24 1697.15 1722.45 1691.69 1722.49C1688.75 1722.52 1686.21 1722.95 1684.08 1723.79C1681.96 1724.63 1680.21 1725.76 1678.84 1727.2C1677.48 1728.64 1676.47 1730.35 1675.83 1732.29C1675.19 1734.25 1674.88 1736.36 1674.89 1738.61C1674.91 1740.87 1675.25 1742.91 1675.92 1744.73C1676.59 1746.55 1677.73 1748.24 1679.35 1749.77C1680.96 1751.32 1683.11 1752.76 1685.77 1754.12C1688.44 1755.47 1691.75 1756.87 1695.69 1758.29C1702.07 1760.63 1707.88 1763.03 1713.11 1765.48C1718.35 1767.95 1722.84 1770.8 1726.6 1774.03C1730.37 1777.25 1733.29 1781.03 1735.4 1785.35C1737.49 1789.65 1738.56 1794.77 1738.6 1800.68C1738.64 1806.04 1737.75 1810.87 1735.91 1815.13C1734.07 1819.41 1731.45 1823.12 1728.07 1826.25C1724.67 1829.39 1720.57 1831.92 1715.76 1833.84C1710.96 1835.76 1705.6 1837.01 1699.71 1837.61L1699.84 1855.8L1684.19 1855.91L1684.07 1837.81C1678.61 1837.31 1673.33 1836.15 1668.24 1834.36C1663.15 1832.57 1658.61 1829.97 1654.65 1826.55C1650.69 1823.13 1647.52 1818.81 1645.12 1813.59C1642.72 1808.37 1641.49 1802.11 1641.44 1794.79L1669.88 1794.59C1669.91 1798.92 1670.55 1802.52 1671.77 1805.4C1673.01 1808.29 1674.65 1810.6 1676.69 1812.32C1678.75 1814.04 1681.07 1815.24 1683.65 1815.92C1686.25 1816.6 1688.89 1816.93 1691.59 1816.92C1694.67 1816.89 1697.37 1816.48 1699.69 1815.67C1702.01 1814.87 1703.96 1813.75 1705.53 1812.33C1707.09 1810.92 1708.25 1809.25 1709.03 1807.33C1709.81 1805.41 1710.19 1803.32 1710.17 1801.07" fill="#FFA412"/>
<path d="M1804 2083.6L1803.99 2083.71L1801.41 2123.32L1791.84 2270.43H1612.81L1602.28 2125.33L1599.37 2085.35L1599.24 2083.6H1804Z" fill="#B4C9F7"/>
<path d="M1803.99 2083.71L1801.41 2123.32C1787.92 2118.63 1750.44 2107.33 1701.63 2107.33C1639.96 2107.33 1602.28 2125.33 1602.28 2125.33L1599.37 2085.35L1803.99 2083.71" fill="#9BB8EA"/>
<path d="M1810.21 2104.55H1592.76L1590.27 2079.25H1812.97L1810.21 2104.55" fill="#B4C9F7"/>
<path d="M1794.59 2278.28H1608.97L1606.85 2269.48H1796.95L1794.59 2278.28Z" fill="#B4C9F7"/>
<path d="M2541.64 1522.11C2541.64 1522.11 2521.19 1518.12 2516.52 1522.11C2511.84 1526.09 2489.67 1548.61 2494.41 1556.01C2499.16 1563.41 2521.93 1549.89 2526.67 1548.61C2531.39 1547.35 2544.63 1542.17 2544.63 1542.17L2541.64 1522.11Z" fill="#FFB27D"/>
<path d="M2758.88 2244.88L2780.79 2253.04C2780.79 2253.04 2875.97 2121.03 2887.69 2004.87C2889.79 1984.13 2889.09 1964.04 2884.56 1945.48C2884.56 1945.48 2885.49 1940.17 2887.12 1930.77C2887.88 1926.39 2888.8 1921.12 2889.87 1915.07C2892.96 1897.33 2897.21 1873.08 2902.08 1845.45C2913.28 1781.88 2927.79 1700.61 2939.07 1640.88L2933.16 1638.97L2869.27 1618.37L2856.07 1576.43L2808.49 1563.91C2808.49 1563.91 2797.87 1584.69 2788.36 1682.91C2786.61 1695.79 2785.01 1709.99 2783.81 1725.4C2780.11 1772.41 2779.84 1830.75 2788.35 1897.43C2790.52 1914.49 2793.28 1932.12 2796.69 1950.23C2799.2 1963.51 2799.57 1981.59 2798.52 2002.36C2793.73 2097.31 2758.88 2244.88 2758.88 2244.88" fill="#2B478B"/>
<path d="M2783.81 1725.4L2887.12 1930.77C2887.88 1926.39 2888.8 1921.12 2889.87 1915.07C2892.96 1897.33 2897.21 1873.08 2902.08 1845.45C2913.28 1781.88 2927.79 1700.61 2939.07 1640.88L2933.16 1638.97L2869.27 1618.37L2856.07 1576.43L2808.49 1563.91C2808.49 1563.91 2797.87 1584.69 2788.36 1682.91C2786.61 1695.79 2785.01 1709.99 2783.81 1725.4" fill="#233862"/>
<path d="M2829.27 1590.27L2831.65 1569.75C2871.72 1580.4 2978.77 1540.01 2978.77 1540.01C2978.77 1540.01 3017.59 1574.13 3012.49 1655.92C3010 1695.84 3005.45 1865.47 3000.72 1915.67C2999 1933.85 2997.49 1946.8 2996.88 1951.97C2996.87 1952 2996.87 1952.01 2996.87 1952.03C2996.68 1953.6 2997.24 1955.09 2998.04 1956.47C3005.03 1968.32 3010.8 1980.67 3015.55 1993.31C3062.13 2117.43 3008.37 2270.28 3008.37 2270.28L2994.43 2264.65C2994.43 2264.65 2963.84 2094.55 2938.99 2019.4C2934.77 2006.65 2930.72 1996.64 2927.01 1990.65C2916.21 1973.21 2906.19 1944.71 2897.08 1910.81C2879.88 1846.73 2866.03 1763.37 2856.81 1699.03C2855.55 1699.09 2829.27 1590.27 2829.27 1590.27" fill="#2B478B"/>
<path d="M2541.64 1522.11L2544.63 1542.17C2544.63 1542.17 2545.95 1542.17 2548.27 1542C2555.57 1541.51 2573.32 1540.52 2593.39 1538.36C2623.56 1535.37 2659.39 1530.07 2673.65 1521.28C2695.37 1508.01 2731.04 1467.37 2754.25 1426.75C2754.92 1425.75 2755.41 1424.75 2755.91 1423.76C2768.01 1402.2 2776.48 1380.8 2777.13 1363.72C2777.64 1353.27 2776.48 1344.32 2774.32 1336.52C2771.51 1326.24 2766.85 1318.12 2762.05 1311.97C2761.39 1310.99 2760.72 1309.99 2759.72 1309.16C2751.76 1299.71 2743.97 1295.72 2743.97 1295.72C2739.99 1294.07 2735.68 1296.05 2731.2 1300.87V1301.03C2727.55 1304.84 2723.57 1310.65 2719.76 1317.95C2719.59 1318.12 2719.43 1318.28 2719.43 1318.44C2718.6 1319.93 2717.76 1321.6 2716.77 1323.41C2716.44 1323.75 2716.28 1324.25 2716.11 1324.59C2714.28 1328.4 2712.45 1332.37 2710.64 1336.52C2690.24 1380.97 2668.51 1448.31 2650.43 1468.37C2642.64 1476.99 2606.99 1493.91 2578.63 1506.52C2558.23 1515.47 2541.64 1522.11 2541.64 1522.11" fill="#FFB27D"/>
<path d="M2752.72 1341.51C2765.29 1347.35 2780.49 1351.32 2798.87 1352.32C2867.75 1356.09 2883.39 1295.71 2886.23 1255.63C2876.29 1252.03 2867.6 1252.37 2862.59 1252.64C2857.71 1252.91 2852.61 1253.41 2848.4 1253.93C2839.97 1249.53 2824.84 1228.15 2816.09 1192.39L2813.12 1193.76L2763.41 1217.12C2763.41 1217.12 2768.69 1233.31 2772.6 1248.77C2775.64 1260.89 2777.83 1272.59 2776 1275.87C2772.08 1277.45 2769.73 1278.45 2769.73 1278.45C2769.73 1278.45 2769.73 1278.48 2769.72 1278.51C2769.21 1279.79 2758.41 1307.32 2752.72 1341.51" fill="#FFB27D"/>
<path d="M2735.49 1386.71C2736.01 1388.08 2736.59 1389.43 2737.21 1390.8C2754.65 1428.37 2786.95 1584.01 2786.95 1584.01C2782.35 1612 2997.24 1578.52 2997.8 1553.04C3005.37 1526.03 2970.95 1482.63 2951.53 1460.85C2949.11 1458.11 2946.92 1455.17 2945.03 1452.08C2940.23 1444.32 2937.19 1435.55 2936.21 1426.39C2932.4 1390.27 2933.85 1356.43 2933.53 1335.84C2929.75 1333.03 2926.07 1330.44 2922.65 1327.96C2917.43 1324.16 2912.81 1320.6 2909.41 1316.97C2905.68 1313.04 2903.33 1309.01 2903.07 1304.48C2902.87 1301.04 2902.97 1297.52 2903.33 1293.99C2903.49 1292.32 2903.71 1290.67 2903.96 1289C2906.64 1271.52 2913.95 1255.67 2913.95 1255.67C2895.45 1248.19 2862.59 1252.64 2862.59 1252.64C2862.59 1252.64 2862.63 1254.47 2862.65 1257.45C2862.76 1269.45 2862.65 1300.28 2858.8 1306.12C2853.99 1313.39 2765.95 1345.21 2761.29 1335.36C2756.71 1325.65 2769.25 1280.23 2769.72 1278.51C2769.73 1278.48 2769.73 1278.45 2769.73 1278.45C2740.25 1290.04 2729.71 1299.75 2729.71 1299.75C2747.48 1311.28 2721.75 1350.25 2735.49 1386.71" fill="#F99746"/>
<path d="M2794.8 1062.04C2794.91 1059.05 2797.21 1026.88 2846.23 1025.2C2846.23 1025.2 2822.13 1028.07 2817.96 1038.67C2817.96 1038.67 2834.37 1025.57 2847.75 1029.79C2861.11 1034 2868.96 1057.41 2869.04 1065.12C2869.12 1072.81 2861.69 1097.64 2853.21 1099.76C2850 1100.56 2846.29 1100.35 2842.93 1099.77C2845.19 1103.29 2847.4 1107.19 2849.52 1111.52C2869.08 1151.68 2848.91 1190.91 2832.35 1186.57C2821.73 1183.8 2818.72 1201.92 2818.72 1201.92L2715.55 1118.39C2715.55 1118.39 2753.44 1039.97 2794.8 1062.04" fill="#2C3A64"/>
<path d="M2763.41 1217.13C2763.41 1217.13 2768.71 1233.29 2772.6 1248.79C2801.65 1240.68 2810.47 1210.15 2813.12 1193.77L2763.41 1217.13" fill="#ED985F"/>
<path d="M2757.29 1234.24C2757.29 1234.24 2826.81 1218.16 2816.12 1175.03C2805.44 1131.89 2807.21 1100.77 2762.39 1109.21C2717.56 1117.67 2713.04 1136.25 2713.11 1151.52C2713.17 1166.79 2738.95 1237.32 2757.29 1234.24" fill="#FFB27D"/>
<path d="M2709.2 1127.03C2716.67 1111.4 2725.47 1112.23 2730.96 1115C2763.63 1084.79 2795.65 1109.47 2795.65 1109.47C2807.99 1139.25 2834.71 1151.43 2834.71 1151.43C2834.71 1151.43 2824.04 1162.36 2793.08 1162.12C2783.63 1162.04 2774.13 1157.71 2765.48 1151.72C2782.16 1168.53 2801.72 1178.76 2801.72 1178.76C2762.97 1171.35 2737 1126.49 2734.33 1121.73C2731.05 1126.57 2724.77 1136.89 2724.25 1145.6C2723.53 1157.44 2727.61 1180.43 2720.83 1181.31C2720.83 1181.31 2697.99 1150.48 2709.2 1127.03" fill="#2C3A64"/>
<path d="M2729.71 1299.75C2729.71 1299.75 2712.97 1328.93 2710.47 1336.45C2710.47 1336.45 2732.16 1335.61 2740.93 1352.31C2740.93 1352.31 2743.03 1303.68 2729.71 1299.75" fill="#F99746"/>
<path d="M2844.81 1531.72C2887.2 1531.27 2923.08 1487.25 2945.03 1452.08C2940.23 1444.32 2937.19 1435.55 2936.21 1426.39C2932.4 1390.27 2933.85 1356.43 2933.53 1335.84C2929.75 1333.03 2926.07 1330.44 2922.65 1327.96C2917.43 1324.16 2912.81 1320.6 2909.41 1316.97C2874.71 1375.65 2787.33 1532.32 2844.81 1531.72" fill="#ED7D2B"/>
<path d="M2684.6 1554.77L2690.4 1576C2690.4 1576 2697.69 1574.68 2709.31 1572.52C2712.79 1571.85 2714.79 1571.36 2714.79 1571.36C2724.07 1569.53 2735.17 1567.05 2747.28 1564.4H2747.45C2768.19 1559.41 2791.4 1553.45 2810.97 1546.81C2824.73 1542 2836.68 1536.87 2844.8 1531.72C2845.64 1531.23 2846.29 1530.73 2847.12 1530.07C2866.53 1515.97 2889.59 1474.51 2907.49 1430.05C2909.99 1423.92 2912.31 1417.79 2914.63 1411.81C2922.92 1389.59 2929.55 1367.71 2933.53 1348.8C2936.01 1337.52 2937.68 1327.23 2938.01 1318.77C2938.17 1315.79 2938.35 1312.97 2938.17 1310.32C2937.84 1262.23 2913.96 1255.59 2913.96 1255.59C2913.47 1255.43 2912.97 1255.25 2912.31 1255.09C2908.16 1254.43 2903.84 1257.25 2899.37 1262.72C2893.73 1269.52 2887.76 1280.63 2881.63 1294.07C2872.17 1315.45 2862.21 1343.16 2852.93 1370.69C2847.79 1385.77 2842.81 1400.87 2837.84 1414.8C2835.01 1423.25 2832.2 1431.21 2829.55 1438.52C2824.4 1452.45 2819.76 1463.72 2815.61 1470.85C2812.96 1475.51 2805.33 1481.97 2795.21 1489.27C2777.64 1502.04 2751.93 1517.47 2729.55 1530.07C2720.25 1535.37 2711.47 1540.19 2704.17 1544.16C2692.39 1550.63 2684.6 1554.77 2684.6 1554.77Z" fill="#FFB27D"/>
<path d="M2881.68 1294.13C2913.61 1285.33 2938.24 1310.25 2938.24 1310.25C2937.84 1262.24 2913.93 1255.67 2913.93 1255.67C2904.32 1251.69 2893.17 1268.35 2881.68 1294.13Z" fill="#F99746"/>
<path d="M2927.28 2281.67H3037.67C3037.67 2281.67 3040.31 2264.85 3034.55 2252.08C3029.01 2239.84 3020.36 2234.28 3022.44 2219.45C3015.43 2226.68 3003.99 2234.76 2988.04 2232.61C2986.08 2235.79 2975.41 2252.75 2968.88 2257.44C2961.67 2262.63 2929.51 2260.79 2927.28 2281.67" fill="#233862"/>
<path d="M2690.29 2281.67H2800.67C2800.67 2281.67 2804.8 2264.07 2797.55 2252.08C2791.13 2241.48 2793.59 2235.45 2798.35 2226.68C2793.35 2228.72 2786.88 2230.59 2779.75 2230.19C2774.25 2229.87 2768.44 2227.37 2763.33 2224.41C2758.59 2229.83 2738.24 2252.88 2731.89 2257.44C2724.68 2262.63 2692.51 2260.79 2690.29 2281.67" fill="#233862"/>
<path d="M2536.01 1601.27L2506.19 1613.51C2498.08 1616.81 2493.81 1625.64 2495.89 1633.92L2492.71 1635.23C2480.56 1593.07 2495.37 1550.55 2528.67 1536.91C2533.35 1534.99 2538.16 1533.72 2543.03 1533.11C2558.36 1531.09 2574.33 1535.21 2588.69 1544.17C2602.35 1552.68 2614.52 1565.55 2623.29 1581.69L2618.89 1583.49C2614.57 1576.16 2605.36 1572.85 2597.25 1576.17L2567.4 1588.41C2565.07 1582.72 2559.53 1579.27 2553.72 1579.27C2551.88 1579.27 2549.99 1579.63 2548.19 1580.36L2544.05 1582.05C2536.56 1585.13 2532.95 1593.76 2536.01 1601.27V1601.27ZM2678.03 1653.13L2651.8 1589.15C2648.39 1580.8 2639.23 1576.47 2630.72 1578.8C2622.04 1562.47 2610.07 1549.2 2596.51 1539.88C2582.2 1530.04 2566.16 1524.61 2550.32 1524.68C2541.95 1524.72 2533.61 1526.29 2525.67 1529.56C2488.37 1544.84 2471.65 1591.96 2485.35 1638.24L2483.31 1639.07C2483.31 1639.07 2476.92 1638.63 2466.23 1638.63C2432.45 1638.63 2355.67 1643.12 2301.8 1680.53C2301.8 1680.53 2298.41 1684.13 2298.28 1689.64C2298.21 1691.47 2298.52 1693.51 2299.41 1695.68C2299.41 1695.68 2385.89 1639.68 2465.88 1697.23C2470.79 1700.75 2475.55 1704.01 2480.19 1707.03L2487.36 1724.55C2499.27 1753.57 2532.73 1767.59 2561.77 1755.69L2635.03 1725.67L2650.29 1719.41C2676.15 1708.81 2688.64 1678.99 2678.03 1653.13" fill="#C94C43"/>
<path d="M2480.19 1707.03C2475.55 1704.01 2470.79 1700.75 2465.88 1697.23C2385.89 1639.68 2299.41 1695.68 2299.41 1695.68C2298.52 1693.51 2298.21 1691.47 2298.28 1689.64C2310.39 1681.67 2355.76 1655.15 2411.97 1664.21C2477.84 1674.84 2489.76 1684 2480.19 1707.03Z" fill="#B23B38"/>
<path d="M2650.29 1719.41L2635.03 1725.67C2657.91 1713.17 2629.56 1660.39 2612.99 1625.53C2596.41 1590.69 2571.35 1606.61 2571.35 1606.61C2565.6 1594.93 2553.29 1595.57 2553.29 1595.57C2552.64 1584.32 2544.05 1582.05 2544.05 1582.05L2548.19 1580.36C2549.99 1579.63 2551.88 1579.27 2553.72 1579.27C2559.53 1579.27 2565.07 1582.72 2567.4 1588.41L2597.25 1576.17C2605.36 1572.85 2614.57 1576.16 2618.89 1583.49L2623.29 1581.69C2614.52 1565.55 2602.35 1552.68 2588.69 1544.17C2574.33 1535.21 2558.36 1531.09 2543.03 1533.11C2545.41 1531.17 2548 1528.47 2550.32 1524.68C2566.16 1524.61 2582.2 1530.04 2596.51 1539.88C2610.07 1549.2 2622.04 1562.47 2630.72 1578.8C2639.23 1576.47 2648.39 1580.8 2651.8 1589.15L2678.03 1653.13C2688.64 1678.99 2676.15 1708.81 2650.29 1719.41Z" fill="#B23B38"/>
<path d="M2615.93 1575.35C2626.55 1579.81 2641.48 1595.41 2665.36 1585.96C2682.44 1579.32 2700.52 1574.68 2709.31 1572.52C2712.79 1571.85 2714.79 1571.36 2714.79 1571.36L2705.33 1543.83C2705.33 1543.83 2705 1544 2704.17 1544.16C2698.03 1545.49 2666.85 1552.12 2652.25 1548.8C2635.84 1544.99 2608.31 1564.73 2608.31 1564.73C2608.31 1564.73 2605.32 1571.03 2615.93 1575.35" fill="#FFB27D"/>
<path d="M2316.31 1741.89C2316.31 1731.93 2298.27 1701.19 2298.27 1701.19C2298.27 1701.19 2280.24 1731.93 2280.24 1741.89C2280.24 1751.85 2288.31 1759.93 2298.27 1759.93C2308.23 1759.93 2316.31 1751.85 2316.31 1741.89Z" fill="#AFCDFB"/>
<path d="M2752.84 674.28C2755.44 667.253 2759.39 660.373 2764.84 653.827C2765.99 652.427 2767.43 651 2769 649.573C2775.89 643.52 2785.93 638.04 2793.75 636.373C2853.53 623.72 2893.17 688.147 2856 735.56C2855.37 736.333 2854.76 737.107 2854.11 737.88C2848.07 745.04 2835.55 752.533 2826.41 754.573C2821.63 755.627 2816.96 756.2 2812.47 756.333C2767.51 757.52 2738.08 714.293 2752.84 674.28V674.28ZM2806.07 547.413L2779.59 553.187L2778.96 553.333C2775.75 554.053 2773.59 557.053 2773.93 560.307L2776.32 582.8C2776.36 583.173 2776.37 583.547 2776.35 583.893C2776.16 586.4 2774.55 588.64 2772.13 589.467C2757.96 594.507 2744.97 602.293 2733.87 612.427C2733.4 612.84 2732.89 613.173 2732.36 613.44C2730.33 614.427 2727.87 614.28 2725.93 613.013L2710.28 602.453C2708.2 601.08 2705.53 601.053 2703.45 602.227C2702.84 602.6 2702.23 603.08 2701.72 603.68L2683.89 624.827C2681.69 627.427 2681.85 631.333 2684.29 633.747L2702.07 651.493C2703.81 653.253 2704.39 655.84 2703.55 658.173C2702.37 661.547 2701.33 664.96 2700.47 668.48C2698.83 675.08 2697.83 681.667 2697.4 688.2L2697.39 688.227C2697.21 690.96 2695.41 693.253 2692.81 694.067L2668.44 701.613L2667.23 702C2664.08 702.947 2662.16 706.2 2662.87 709.44L2668.76 736.507C2669.49 739.8 2672.57 742.04 2675.93 741.68L2700.96 739.027C2703.75 738.733 2706.41 740.253 2707.53 742.773C2712.48 753.373 2719 763.187 2726.95 771.8C2728.95 774.013 2729.19 777.28 2727.52 779.76L2715.05 798.347C2713.16 801.187 2713.72 804.92 2716.29 807.08L2737.52 824.987C2740.04 827.107 2743.75 826.933 2746.04 824.627L2766.93 803.76C2768.69 801.987 2771.32 801.387 2773.71 802.173C2776.63 803.16 2779.61 804.027 2782.67 804.787C2788.43 806.213 2794.17 807.173 2799.85 807.693C2802.44 807.893 2804.65 809.64 2805.39 812.133L2814.43 841.427C2815.44 844.653 2818.71 846.547 2821.99 845.84L2849.15 839.947C2852.01 839.307 2854.09 836.773 2854.21 833.893C2854.23 833.6 2854.24 833.28 2854.17 832.96L2851.25 805.187C2850.96 802.6 2852.21 800.107 2854.47 798.84C2854.67 798.733 2854.85 798.613 2855.08 798.533C2855.71 798.267 2856.29 798.013 2856.91 797.667C2864.21 794.32 2871.16 790.16 2877.61 785.32C2879.73 783.667 2882.72 783.613 2884.97 785.16L2904.61 798.32C2907.39 800.187 2911.16 799.64 2913.32 797.067L2917.29 792.373L2931.11 775.933C2933.29 773.373 2933.11 769.56 2930.73 767.16L2913.23 749.667C2911.33 747.813 2910.88 745 2911.97 742.587C2914.85 736.293 2917.21 729.587 2918.95 722.573C2920.23 717.387 2921.13 712.12 2921.67 706.933L2926.77 705.36L2947.75 698.853C2950.35 698.08 2952.12 695.707 2952.21 693.093C2952.25 692.533 2952.19 691.987 2952.05 691.44L2946.19 664.173C2945.47 660.96 2942.43 658.827 2939.17 659.147L2922.07 660.987C2919.19 661.293 2916.37 659.573 2915.37 656.84C2911.2 645.533 2905.28 634.987 2897.87 625.613C2896.09 623.4 2895.96 620.36 2897.55 618.107L2913.29 594.627C2915.04 591.987 2914.56 588.453 2912.13 586.4L2890.64 568.333C2888.09 566.187 2884.36 566.347 2882.07 568.68L2860.33 590.387C2858.48 592.28 2855.67 592.813 2853.23 591.773C2847.99 589.547 2842.49 587.76 2836.76 586.347C2833.68 585.573 2830.6 584.947 2827.52 584.44C2825.11 584.053 2823.12 582.333 2822.37 580L2813.71 551.92C2812.69 548.667 2809.4 546.733 2806.07 547.413" fill="#DFEDFB"/>
<path d="M3104.41 823.333C3109.73 813.08 3117.11 803.28 3126.72 794.307C3128.73 792.373 3131.21 790.467 3133.91 788.587C3145.61 780.613 3162.05 774.16 3174.33 773.107C3268.35 765.187 3316.73 871.48 3250.69 937C3249.59 938.067 3248.49 939.12 3247.35 940.173C3236.73 949.987 3216.11 959.08 3201.73 960.44C3194.19 961.147 3186.93 961.12 3180.03 960.467C3110.92 953.68 3074.12 881.8 3104.41 823.333V823.333ZM3210.25 639.187L3168.6 642.947L3167.61 643.04C3162.53 643.533 3158.65 647.72 3158.56 652.773L3157.91 687.693C3157.91 688.28 3157.84 688.84 3157.75 689.373C3156.97 693.173 3154.07 696.293 3150.21 697.093C3127.55 702.107 3106.15 711.547 3087.2 724.947C3086.4 725.48 3085.56 725.907 3084.69 726.213C3081.4 727.32 3077.64 726.627 3074.92 724.307L3052.96 705.147C3050.05 702.64 3045.97 702.08 3042.57 703.48C3041.55 703.933 3040.51 704.547 3039.61 705.36L3008.25 734.36C3004.39 737.907 3003.88 743.92 3007.16 748.093L3030.97 778.693C3033.32 781.72 3033.71 785.787 3031.97 789.213C3029.53 794.16 3027.29 799.173 3025.28 804.4C3021.51 814.2 3018.71 824.093 3016.8 834.027L3016.79 834.08C3015.99 838.227 3012.8 841.4 3008.64 842.133L2969.87 849.027L2967.92 849.387C2962.93 850.227 2959.36 854.84 2959.83 859.96L2963.65 902.547C2964.16 907.72 2968.44 911.76 2973.65 911.853L3012.52 912.587C3016.84 912.653 3020.63 915.493 3021.87 919.573C3027.4 936.773 3035.52 953.053 3046.04 967.76C3048.67 971.533 3048.43 976.573 3045.39 980.08L3022.72 1006.16C3019.28 1010.15 3019.43 1015.97 3022.95 1019.77L3052.05 1051.28C3055.49 1055 3061.21 1055.44 3065.16 1052.35L3101.16 1024.4C3104.2 1022.01 3108.35 1021.59 3111.84 1023.25C3116.13 1025.33 3120.55 1027.24 3125.08 1028.99C3133.63 1032.27 3142.24 1034.84 3150.85 1036.72C3154.77 1037.55 3157.84 1040.63 3158.48 1044.59L3166.71 1091.2C3167.65 1096.33 3172.28 1099.87 3177.44 1099.41L3220.19 1095.59C3224.71 1095.16 3228.37 1091.68 3229.11 1087.29C3229.17 1086.85 3229.25 1086.35 3229.23 1085.87L3230.07 1042.75C3230.12 1038.73 3232.51 1035.15 3236.21 1033.65C3236.53 1033.51 3236.85 1033.36 3237.2 1033.28C3238.21 1032.99 3239.17 1032.72 3240.17 1032.31C3252 1028.59 3263.44 1023.55 3274.25 1017.36C3277.83 1015.23 3282.41 1015.72 3285.59 1018.53L3313.15 1042.44C3317.03 1045.85 3322.91 1045.73 3326.71 1042.2L3333.69 1035.76L3358.01 1013.24C3361.85 1009.73 3362.31 1003.85 3359.12 999.72L3335.65 969.573C3333.12 966.373 3332.96 961.96 3335.09 958.493C3340.71 949.4 3345.61 939.56 3349.61 929.16C3352.57 921.453 3354.97 913.56 3356.77 905.72L3364.91 904.28L3398.28 898.347C3402.41 897.653 3405.59 894.373 3406.23 890.373C3406.39 889.533 3406.4 888.68 3406.32 887.8L3402.55 844.92C3402.05 839.853 3397.81 836 3392.77 835.867L3366.21 835.4C3361.73 835.32 3357.76 832.147 3356.73 827.773C3352.51 809.653 3345.48 792.36 3335.89 776.587C3333.63 772.84 3334 768.16 3336.85 765.013L3365.49 732.053C3368.67 728.347 3368.61 722.867 3365.28 719.24L3335.81 687.44C3332.33 683.653 3326.57 683.2 3322.61 686.333L3285.16 715.427C3281.96 717.96 3277.56 718.227 3274 716.173C3266.41 711.773 3258.32 707.973 3249.83 704.693C3245.25 702.933 3240.65 701.373 3236.03 700.027C3232.41 698.947 3229.69 695.947 3229 692.227L3221.09 647.547C3220.17 642.36 3215.51 638.773 3210.25 639.187" fill="#CDE3FD"/>
</svg>
