<svg width="4267" height="2667" viewBox="0 0 4267 2667" fill="none" xmlns="http://www.w3.org/2000/svg">
<path d="M568.221 2414.03C568.221 2414.03 124.474 1866.65 341.343 1303.15C482.703 935.827 1012.97 734.56 1312.22 935.827C1439.68 1021.56 1848.59 938.72 2066.93 583.827C2491.2 -105.84 4135.44 298.707 3702.37 1371.87C3504.51 1862.2 4099.41 1902.91 3830.63 2415.11L568.221 2414.03" fill="#EBF3FA"/>
<path d="M1947.84 1441.65L1556.83 1864.28L993.401 1343L993.395 1342.99L755.995 1123.35L1146.99 700.733L1590.27 1110.83L1947.84 1441.65" fill="#CFE7FF"/>
<path d="M1582.03 1725.15L1810.95 1477.71C1826.48 1460.91 1825.47 1434.69 1808.67 1419.16L1170.23 828.48C1153.13 812.653 1126.44 813.693 1110.62 830.787L882.612 1077.24C866.925 1094.2 867.953 1120.67 884.909 1136.35L1523.77 1727.4C1540.48 1742.87 1566.56 1741.85 1582.03 1725.15V1725.15ZM1858.33 1446.55L1554.77 1774.65L834.963 1108.69L1138.52 780.587L1858.33 1446.55" fill="#C0D8FB"/>
<path d="M1264.97 1365.89C1216.22 1320.8 1213.26 1244.71 1258.37 1195.96C1303.47 1147.2 1379.56 1144.24 1428.31 1189.35C1477.07 1234.45 1480.01 1310.55 1434.92 1359.29C1389.81 1408.05 1313.72 1411 1264.97 1365.89" fill="#C0D8FB"/>
<path d="M2101.23 1362.85L1539.63 1489.83L1370.39 741.12V741.107L1299.07 425.654L1860.64 298.707L1993.8 887.72L2101.23 1362.85" fill="#DCEAFF"/>
<path d="M1639.17 1389.4L1967.97 1315.07C1990.29 1310.03 2004.29 1287.84 1999.25 1265.52L1807.47 417.147C1802.33 394.427 1779.75 380.174 1757.03 385.307L1429.55 459.347C1407.01 464.44 1392.88 486.827 1397.97 509.36L1589.88 1358.28C1594.89 1380.48 1616.97 1394.41 1639.17 1389.4V1389.4ZM2024.68 1316.21L1588.69 1414.77L1372.47 458.28L1808.45 359.72L2024.68 1316.21" fill="#C0D8FB"/>
<path d="M1581.25 913.773C1566.61 848.987 1607.25 784.6 1672.04 769.947C1736.83 755.307 1801.21 795.947 1815.85 860.733C1830.51 925.52 1789.85 989.907 1725.08 1004.55C1660.29 1019.2 1595.91 978.547 1581.25 913.773Z" fill="#C0D8FB"/>
<path d="M3219.07 1982.79L2620.23 1772.76L2900.24 974.413L2900.25 974.4L3018.23 638.013L3617.04 848.04L3396.76 1476.13L3219.07 1982.79Z" fill="#DCEAFF"/>
<path d="M2771.97 1737.2L3122.57 1860.17C3146.37 1868.52 3172.43 1856 3180.77 1832.2L3498.07 927.56C3506.56 903.333 3493.81 876.813 3469.59 868.307L3120.39 745.827C3096.36 737.413 3070.05 750.053 3061.63 774.08L2744.13 1679.29C2735.83 1702.97 2748.29 1728.91 2771.97 1737.2ZM3174.87 1894.43L2709.96 1731.36L3067.68 711.44L3532.59 874.493L3174.87 1894.43" fill="#C0D8FB"/>
<path d="M2996.19 1259.05C3020.41 1189.97 3096.05 1153.63 3165.13 1177.85C3234.21 1202.08 3270.57 1277.72 3246.35 1346.8C3222.11 1415.88 3146.47 1452.24 3077.39 1428.01C3008.32 1403.77 2971.96 1328.13 2996.19 1259.05" fill="#C0D8FB"/>
<path d="M1506.83 1520.67V1691.61C1506.83 1724.33 1480.04 1751.11 1447.32 1751.11H1324.83C1292.11 1751.11 1265.33 1724.33 1265.33 1691.61V1520.67C1265.33 1487.95 1292.11 1461.17 1324.83 1461.17H1447.32C1480.04 1461.17 1506.83 1487.95 1506.83 1520.67Z" fill="#ED7D2B"/>
<path d="M1506.83 1520.67V1615.91C1506.83 1648.61 1480.04 1675.4 1447.32 1675.4H1324.83C1292.11 1675.4 1265.33 1648.61 1265.33 1615.91V1520.67C1265.33 1487.95 1292.11 1461.17 1324.83 1461.17H1447.32C1480.04 1461.17 1506.83 1487.95 1506.83 1520.67Z" fill="#F99746"/>
<path d="M2864.01 1606.13C2864.01 1693.61 2846.12 1777.09 2813.81 1853.13C2716.89 2081.25 2490.28 2242.28 2227.88 2242.28H2046.01C1813.84 2242.28 1609.68 2116.21 1498.59 1929.16C1442.28 1834.33 1409.88 1723.84 1409.88 1606.13C1409.88 1518.67 1427.77 1435.19 1460.08 1359.13C1556.99 1131.03 1783.61 970.013 2046.01 970.013H2227.88C2466.49 970.013 2675.53 1103.16 2784.32 1298.84C2835.07 1390.08 2864.01 1494.89 2864.01 1606.13" fill="#ED7D2B"/>
<path d="M2784.32 1298.84C2799.41 1372.21 2787.55 1477.08 2768.24 1532.61C2639.87 1901.84 2338.11 1968.51 2029.65 1996.57C1810.32 2016.53 1498.59 1929.16 1498.59 1929.16C1442.28 1834.33 1409.88 1723.84 1409.88 1606.13C1409.88 1518.67 1427.77 1435.19 1460.08 1359.13C1556.99 1131.03 1783.61 970.013 2046.01 970.013H2227.88C2466.49 970.013 2675.53 1103.16 2784.32 1298.84" fill="#F99746"/>
<path d="M1971.01 1129.37H1720.81C1695.57 1129.37 1675.13 1114.05 1675.13 1095.16V753.533C1675.13 747.707 1676.96 742.4 1680.12 737.8C1692.36 720.04 1724.52 712.72 1748.45 726.28C1843.45 780.12 1999.08 897.16 2016.59 1092.83C2018.37 1112.6 1997.45 1129.37 1971.01 1129.37" fill="#F99746"/>
<path d="M1730.99 1129.37H1720.81C1695.57 1129.37 1675.13 1114.05 1675.13 1095.16V753.533C1675.13 747.707 1676.96 742.4 1680.12 737.8C1681.2 738.72 1682.24 739.733 1683.21 740.813C1737.56 801.32 1815.89 920.187 1793.83 1086.71C1790.63 1110.91 1763.47 1129.37 1730.99 1129.37" fill="#ED7D2B"/>
<path d="M1599.11 1357.75C1599.11 1337.16 1615.8 1320.47 1636.39 1320.47C1656.97 1320.47 1673.67 1337.16 1673.67 1357.75C1673.67 1378.33 1656.97 1395.03 1636.39 1395.03C1615.8 1395.03 1599.11 1378.33 1599.11 1357.75Z" fill="#2B478B"/>
<path d="M2335.52 1972.2L2276.19 2357.49C2268.31 2387.35 2290.81 2416.56 2321.68 2416.56H2477.61C2511.04 2416.56 2541.67 2397.89 2556.99 2368.17L2799.33 1884.76L2335.52 1972.2Z" fill="#ED7D2B"/>
<path d="M1980.47 1978.83L2028.07 2357.49C2035.95 2387.35 2013.44 2416.56 1982.56 2416.56H1826.63C1793.2 2416.56 1762.57 2397.89 1747.27 2368.17L1498.59 1929.16L1980.47 1978.83Z" fill="#ED7D2B"/>
<path d="M2799.41 1605.91L2799.33 1606.13L2799.41 1605.91ZM3073.47 1541.32C3059.29 1551.79 3046.53 1563.95 3035.4 1577.67C3008.15 1611.27 2991.44 1653.2 2989.56 1692.72C2988.08 1724.09 2997.07 1748.65 3011.45 1752.44C3025.97 1756.25 3046.87 1736.73 3062.24 1704.93C3079.08 1670.12 3087.13 1626.33 3083.79 1587.79C3082.59 1573.95 3079.68 1557.75 3073.47 1541.32V1541.32ZM3015.55 1779.04C3011.95 1779.04 3008.37 1778.59 3004.81 1777.65C2977.16 1770.37 2961.35 1737.36 2963.52 1691.49C2965.65 1646.53 2984.47 1599.05 3015.16 1561.24C3028.73 1544.51 3044.41 1529.87 3061.91 1517.48C3053.65 1503.87 3042.51 1490.81 3027.52 1479.56C3002.04 1460.45 2975.71 1454.95 2947.03 1462.72C2869.93 1483.65 2804.6 1593.84 2799.31 1606.23C2796.91 1612.85 2789.65 1616.39 2782.93 1614.15C2776.09 1611.88 2772.4 1604.49 2774.68 1597.67C2776.97 1590.79 2796.07 1557.89 2822.71 1525.32C2869.12 1468.55 2909.56 1447.03 2935.32 1438.99C2973.52 1427.05 3009.81 1433.69 3043.16 1458.71C3059.72 1471.12 3073.4 1486.2 3084.01 1503.56C3110.47 1488.83 3140.27 1478.59 3172.68 1473.28C3179.8 1472.11 3186.49 1476.93 3187.65 1484.03C3188.83 1491.13 3184 1497.84 3176.91 1499C3147.16 1503.88 3119.91 1513.29 3095.84 1526.84C3103.23 1544.67 3107.92 1564.33 3109.76 1585.53C3113.55 1629.2 3104.79 1676.85 3085.72 1716.29C3066.29 1756.45 3040.71 1779.04 3015.55 1779.04" fill="#ED7D2B"/>
<path d="M1960.41 2369.83V2394.65C1960.41 2396.61 1959.69 2398.45 1958.45 2399.99C1957.16 2401.59 1955.29 2402.85 1953.12 2403.56C1952.44 2403.8 1951.75 2403.96 1951.03 2404.05C1950.37 2404.16 1949.71 2404.21 1949.01 2404.21H1478.36C1472.67 2404.21 1467.92 2400.67 1467.08 2396.08C1467.04 2395.77 1466.99 2395.45 1466.97 2395.13C1466.97 2394.97 1466.96 2394.81 1466.96 2394.65V2369.83C1466.96 2369.67 1466.97 2369.51 1466.97 2369.35C1466.99 2369.03 1467.04 2368.72 1467.08 2368.4C1467.92 2363.81 1472.67 2360.28 1478.36 2360.28H1949.01C1949.71 2360.28 1950.37 2360.32 1951.03 2360.43C1951.75 2360.52 1952.44 2360.71 1953.12 2360.92C1955.29 2361.63 1957.16 2362.89 1958.45 2364.49C1959.69 2366.03 1960.41 2367.87 1960.41 2369.83" fill="#FFB93E"/>
<path d="M1729.29 2404.21H1477.13C1472.47 2404.21 1468.53 2401.19 1467.36 2397.13C1467.24 2396.79 1467.15 2396.44 1467.08 2396.08C1467.04 2395.77 1466.99 2395.45 1466.97 2395.13C1466.97 2394.97 1466.96 2394.81 1466.96 2394.65V2369.83C1466.96 2369.67 1466.97 2369.51 1466.97 2369.35C1466.99 2369.03 1467.04 2368.72 1467.08 2368.4C1467.15 2368.04 1467.24 2367.69 1467.36 2367.35C1468.53 2363.29 1472.47 2360.28 1477.13 2360.28H1698.33C1701.85 2373.21 1710.09 2391.09 1729.29 2404.21" fill="#FFA412"/>
<path d="M1903.13 2404.21H1897.79V2360.27H1903.13V2404.21Z" fill="#FFA412"/>
<path d="M1885.03 2404.21H1879.68V2360.27H1885.03V2404.21Z" fill="#FFA412"/>
<path d="M1863.32 2404.21H1857.97V2360.27H1863.32V2404.21Z" fill="#FFA412"/>
<path d="M1830.03 2404.21H1824.68V2360.27H1830.03V2404.21Z" fill="#FFA412"/>
<path d="M1794.84 2404.21H1789.49V2360.27H1794.84V2404.21Z" fill="#FFA412"/>
<path d="M1740.88 2404.21H1735.53V2360.27H1740.88V2404.21Z" fill="#FFA412"/>
<path d="M1690.36 2404.21H1685.01V2360.27H1690.36V2404.21Z" fill="#FFA412"/>
<path d="M1645.25 2404.21H1639.89V2360.27H1645.25V2404.21Z" fill="#FFA412"/>
<path d="M1920.37 2404.21H1915.03V2360.27H1920.37V2404.21Z" fill="#FFA412"/>
<path d="M1931.76 2404.21H1926.41V2360.27H1931.76V2404.21Z" fill="#FFA412"/>
<path d="M1942.76 2404.21H1937.41V2360.27H1942.76V2404.21Z" fill="#FFA412"/>
<path d="M1951.03 2360.43V2404.05C1950.37 2404.16 1949.71 2404.21 1949.03 2404.21H1945.68V2360.27H1949.03C1949.71 2360.27 1950.37 2360.32 1951.03 2360.43Z" fill="#FFA412"/>
<path d="M1958.45 2364.49V2399.99C1957.16 2401.6 1955.29 2402.85 1953.11 2403.56V2360.92C1955.29 2361.63 1957.16 2362.89 1958.45 2364.49Z" fill="#FFA412"/>
<path d="M1910.08 2325.89V2350.71C1910.08 2352.69 1909.36 2354.52 1908.15 2356.05C1907.81 2356.45 1907.45 2356.83 1907.07 2357.19C1905.89 2358.24 1904.44 2359.09 1902.79 2359.63C1902.13 2359.85 1901.43 2360.01 1900.71 2360.11C1900.05 2360.21 1899.39 2360.28 1898.71 2360.28H1428.03C1422.36 2360.28 1417.6 2356.72 1416.76 2352.13C1416.72 2351.83 1416.68 2351.51 1416.67 2351.2C1416.65 2351.04 1416.65 2350.88 1416.65 2350.71V2325.89C1416.65 2325.73 1416.65 2325.56 1416.67 2325.4C1416.68 2325.09 1416.72 2324.79 1416.76 2324.47C1417.6 2319.88 1422.36 2316.33 1428.03 2316.33H1898.71C1899 2316.33 1899.31 2316.35 1899.6 2316.37L1899.92 2316.4H1899.99C1900.12 2316.4 1900.27 2316.41 1900.41 2316.44L1900.71 2316.49C1901.43 2316.59 1902.13 2316.75 1902.79 2316.97C1903.19 2317.11 1903.57 2317.25 1903.93 2317.41H1903.95C1904.2 2317.53 1904.45 2317.65 1904.69 2317.77C1904.83 2317.84 1904.97 2317.93 1905.09 2318C1905.23 2318.08 1905.36 2318.15 1905.48 2318.24C1905.99 2318.53 1906.44 2318.87 1906.87 2319.25C1907.01 2319.37 1907.13 2319.51 1907.27 2319.61L1907.49 2319.84L1907.61 2319.97L1907.72 2320.08C1907.87 2320.23 1908.01 2320.39 1908.15 2320.56C1909.36 2322.09 1910.08 2323.92 1910.08 2325.89" fill="#FFB93E"/>
<path d="M1678.96 2360.28H1426.81C1422.13 2360.28 1418.21 2357.24 1417.04 2353.17C1416.93 2352.83 1416.83 2352.48 1416.76 2352.13C1416.72 2351.83 1416.68 2351.51 1416.67 2351.2C1416.65 2351.04 1416.65 2350.88 1416.65 2350.71V2325.89C1416.65 2325.73 1416.65 2325.56 1416.67 2325.4C1416.68 2325.09 1416.72 2324.79 1416.76 2324.47C1416.83 2324.12 1416.93 2323.76 1417.04 2323.43C1418.21 2319.36 1422.13 2316.33 1426.81 2316.33H1648C1648.09 2316.69 1648.19 2317.05 1648.31 2317.41C1652 2330.25 1660.29 2347.52 1678.96 2360.28" fill="#FFA412"/>
<path d="M1852.81 2360.27H1847.47V2316.33H1852.81V2360.27Z" fill="#FFA412"/>
<path d="M1834.71 2360.27H1829.36V2316.33H1834.71V2360.27Z" fill="#FFA412"/>
<path d="M1813 2360.27H1807.64V2316.33H1813V2360.27Z" fill="#FFA412"/>
<path d="M1779.71 2360.27H1774.36V2316.33H1779.71V2360.27Z" fill="#FFA412"/>
<path d="M1744.52 2360.27H1739.16V2316.33H1744.52V2360.27Z" fill="#FFA412"/>
<path d="M1690.56 2360.27H1685.21V2316.33H1690.56V2360.27Z" fill="#FFA412"/>
<path d="M1640.04 2360.27H1634.69V2316.33H1640.04V2360.27Z" fill="#FFA412"/>
<path d="M1594.92 2360.27H1589.57V2316.33H1594.92V2360.27Z" fill="#FFA412"/>
<path d="M1870.05 2360.27H1864.71V2316.33H1870.05V2360.27Z" fill="#FFA412"/>
<path d="M1881.44 2360.27H1876.09V2316.33H1881.44V2360.27Z" fill="#FFA412"/>
<path d="M1892.44 2360.27H1887.08V2316.33H1892.44V2360.27Z" fill="#FFA412"/>
<path d="M1900.71 2316.48V2360.12C1900.05 2360.21 1899.39 2360.27 1898.69 2360.27H1895.36V2316.33H1898.69C1899.39 2316.33 1900.05 2316.39 1900.71 2316.48Z" fill="#FFA412"/>
<path d="M1908.13 2320.56V2356.05C1906.84 2357.65 1904.97 2358.92 1902.79 2359.63V2316.97C1904.97 2317.68 1906.84 2318.95 1908.13 2320.56Z" fill="#FFA412"/>
<path d="M1934.4 2283.04V2307.85C1934.4 2309.83 1933.68 2311.67 1932.44 2313.2C1931.16 2314.8 1929.31 2316.07 1927.11 2316.77C1926.45 2316.99 1925.75 2317.15 1925.03 2317.27C1924.37 2317.36 1923.69 2317.41 1923.03 2317.41H1452.35C1450.47 2317.41 1448.67 2317.01 1447.09 2316.33C1443.99 2314.96 1441.69 2312.4 1441.11 2309.39C1441.05 2309.19 1441.04 2308.97 1441.01 2308.77C1441 2308.64 1440.99 2308.49 1440.99 2308.35C1440.97 2308.19 1440.97 2308.01 1440.97 2307.85V2283.04C1440.97 2282.88 1440.97 2282.72 1440.99 2282.55C1441 2282.24 1441.03 2281.92 1441.08 2281.63C1441.92 2277.03 1446.67 2273.48 1452.35 2273.48H1923.03C1923.69 2273.48 1924.37 2273.52 1925.03 2273.63C1925.75 2273.73 1926.45 2273.89 1927.11 2274.12C1929.31 2274.84 1931.16 2276.09 1932.44 2277.71C1933.68 2279.23 1934.4 2281.07 1934.4 2283.04" fill="#FFB93E"/>
<path d="M1703.28 2317.41H1451.13C1449.44 2317.41 1447.85 2317.01 1446.45 2316.33C1443.65 2314.96 1441.61 2312.4 1441.11 2309.39C1441.05 2309.19 1441.04 2308.97 1441.01 2308.77C1441 2308.64 1440.99 2308.49 1440.99 2308.35C1440.97 2308.19 1440.97 2308.01 1440.97 2307.85V2283.04C1440.97 2282.88 1440.97 2282.72 1440.99 2282.55C1441 2282.24 1441.03 2281.92 1441.08 2281.63C1441.15 2281.28 1441.24 2280.93 1441.35 2280.6C1442.49 2276.52 1446.44 2273.48 1451.13 2273.48H1672.32C1675.76 2286.05 1683.64 2303.33 1701.75 2316.33C1702.24 2316.69 1702.76 2317.07 1703.28 2317.41" fill="#FFA412"/>
<path d="M1877.13 2317.41H1871.79V2273.48H1877.13V2317.41Z" fill="#FFA412"/>
<path d="M1859.03 2317.41H1853.68V2273.48H1859.03V2317.41Z" fill="#FFA412"/>
<path d="M1837.31 2317.41H1831.96V2273.48H1837.31V2317.41Z" fill="#FFA412"/>
<path d="M1804.03 2317.41H1798.68V2273.48H1804.03V2317.41Z" fill="#FFA412"/>
<path d="M1768.83 2317.41H1763.48V2273.48H1768.83V2317.41Z" fill="#FFA412"/>
<path d="M1714.88 2317.41H1709.53V2273.48H1714.88V2317.41Z" fill="#FFA412"/>
<path d="M1664.36 2317.41H1659V2273.48H1664.36V2317.41Z" fill="#FFA412"/>
<path d="M1619.24 2317.41H1613.89V2273.48H1619.24V2317.41Z" fill="#FFA412"/>
<path d="M1894.37 2317.41H1889.03V2273.48H1894.37V2317.41Z" fill="#FFA412"/>
<path d="M1905.76 2317.41H1900.41V2273.48H1905.76V2317.41Z" fill="#FFA412"/>
<path d="M1916.75 2317.41H1911.4V2273.48H1916.75V2317.41Z" fill="#FFA412"/>
<path d="M1925.03 2273.63V2317.27C1924.37 2317.36 1923.71 2317.41 1923.01 2317.41H1919.68V2273.48H1923.01C1923.71 2273.48 1924.37 2273.53 1925.03 2273.63Z" fill="#FFA412"/>
<path d="M1932.45 2277.69V2313.19C1931.16 2314.8 1929.29 2316.07 1927.11 2316.77V2274.12C1929.29 2274.83 1931.16 2276.09 1932.45 2277.69Z" fill="#FFA412"/>
<path d="M1945.68 2239.11V2263.91C1945.68 2265.89 1944.96 2267.72 1943.72 2269.25C1943.56 2269.45 1943.39 2269.64 1943.21 2269.84C1942.31 2270.79 1941.21 2271.6 1939.96 2272.2C1939.47 2272.44 1938.93 2272.65 1938.39 2272.84C1937.71 2273.05 1937.01 2273.21 1936.29 2273.32C1935.97 2273.36 1935.65 2273.41 1935.32 2273.44C1934.97 2273.47 1934.63 2273.48 1934.28 2273.48H1463.63C1457.93 2273.48 1453.19 2269.92 1452.35 2265.33C1452.31 2265.03 1452.25 2264.72 1452.24 2264.41V2238.6C1452.53 2233.95 1456.83 2230.15 1462.27 2229.61C1462.72 2229.56 1463.17 2229.53 1463.63 2229.53H1934.28C1934.63 2229.53 1934.97 2229.55 1935.32 2229.57C1935.65 2229.61 1935.97 2229.64 1936.29 2229.69C1937.01 2229.8 1937.71 2229.96 1938.39 2230.19C1940.56 2230.88 1942.43 2232.15 1943.72 2233.76C1944.96 2235.28 1945.68 2237.12 1945.68 2239.11" fill="#FFB93E"/>
<path d="M1714.56 2273.48H1462.4C1457.73 2273.48 1453.8 2270.45 1452.63 2266.39C1452.51 2266.04 1452.41 2265.69 1452.35 2265.33C1452.31 2265.03 1452.25 2264.72 1452.24 2264.41V2238.6C1452.51 2233.96 1456.35 2230.15 1461.2 2229.61C1461.6 2229.56 1462 2229.53 1462.4 2229.53H1683.6L1683.61 2229.61C1687.16 2242.53 1695.39 2260.39 1714.56 2273.48" fill="#FFA412"/>
<path d="M1888.41 2273.48H1883.05V2229.53H1888.41V2273.48Z" fill="#FFA412"/>
<path d="M1870.31 2273.48H1864.95V2229.53H1870.31V2273.48Z" fill="#FFA412"/>
<path d="M1848.59 2273.48H1843.24V2229.53H1848.59V2273.48Z" fill="#FFA412"/>
<path d="M1815.31 2273.48H1809.95V2229.53H1815.31V2273.48Z" fill="#FFA412"/>
<path d="M1780.11 2273.48H1774.76V2229.53H1780.11V2273.48Z" fill="#FFA412"/>
<path d="M1726.15 2273.48H1720.8V2229.53H1726.15V2273.48Z" fill="#FFA412"/>
<path d="M1675.63 2273.48H1670.28V2229.53H1675.63V2273.48Z" fill="#FFA412"/>
<path d="M1625.17 2273.48H1630.52V2229.53H1625.17V2273.48Z" fill="#FFA412"/>
<path d="M1905.64 2273.48H1900.29V2229.53H1905.64V2273.48Z" fill="#FFA412"/>
<path d="M1917.03 2273.48H1911.68V2229.53H1917.03V2273.48Z" fill="#FFA412"/>
<path d="M1928.03 2273.48H1922.68V2229.53H1928.03V2273.48Z" fill="#FFA412"/>
<path d="M1936.29 2229.69V2273.32C1935.64 2273.43 1934.97 2273.48 1934.29 2273.48H1930.95V2229.53H1934.29C1934.97 2229.53 1935.64 2229.59 1936.29 2229.69" fill="#FFA412"/>
<path d="M1943.73 2233.76V2269.25C1942.43 2270.85 1940.57 2272.12 1938.39 2272.83V2230.17C1940.57 2230.89 1942.43 2232.15 1943.73 2233.76Z" fill="#FFA412"/>
<path d="M1911.07 2195.23V2220.04C1911.07 2222.03 1910.36 2223.84 1909.13 2225.37C1907.84 2226.99 1905.96 2228.25 1903.77 2228.96C1903.12 2229.19 1902.41 2229.35 1901.71 2229.44C1901.48 2229.49 1901.27 2229.52 1901.04 2229.53H1900.95L1900.6 2229.56L1900.29 2229.6C1900.08 2229.6 1899.89 2229.61 1899.69 2229.61H1429.03C1422.96 2229.61 1417.96 2225.56 1417.65 2220.53C1417.64 2220.37 1417.64 2220.21 1417.64 2220.04V2195.23C1417.64 2195.07 1417.64 2194.89 1417.65 2194.73C1417.65 2194.6 1417.67 2194.47 1417.68 2194.33C1418.13 2190.29 1421.64 2186.93 1426.23 2185.97L1426.56 2185.89C1427.35 2185.75 1428.17 2185.67 1429.03 2185.67H1899.69C1900.04 2185.67 1900.36 2185.68 1900.71 2185.71C1900.85 2185.72 1901 2185.73 1901.13 2185.75H1901.16H1901.17C1901.35 2185.76 1901.52 2185.79 1901.71 2185.83C1902.41 2185.92 1903.12 2186.09 1903.77 2186.31C1905.96 2187.01 1907.84 2188.28 1909.13 2189.89C1910.36 2191.43 1911.07 2193.25 1911.07 2195.23" fill="#FFB93E"/>
<path d="M1679.95 2229.61H1427.81C1422.39 2229.61 1417.93 2225.56 1417.65 2220.53C1417.64 2220.37 1417.64 2220.21 1417.64 2220.04V2195.23C1417.64 2195.07 1417.64 2194.89 1417.65 2194.73C1417.65 2194.6 1417.67 2194.47 1417.68 2194.33C1418.09 2190.19 1421.35 2186.81 1425.57 2185.91C1425.71 2185.87 1425.85 2185.84 1426 2185.83C1426.59 2185.72 1427.19 2185.67 1427.81 2185.67H1648.99L1649.08 2185.99C1652.65 2198.87 1660.88 2216.53 1679.85 2229.53L1679.95 2229.61" fill="#FFA412"/>
<path d="M1853.8 2229.6H1848.45V2185.67H1853.8V2229.6Z" fill="#FFA412"/>
<path d="M1835.69 2229.6H1830.35V2185.67H1835.69V2229.6Z" fill="#FFA412"/>
<path d="M1813.99 2229.6H1808.64V2185.67H1813.99V2229.6Z" fill="#FFA412"/>
<path d="M1780.69 2229.6H1775.35V2185.67H1780.69V2229.6Z" fill="#FFA412"/>
<path d="M1745.51 2229.6H1740.16V2185.67H1745.51V2229.6Z" fill="#FFA412"/>
<path d="M1691.55 2229.6H1686.2V2185.67H1691.55V2229.6Z" fill="#FFA412"/>
<path d="M1641.03 2229.6H1635.68V2185.67H1641.03V2229.6Z" fill="#FFA412"/>
<path d="M1590.56 2229.6H1595.92V2185.67H1590.56V2229.6Z" fill="#FFA412"/>
<path d="M1871.04 2229.6H1865.69V2185.67H1871.04V2229.6Z" fill="#FFA412"/>
<path d="M1882.43 2229.6H1877.08V2185.67H1882.43V2229.6Z" fill="#FFA412"/>
<path d="M1893.43 2229.6H1888.08V2185.67H1893.43V2229.6Z" fill="#FFA412"/>
<path d="M1901.69 2185.81V2229.45C1901.04 2229.55 1900.37 2229.6 1899.69 2229.6H1896.35V2185.67H1899.69C1900.37 2185.67 1901.04 2185.72 1901.69 2185.81Z" fill="#FFA412"/>
<path d="M1909.12 2189.89V2225.39C1907.83 2226.99 1905.96 2228.25 1903.77 2228.96V2186.31C1905.96 2187.01 1907.83 2188.28 1909.12 2189.89Z" fill="#FFA412"/>
<path d="M1910.08 2151.61V2176.41C1910.08 2178.4 1909.36 2180.23 1908.15 2181.75C1907.81 2182.15 1907.45 2182.53 1907.07 2182.89C1905.89 2183.96 1904.44 2184.8 1902.79 2185.33C1902.27 2185.51 1901.72 2185.64 1901.17 2185.75H1901.16H1901.13C1900.99 2185.77 1900.85 2185.81 1900.71 2185.83C1900.05 2185.92 1899.39 2185.99 1898.71 2185.99H1428.03C1427.55 2185.99 1427.04 2185.96 1426.56 2185.89C1426.37 2185.88 1426.17 2185.85 1426 2185.83C1421.21 2185.09 1417.43 2181.81 1416.75 2177.73C1416.71 2177.45 1416.68 2177.19 1416.67 2176.91C1416.65 2176.73 1416.65 2176.57 1416.65 2176.41V2151.61C1416.65 2151.43 1416.65 2151.27 1416.67 2151.11C1416.68 2150.8 1416.72 2150.49 1416.76 2150.19C1417.6 2145.6 1422.36 2142.04 1428.03 2142.04H1898.71C1899 2142.04 1899.31 2142.05 1899.6 2142.07L1899.72 2142.08L1899.99 2142.09C1900.12 2142.11 1900.27 2142.12 1900.41 2142.16L1900.71 2142.2C1901.43 2142.31 1902.13 2142.47 1902.79 2142.68C1903.19 2142.81 1903.57 2142.96 1903.93 2143.12H1903.95C1905.43 2143.77 1906.71 2144.68 1907.72 2145.77C1907.87 2145.93 1908.01 2146.09 1908.15 2146.25C1909.36 2147.79 1910.08 2149.63 1910.08 2151.61Z" fill="#FFB93E"/>
<path d="M1678.96 2185.99H1426.81C1426.61 2185.99 1426.41 2185.97 1426.23 2185.97C1426 2185.96 1425.79 2185.92 1425.57 2185.91C1421.01 2185.36 1417.37 2181.99 1416.75 2177.73C1416.71 2177.45 1416.68 2177.19 1416.67 2176.91C1416.65 2176.73 1416.65 2176.57 1416.65 2176.41V2151.61C1416.65 2151.43 1416.65 2151.27 1416.67 2151.11C1416.68 2150.8 1416.72 2150.49 1416.76 2150.19C1416.83 2149.83 1416.93 2149.48 1417.04 2149.13C1418.21 2145.07 1422.13 2142.04 1426.81 2142.04H1648C1648.09 2142.4 1648.19 2142.76 1648.31 2143.12C1651.97 2155.85 1660.16 2172.95 1678.51 2185.67C1678.65 2185.77 1678.81 2185.87 1678.96 2185.99" fill="#FFA412"/>
<path d="M1852.81 2185.97H1847.47V2142.04H1852.81V2185.97Z" fill="#FFA412"/>
<path d="M1834.71 2185.97H1829.36V2142.04H1834.71V2185.97Z" fill="#FFA412"/>
<path d="M1813 2185.97H1807.64V2142.04H1813V2185.97Z" fill="#FFA412"/>
<path d="M1779.71 2185.97H1774.36V2142.04H1779.71V2185.97Z" fill="#FFA412"/>
<path d="M1744.52 2185.97H1739.16V2142.04H1744.52V2185.97Z" fill="#FFA412"/>
<path d="M1690.56 2185.97H1685.21V2142.04H1690.56V2185.97Z" fill="#FFA412"/>
<path d="M1634.69 2185.97H1640.04V2142.04H1634.69V2185.97Z" fill="#FFA412"/>
<path d="M1589.57 2185.97H1594.92V2142.04H1589.57V2185.97Z" fill="#FFA412"/>
<path d="M1870.05 2185.97H1864.71V2142.04H1870.05V2185.97Z" fill="#FFA412"/>
<path d="M1881.44 2185.97H1876.09V2142.04H1881.44V2185.97Z" fill="#FFA412"/>
<path d="M1892.44 2185.97H1887.08V2142.04H1892.44V2185.97Z" fill="#FFA412"/>
<path d="M1900.71 2142.19V2185.83C1900.05 2185.92 1899.39 2185.97 1898.69 2185.97H1895.36V2142.04H1898.69C1899.39 2142.04 1900.05 2142.09 1900.71 2142.19Z" fill="#FFA412"/>
<path d="M1908.13 2146.27V2181.76C1906.84 2183.36 1904.97 2184.63 1902.79 2185.33V2142.68C1904.97 2143.39 1906.84 2144.65 1908.13 2146.27Z" fill="#FFA412"/>
<path d="M1934.4 2108.75V2133.55C1934.4 2135.53 1933.68 2137.37 1932.44 2138.91C1931.16 2140.51 1929.31 2141.77 1927.11 2142.48C1926.45 2142.69 1925.75 2142.85 1925.03 2142.96C1924.37 2143.07 1923.69 2143.12 1923.03 2143.12H1452.35C1450.47 2143.12 1448.67 2142.73 1447.09 2142.04C1443.99 2140.67 1441.69 2138.11 1441.11 2135.09C1441.05 2134.89 1441.04 2134.68 1441.01 2134.48C1441 2134.33 1440.99 2134.2 1440.99 2134.05C1440.97 2133.89 1440.97 2133.73 1440.97 2133.55V2108.75C1440.97 2108.59 1440.97 2108.41 1440.99 2108.25C1441 2107.93 1441.03 2107.63 1441.08 2107.32C1441.92 2102.73 1446.67 2099.17 1452.35 2099.17H1923.03C1923.69 2099.17 1924.37 2099.24 1925.03 2099.33C1925.75 2099.44 1926.45 2099.6 1927.11 2099.83C1929.31 2100.53 1931.16 2101.8 1932.44 2103.41C1933.68 2104.95 1934.4 2106.76 1934.4 2108.75" fill="#FFB93E"/>
<path d="M1703.28 2143.12H1451.13C1449.44 2143.12 1447.85 2142.73 1446.45 2142.04C1443.65 2140.67 1441.61 2138.11 1441.11 2135.09C1441.05 2134.89 1441.04 2134.68 1441.01 2134.48C1441 2134.33 1440.99 2134.2 1440.99 2134.05C1440.97 2133.89 1440.97 2133.73 1440.97 2133.55V2108.75C1440.97 2108.59 1440.97 2108.41 1440.99 2108.25C1441 2107.93 1441.03 2107.63 1441.08 2107.32C1441.15 2106.97 1441.24 2106.64 1441.35 2106.31C1442.49 2102.23 1446.44 2099.17 1451.13 2099.17H1672.32C1675.76 2111.76 1683.64 2129.04 1701.75 2142.04C1702.24 2142.4 1702.76 2142.76 1703.28 2143.12" fill="#FFA412"/>
<path d="M1877.13 2143.12H1871.79V2099.19H1877.13V2143.12" fill="#FFA412"/>
<path d="M1859.03 2143.12H1853.68V2099.19H1859.03V2143.12" fill="#FFA412"/>
<path d="M1837.31 2143.12H1831.96V2099.19H1837.31V2143.12" fill="#FFA412"/>
<path d="M1804.03 2143.12H1798.68V2099.19H1804.03V2143.12" fill="#FFA412"/>
<path d="M1768.83 2143.12H1763.48V2099.19H1768.83V2143.12" fill="#FFA412"/>
<path d="M1714.88 2143.12H1709.53V2099.19H1714.88V2143.12" fill="#FFA412"/>
<path d="M1664.36 2143.12H1659V2099.19H1664.36V2143.12" fill="#FFA412"/>
<path d="M1613.89 2143.12H1619.24V2099.19H1613.89V2143.12Z" fill="#FFA412"/>
<path d="M1894.37 2143.12H1889.03V2099.19H1894.37V2143.12" fill="#FFA412"/>
<path d="M1905.76 2143.12H1900.41V2099.19H1905.76V2143.12" fill="#FFA412"/>
<path d="M1916.75 2143.12H1911.4V2099.19H1916.75V2143.12" fill="#FFA412"/>
<path d="M1925.03 2099.33V2142.97C1924.37 2143.07 1923.71 2143.12 1923.01 2143.12H1919.68V2099.19H1923.01C1923.71 2099.19 1924.37 2099.24 1925.03 2099.33Z" fill="#FFA412"/>
<path d="M1932.45 2103.41V2138.89C1931.16 2140.51 1929.29 2141.77 1927.11 2142.48V2099.83C1929.29 2100.53 1931.16 2101.8 1932.45 2103.41Z" fill="#FFA412"/>
<path d="M1972.87 2064.8V2089.61C1972.87 2091.59 1972.15 2093.41 1970.92 2094.95L1970.91 2094.96C1970.75 2095.16 1970.57 2095.36 1970.4 2095.55C1969.68 2096.31 1968.84 2096.97 1967.88 2097.52C1967.41 2097.77 1966.91 2098.03 1966.39 2098.24L1966.37 2098.25C1966.12 2098.36 1965.85 2098.45 1965.57 2098.55C1964.91 2098.76 1964.2 2098.93 1963.48 2099.03C1962.84 2099.13 1962.16 2099.17 1961.48 2099.17H1490.81C1485.13 2099.17 1480.39 2095.64 1479.55 2091.04C1479.49 2090.73 1479.47 2090.43 1479.44 2090.11C1479.43 2089.95 1479.43 2089.79 1479.43 2089.61V2064.8C1479.43 2064.64 1479.43 2064.48 1479.44 2064.32C1479.72 2059.67 1484.01 2055.87 1489.47 2055.32C1489.92 2055.25 1490.36 2055.24 1490.81 2055.24H1961.48C1962.16 2055.24 1962.84 2055.31 1963.48 2055.39C1964.2 2055.51 1964.91 2055.67 1965.57 2055.89C1967.48 2056.51 1969.13 2057.55 1970.4 2058.88C1970.57 2059.07 1970.75 2059.25 1970.91 2059.47L1970.92 2059.48C1972.15 2061.01 1972.87 2062.83 1972.87 2064.8" fill="#FFB93E"/>
<path d="M1741.75 2099.17H1489.59C1484.91 2099.17 1480.96 2096.15 1479.81 2092.07C1479.71 2091.73 1479.61 2091.4 1479.55 2091.04C1479.49 2090.73 1479.47 2090.43 1479.44 2090.11C1479.43 2089.95 1479.43 2089.79 1479.43 2089.61V2064.8C1479.43 2064.64 1479.43 2064.48 1479.44 2064.32C1479.69 2059.67 1483.53 2055.87 1488.39 2055.32C1488.79 2055.25 1489.17 2055.24 1489.59 2055.24H1710.79L1710.8 2055.32C1714.35 2068.24 1722.57 2086.09 1741.75 2099.17" fill="#FFA412"/>
<path d="M1915.6 2099.19H1910.25V2055.24H1915.6V2099.19Z" fill="#FFA412"/>
<path d="M1897.49 2099.19H1892.15V2055.24H1897.49V2099.19Z" fill="#FFA412"/>
<path d="M1875.77 2099.19H1870.43V2055.24H1875.77V2099.19Z" fill="#FFA412"/>
<path d="M1842.49 2099.19H1837.15V2055.24H1842.49V2099.19Z" fill="#FFA412"/>
<path d="M1807.29 2099.19H1801.95V2055.24H1807.29V2099.19Z" fill="#FFA412"/>
<path d="M1753.33 2099.19H1747.99V2055.24H1753.33V2099.19Z" fill="#FFA412"/>
<path d="M1702.83 2099.19H1697.47V2055.24H1702.83V2099.19Z" fill="#FFA412"/>
<path d="M1657.71 2099.19H1652.36V2055.24H1657.71V2099.19Z" fill="#FFA412"/>
<path d="M1932.84 2099.19H1927.48V2055.24H1932.84V2099.19Z" fill="#FFA412"/>
<path d="M1944.23 2099.19H1938.87V2055.24H1944.23V2099.19Z" fill="#FFA412"/>
<path d="M1955.21 2099.19H1949.87V2055.24H1955.21V2099.19Z" fill="#FFA412"/>
<path d="M1963.49 2055.4V2099.03C1962.84 2099.13 1962.17 2099.19 1961.48 2099.19H1958.13V2055.24H1961.48C1962.17 2055.24 1962.84 2055.29 1963.49 2055.4" fill="#FFA412"/>
<path d="M1970.92 2059.47V2094.96C1969.63 2096.56 1967.76 2097.83 1965.57 2098.53V2055.89C1967.76 2056.6 1969.63 2057.85 1970.92 2059.47Z" fill="#FFA412"/>
<path d="M1911.07 2020.95V2045.75C1911.07 2047.73 1910.36 2049.56 1909.13 2051.08C1907.84 2052.71 1905.96 2053.96 1903.77 2054.67C1903.12 2054.89 1902.41 2055.05 1901.71 2055.16C1901.48 2055.19 1901.27 2055.21 1901.04 2055.24H1900.95C1900.8 2055.27 1900.65 2055.27 1900.51 2055.29L1900.25 2055.31C1900.05 2055.31 1899.88 2055.32 1899.69 2055.32H1429.03C1424.95 2055.32 1421.35 2053.49 1419.33 2050.76C1418.36 2049.44 1417.75 2047.89 1417.65 2046.24C1417.64 2046.07 1417.64 2045.91 1417.64 2045.75V2020.95C1417.64 2020.76 1417.64 2020.6 1417.65 2020.44C1417.89 2016.37 1421.24 2012.95 1425.72 2011.8C1426.76 2011.52 1427.88 2011.37 1429.03 2011.37H1899.69C1899.89 2011.37 1900.08 2011.39 1900.29 2011.39L1900.59 2011.41C1900.97 2011.43 1901.33 2011.48 1901.71 2011.53C1902.41 2011.64 1903.12 2011.8 1903.77 2012.01C1904.12 2012.12 1904.44 2012.24 1904.75 2012.39H1904.76C1906.01 2012.89 1907.13 2013.6 1908.05 2014.45L1908.09 2014.52L1908.23 2014.64C1908.56 2014.93 1908.85 2015.25 1909.13 2015.59C1910.36 2017.12 1911.07 2018.96 1911.07 2020.95" fill="#FFB93E"/>
<path d="M1679.95 2055.32H1427.81C1424.27 2055.32 1421.12 2053.59 1419.31 2050.99C1418.33 2049.6 1417.73 2047.99 1417.65 2046.24C1417.64 2046.07 1417.64 2045.91 1417.64 2045.75V2020.95C1417.64 2020.76 1417.64 2020.6 1417.65 2020.44C1417.89 2016.05 1421.29 2012.44 1425.75 2011.57C1426.41 2011.44 1427.11 2011.37 1427.81 2011.37H1648.99C1649.08 2011.71 1649.17 2012.04 1649.28 2012.39C1652.95 2025.2 1661.21 2042.47 1679.85 2055.24L1679.95 2055.32" fill="#FFA412"/>
<path d="M1853.8 2055.31H1848.45V2011.37H1853.8V2055.31Z" fill="#FFA412"/>
<path d="M1835.69 2055.31H1830.35V2011.37H1835.69V2055.31Z" fill="#FFA412"/>
<path d="M1813.99 2055.31H1808.64V2011.37H1813.99V2055.31Z" fill="#FFA412"/>
<path d="M1780.69 2055.31H1775.35V2011.37H1780.69V2055.31Z" fill="#FFA412"/>
<path d="M1745.51 2055.31H1740.16V2011.37H1745.51V2055.31Z" fill="#FFA412"/>
<path d="M1691.55 2055.31H1686.2V2011.37H1691.55V2055.31Z" fill="#FFA412"/>
<path d="M1641.03 2055.31H1635.68V2011.37H1641.03V2055.31Z" fill="#FFA412"/>
<path d="M1590.56 2055.31H1595.92V2011.37H1590.56V2055.31Z" fill="#FFA412"/>
<path d="M1871.04 2055.31H1865.69V2011.37H1871.04V2055.31Z" fill="#FFA412"/>
<path d="M1882.43 2055.31H1877.08V2011.37H1882.43V2055.31Z" fill="#FFA412"/>
<path d="M1893.43 2055.31H1888.08V2011.37H1893.43V2055.31Z" fill="#FFA412"/>
<path d="M1901.69 2011.52V2055.16C1901.04 2055.25 1900.37 2055.31 1899.69 2055.31H1896.35V2011.37H1899.69C1900.37 2011.37 1901.04 2011.43 1901.69 2011.52" fill="#FFA412"/>
<path d="M1909.12 2015.6V2051.09C1907.83 2052.69 1905.96 2053.96 1903.77 2054.67V2012.01C1905.96 2012.72 1907.83 2013.99 1909.12 2015.6Z" fill="#FFA412"/>
<path d="M1945.68 1978.01V2002.83C1945.68 2004.8 1944.96 2006.64 1943.73 2008.16C1942.43 2009.77 1940.57 2011.04 1938.39 2011.75C1937.72 2011.96 1937.01 2012.13 1936.29 2012.24C1935.64 2012.33 1934.97 2012.39 1934.29 2012.39H1463.63C1461.8 2012.39 1460.07 2012.03 1458.55 2011.37C1455.11 2009.93 1452.65 2007.05 1452.28 2003.71C1452.27 2003.59 1452.25 2003.45 1452.25 2003.32C1452.24 2003.15 1452.24 2002.99 1452.24 2002.83V1978.01C1452.24 1977.85 1452.24 1977.68 1452.25 1977.52C1452.53 1972.87 1456.84 1969.07 1462.28 1968.52C1462.72 1968.47 1463.17 1968.45 1463.63 1968.45H1934.29C1934.97 1968.45 1935.64 1968.51 1936.29 1968.6C1937.01 1968.71 1937.72 1968.87 1938.39 1969.09C1940.57 1969.8 1942.43 1971.07 1943.73 1972.67C1944.96 1974.2 1945.68 1976.04 1945.68 1978.01" fill="#FFB93E"/>
<path d="M1714.56 2012.39H1462.4C1460.77 2012.39 1459.23 2012.03 1457.87 2011.37C1454.8 2009.93 1452.61 2007.05 1452.28 2003.71C1452.27 2003.59 1452.25 2003.45 1452.25 2003.32C1452.24 2003.15 1452.24 2002.99 1452.24 2002.83V1978.01C1452.24 1977.85 1452.24 1977.68 1452.25 1977.52C1452.51 1972.87 1456.35 1969.07 1461.2 1968.52C1461.59 1968.47 1462 1968.45 1462.4 1968.45H1683.6L1683.61 1968.52C1687.07 1981.12 1694.97 1998.39 1713.11 2011.37C1713.59 2011.72 1714.07 2012.05 1714.56 2012.39Z" fill="#FFA412"/>
<path d="M1888.41 2012.39H1883.05V1968.45H1888.41V2012.39Z" fill="#FFA412"/>
<path d="M1870.31 2012.39H1864.95V1968.45H1870.31V2012.39Z" fill="#FFA412"/>
<path d="M1848.59 2012.39H1843.24V1968.45H1848.59V2012.39Z" fill="#FFA412"/>
<path d="M1815.31 2012.39H1809.95V1968.45H1815.31V2012.39Z" fill="#FFA412"/>
<path d="M1780.11 2012.39H1774.76V1968.45H1780.11V2012.39Z" fill="#FFA412"/>
<path d="M1726.15 2012.39H1720.8V1968.45H1726.15V2012.39Z" fill="#FFA412"/>
<path d="M1675.63 2012.39H1670.28V1968.45H1675.63V2012.39Z" fill="#FFA412"/>
<path d="M1630.52 2012.39H1625.17V1968.45H1630.52V2012.39Z" fill="#FFA412"/>
<path d="M1905.64 2012.39H1900.29V1968.45H1905.64V2012.39Z" fill="#FFA412"/>
<path d="M1917.03 2012.39H1911.68V1968.45H1917.03V2012.39Z" fill="#FFA412"/>
<path d="M1928.03 2012.39H1922.68V1968.45H1928.03V2012.39Z" fill="#FFA412"/>
<path d="M1936.29 1968.6V2012.23C1935.64 2012.33 1934.97 2012.39 1934.29 2012.39H1930.95V1968.44H1934.29C1934.97 1968.44 1935.64 1968.51 1936.29 1968.6" fill="#FFA412"/>
<path d="M1943.73 1972.67V2008.16C1942.43 2009.77 1940.57 2011.03 1938.39 2011.75V1969.09C1940.57 1969.8 1942.43 1971.07 1943.73 1972.67Z" fill="#FFA412"/>
<path d="M1960.41 1934.15V1958.96C1960.41 1960.93 1959.69 1962.76 1958.45 1964.29C1957.16 1965.89 1955.29 1967.16 1953.11 1967.87C1952.45 1968.09 1951.75 1968.25 1951.03 1968.36C1950.81 1968.4 1950.59 1968.43 1950.37 1968.45C1950.25 1968.45 1950.12 1968.47 1950 1968.48C1949.88 1968.49 1949.75 1968.49 1949.63 1968.51C1949.43 1968.51 1949.23 1968.52 1949.03 1968.52H1478.36C1472.29 1968.52 1467.29 1964.48 1466.99 1959.44C1466.97 1959.28 1466.97 1959.12 1466.97 1958.96V1934.15C1466.97 1933.97 1466.97 1933.81 1466.99 1933.65C1467.29 1928.61 1472.29 1924.57 1478.36 1924.57H1949.03C1949.71 1924.57 1950.37 1924.63 1951.03 1924.73C1951.75 1924.84 1952.45 1925 1953.11 1925.23C1955.29 1925.93 1957.16 1927.2 1958.45 1928.8C1959.69 1930.33 1960.41 1932.16 1960.41 1934.15" fill="#FFB93E"/>
<path d="M1729.29 1968.52H1477.13C1471.72 1968.52 1467.25 1964.48 1466.99 1959.44C1466.97 1959.28 1466.97 1959.12 1466.97 1958.96V1934.15C1466.97 1933.97 1466.97 1933.81 1466.99 1933.65C1467.25 1928.61 1471.72 1924.57 1477.13 1924.57H1698.32C1701.85 1937.49 1710.05 1955.33 1729.19 1968.45L1729.29 1968.52" fill="#FFA412"/>
<path d="M1903.13 1968.52H1897.79V1924.57H1903.13V1968.52Z" fill="#FFA412"/>
<path d="M1885.03 1968.52H1879.68V1924.57H1885.03V1968.52Z" fill="#FFA412"/>
<path d="M1863.32 1968.52H1857.97V1924.57H1863.32V1968.52Z" fill="#FFA412"/>
<path d="M1830.03 1968.52H1824.68V1924.57H1830.03V1968.52Z" fill="#FFA412"/>
<path d="M1794.84 1968.52H1789.49V1924.57H1794.84V1968.52Z" fill="#FFA412"/>
<path d="M1740.88 1968.52H1735.53V1924.57H1740.88V1968.52Z" fill="#FFA412"/>
<path d="M1690.36 1968.52H1685.01V1924.57H1690.36V1968.52Z" fill="#FFA412"/>
<path d="M1645.25 1924.57V1968.52H1639.89V1924.57H1645.25Z" fill="#FFA412"/>
<path d="M1920.37 1968.52H1915.03V1924.57H1920.37V1968.52Z" fill="#FFA412"/>
<path d="M1931.76 1968.52H1926.41V1924.57H1931.76V1968.52Z" fill="#FFA412"/>
<path d="M1942.76 1968.52H1937.41V1924.57H1942.76V1968.52Z" fill="#FFA412"/>
<path d="M1951.03 1924.73V1968.36C1950.37 1968.47 1949.71 1968.52 1949.03 1968.52H1945.68V1924.57H1949.03C1949.71 1924.57 1950.37 1924.63 1951.03 1924.73" fill="#FFA412"/>
<path d="M1958.45 1928.8V1964.29C1957.16 1965.89 1955.29 1967.16 1953.12 1967.87V1925.23C1955.29 1925.93 1957.16 1927.19 1958.45 1928.8Z" fill="#FFA412"/>
<path d="M1811.21 1674.17C1811.21 1674.17 1786.49 1708.99 1763.84 1709.47C1741.17 1709.95 1706.69 1693.33 1706.69 1693.33C1706.69 1693.33 1685.88 1646.96 1700 1628.81C1700 1628.81 1714.15 1622.6 1728.95 1633.57C1731.49 1635.47 1734.07 1637.84 1736.61 1640.91C1740.2 1645.23 1744.24 1647.68 1748.51 1648.97C1764.68 1653.89 1783.88 1642.32 1791.05 1653.49C1795.25 1659.99 1799.8 1664.87 1803.56 1668.29C1807.99 1672.24 1811.21 1674.17 1811.21 1674.17Z" fill="#FFEDDC"/>
<path d="M1488.93 1925.23C1488.93 1925.23 1576.31 1713.51 1733.59 1709.47C1733.59 1709.47 1878.77 1725.6 1886.84 1925.23H1488.93Z" fill="#FFEDDC"/>
<path d="M1690.51 1715.93C1690.51 1715.93 1753.55 1729.95 1773 1721.71C1773 1721.71 1775.93 1695.35 1749.39 1699.05C1731.21 1701.57 1719.37 1692.84 1712.41 1689.31C1702.56 1684.29 1687.88 1704.91 1690.51 1715.93" fill="#DB6A1D"/>
<path d="M1745.36 1676.2C1741.33 1679.23 1728.95 1633.57 1728.95 1633.57C1731.49 1635.47 1734.07 1637.84 1736.61 1640.91C1740.2 1645.23 1744.24 1647.68 1748.51 1648.97C1748.55 1650.31 1749.28 1673.25 1745.36 1676.2Z" fill="#E5C1A1"/>
<path d="M1803.56 1668.29C1802.67 1668.81 1773.51 1686.28 1769.56 1686.28C1765.53 1686.28 1791.05 1653.49 1791.05 1653.49C1795.25 1659.99 1799.8 1664.87 1803.56 1668.29Z" fill="#E5C1A1"/>
<path d="M1574.29 1866.08C1572.68 1864.69 1636.13 1772.65 1653.6 1771.97C1671.08 1771.31 1710.35 1792.13 1738.77 1794.83C1767.2 1797.52 1794.75 1789.45 1800.13 1806.25C1805.51 1823.05 1820.29 1882.63 1811.21 1892.16C1802.15 1901.69 1609.19 1895.88 1574.29 1866.08" fill="#F9DDBF"/>
<path d="M2188.87 1093.25C2184.85 1096.36 2180.61 1099.27 2176.2 1101.96C2174.48 1103.01 2172.73 1104.01 2170.96 1105C2166.47 1107.48 2161.88 1109.69 2157.23 1111.63C2155.88 1111.4 2154.52 1111.16 2153.19 1110.95C2144.73 1109.53 2136.37 1108.24 2128.17 1107.05C2124.11 1106.47 2120.07 1105.91 2116.08 1105.39C2099.27 1103.15 2083.09 1101.37 2067.75 1099.97C2063.61 1099.57 2059.55 1099.23 2055.52 1098.89C2052.33 1098.64 2049.2 1098.4 2046.11 1098.16C2038.52 1097.6 2031.17 1097.13 2024.12 1096.73C2014.2 1089.71 2005.11 1081.31 1997.17 1071.61C1991.91 1065.19 1987.15 1058.17 1982.99 1050.63C1946.09 983.693 1970.43 899.52 2037.36 862.64C2039.12 861.667 2040.89 860.72 2042.69 859.853C2108.69 827.053 2189.43 851.853 2225.35 917.027C2258.73 977.587 2241.96 1052.27 2188.87 1093.25" fill="#FFB93E"/>
<path d="M2213.55 925.4C2180.53 865.52 2104.97 843.667 2045.11 876.667C2004.16 899.227 1980.99 941.707 1980.99 985.453C1980.99 1005.68 1985.93 1026.17 1996.37 1045.12C2002.03 1055.35 2008.91 1064.47 2016.72 1072.4C2027.99 1083.79 2041.2 1092.71 2055.52 1098.89C2059.55 1099.23 2063.61 1099.57 2067.75 1099.97C2050.77 1094.45 2035 1085.24 2021.79 1072.67C2013.05 1064.36 2005.41 1054.6 1999.31 1043.49C1967.17 985.24 1988.45 911.72 2046.71 879.6C2104.97 847.48 2178.49 868.747 2210.6 927C2242.12 984.187 2222.23 1056.04 2166.43 1089.05C2165.36 1089.68 2164.28 1090.29 2163.2 1090.89C2148.19 1099.17 2132.15 1103.91 2116.08 1105.39C2120.07 1105.91 2124.11 1106.47 2128.17 1107.05C2140.71 1104.68 2153.05 1100.31 2164.81 1093.84C2167.07 1092.61 2169.25 1091.29 2171.4 1089.95C2226.24 1055.17 2245.29 983.027 2213.55 925.4Z" fill="#FFA412"/>
<path d="M2165.93 997.307C2163.55 991.44 2160.47 986.774 2156.68 983.32C2152.89 979.867 2148.48 977.28 2143.47 975.547C2138.45 973.813 2132.85 972.76 2126.68 972.387C2120.49 972.014 2113.77 971.92 2106.52 972.133C2102.03 972.267 2098.2 972.187 2095 971.894C2091.81 971.614 2089.12 971.013 2086.91 970.133C2084.68 969.227 2082.88 968.014 2081.49 966.454C2080.11 964.907 2078.96 963.027 2078.05 960.787C2077.13 958.56 2076.63 956.333 2076.49 954.133C2076.36 951.947 2076.68 949.853 2077.48 947.88C2078.25 945.92 2079.55 944.093 2081.33 942.413C2083.11 940.733 2085.47 939.307 2088.39 938.12C2093.79 935.934 2098.83 935.973 2103.51 938.267C2108.17 940.547 2111.99 945.307 2114.95 952.56L2143.13 941.12C2140.67 935.08 2137.6 929.973 2133.89 925.813C2130.2 921.653 2126.04 918.427 2121.4 916.173C2116.76 913.893 2111.72 912.56 2106.27 912.187C2100.81 911.8 2095.13 912.374 2089.24 913.92L2081.25 894.267L2065.65 900.6L2073.52 919.973C2067.89 922.907 2063.13 926.294 2059.2 930.187C2055.29 934.067 2052.28 938.254 2050.17 942.76C2048.07 947.28 2046.96 952.014 2046.85 956.987C2046.75 961.96 2047.75 967.013 2049.83 972.147C2052.23 978.053 2055.33 982.747 2059.12 986.2C2062.91 989.653 2067.31 992.24 2072.32 993.933C2077.32 995.627 2082.92 996.653 2089.11 996.973C2095.31 997.32 2102.05 997.307 2109.32 996.947C2113.55 996.707 2117.2 996.747 2120.32 997.027C2123.43 997.32 2126.12 997.92 2128.39 998.813C2130.64 999.72 2132.52 1001 2134.03 1002.65C2135.52 1004.29 2136.79 1006.39 2137.81 1008.92C2138.73 1011.15 2139.17 1013.39 2139.17 1015.61C2139.16 1017.83 2138.65 1019.95 2137.65 1021.96C2136.65 1023.99 2135.17 1025.87 2133.19 1027.59C2131.19 1029.31 2128.68 1030.8 2125.61 1032.03C2122.95 1033.12 2120.19 1033.83 2117.33 1034.17C2114.48 1034.53 2111.71 1034.25 2108.99 1033.33C2106.28 1032.44 2103.73 1030.8 2101.37 1028.41C2099 1026.04 2096.95 1022.71 2095.21 1018.41L2067.01 1029.85C2069.96 1037.11 2073.65 1042.85 2078.11 1047.09C2082.55 1051.35 2087.41 1054.37 2092.71 1056.2C2098 1058.04 2103.53 1058.83 2109.31 1058.6C2115.08 1058.36 2120.77 1057.43 2126.4 1055.77L2133.67 1073.71L2149.19 1067.41L2141.87 1049.39C2147.49 1046.47 2152.32 1043.11 2156.35 1039.29C2160.36 1035.47 2163.43 1031.33 2165.56 1026.88C2167.69 1022.44 2168.83 1017.72 2168.96 1012.73C2169.11 1007.76 2168.09 1002.61 2165.93 997.307" fill="#FFA412"/>
<path d="M1466.96 2389.15V2369.83C1466.96 2369.67 1466.97 2369.51 1466.97 2369.35C1466.99 2369.03 1467.04 2368.72 1467.08 2368.4C1467.15 2368.04 1467.24 2367.69 1467.36 2367.35C1468.53 2363.29 1472.47 2360.28 1477.13 2360.28H1529.73C1510.07 2373.13 1488.8 2382.93 1466.96 2389.15Z" fill="#F09210"/>
<path d="M1529.73 2360.28H1426.81C1422.13 2360.28 1418.21 2357.24 1417.04 2353.17C1416.93 2352.83 1416.83 2352.48 1416.76 2352.13C1416.72 2351.83 1416.68 2351.51 1416.67 2351.2C1416.65 2351.05 1416.65 2350.89 1416.65 2350.73C1416.65 2350.72 1416.65 2350.71 1416.65 2350.71V2325.89C1416.65 2325.73 1416.65 2325.56 1416.67 2325.4C1416.68 2325.09 1416.72 2324.79 1416.76 2324.47C1416.83 2324.12 1416.93 2323.76 1417.04 2323.43C1418.21 2319.36 1422.13 2316.33 1426.81 2316.33H1446.45C1447.85 2317.01 1449.44 2317.41 1451.13 2317.41H1579.13C1564.6 2334 1547.85 2348.43 1529.73 2360.28Z" fill="#F09210"/>
<path d="M1579.13 2317.41H1451.13C1449.44 2317.41 1447.85 2317.01 1446.45 2316.33C1443.65 2314.96 1441.61 2312.4 1441.11 2309.39C1441.05 2309.19 1441.04 2308.97 1441.01 2308.77C1441 2308.64 1440.99 2308.49 1440.99 2308.35C1440.97 2308.19 1440.97 2308.04 1440.97 2307.89C1440.97 2307.88 1440.97 2307.87 1440.97 2307.85V2283.04C1440.97 2282.88 1440.97 2282.72 1440.99 2282.55C1441 2282.24 1441.03 2281.92 1441.08 2281.63C1441.15 2281.28 1441.24 2280.93 1441.35 2280.6C1442.49 2276.52 1446.44 2273.48 1451.13 2273.48H1462.4H1609.49C1601.09 2289.37 1590.83 2304.08 1579.13 2317.41" fill="#F09210"/>
<path d="M1609.49 2273.48H1462.4C1457.73 2273.48 1453.8 2270.45 1452.63 2266.39C1452.51 2266.04 1452.41 2265.69 1452.35 2265.33C1452.31 2265.03 1452.25 2264.72 1452.24 2264.41V2238.6C1452.51 2233.96 1456.35 2230.15 1461.2 2229.61H1625.17V2235.61C1624.44 2238 1623.67 2240.37 1622.85 2242.75C1619.17 2253.4 1614.69 2263.67 1609.49 2273.48Z" fill="#F09210"/>
<path d="M1625.17 2235.61V2229.61H1626.91C1626.36 2231.61 1625.79 2233.63 1625.17 2235.61Z" fill="#F09210"/>
<path d="M1626.91 2229.61H1427.81C1422.39 2229.61 1417.93 2225.56 1417.65 2220.53C1417.64 2220.39 1417.64 2220.23 1417.64 2220.07C1417.64 2220.05 1417.64 2220.05 1417.64 2220.04V2195.23C1417.64 2195.07 1417.64 2194.89 1417.65 2194.73C1417.65 2194.6 1417.67 2194.47 1417.68 2194.33C1418.09 2190.19 1421.35 2186.81 1425.57 2185.91C1425.79 2185.92 1426 2185.96 1426.23 2185.97C1426.41 2185.97 1426.61 2185.99 1426.81 2185.99H1590.56V2229.6H1595.92V2185.99H1634.03C1633.2 2200.63 1630.84 2215.25 1626.91 2229.61Z" fill="#F09210"/>
<path d="M1590.56 2229.6H1595.92V2185.99H1590.56V2229.6Z" fill="#F09210"/>
<path d="M1634.03 2185.99H1426.81C1426.61 2185.99 1426.41 2185.97 1426.23 2185.97C1426 2185.96 1425.79 2185.92 1425.57 2185.91C1421.01 2185.36 1417.37 2181.99 1416.75 2177.73C1416.71 2177.45 1416.68 2177.19 1416.67 2176.91C1416.65 2176.75 1416.65 2176.6 1416.65 2176.44C1416.65 2176.43 1416.65 2176.43 1416.65 2176.41V2151.61C1416.65 2151.43 1416.65 2151.27 1416.67 2151.11C1416.68 2150.8 1416.72 2150.49 1416.76 2150.19C1416.83 2149.83 1416.93 2149.48 1417.04 2149.13C1418.21 2145.07 1422.13 2142.04 1426.81 2142.04H1446.45C1447.85 2142.73 1449.44 2143.12 1451.13 2143.12H1589.57V2185.97H1594.92V2143.12H1632.04C1632.27 2144.63 1632.48 2146.12 1632.67 2147.63C1634.29 2160.32 1634.75 2173.16 1634.03 2185.99Z" fill="#F09210"/>
<path d="M1589.57 2185.97H1594.92V2143.12H1589.57V2185.97Z" fill="#F09210"/>
<path d="M1632.04 2143.12H1451.13C1449.44 2143.12 1447.85 2142.73 1446.45 2142.04C1443.65 2140.67 1441.61 2138.11 1441.11 2135.09C1441.05 2134.89 1441.04 2134.68 1441.01 2134.48C1441 2134.33 1440.99 2134.2 1440.99 2134.05C1440.97 2133.91 1440.97 2133.75 1440.97 2133.59C1440.97 2133.57 1440.97 2133.56 1440.97 2133.55V2108.75C1440.97 2108.59 1440.97 2108.41 1440.99 2108.25C1441 2107.93 1441.03 2107.63 1441.08 2107.32C1441.15 2106.97 1441.24 2106.64 1441.35 2106.31C1442.49 2102.23 1446.44 2099.17 1451.13 2099.17H1489.59H1620.48C1625.87 2113.27 1629.77 2127.99 1632.04 2143.12ZM1613.89 2099.19V2143.12H1619.24V2099.19H1613.89Z" fill="#F09210"/>
<path d="M1613.89 2143.12H1619.24V2099.19H1613.89V2143.12Z" fill="#F09210"/>
<path d="M1620.48 2099.17H1489.59C1484.91 2099.17 1480.96 2096.15 1479.81 2092.07C1479.71 2091.73 1479.61 2091.4 1479.55 2091.04C1479.49 2090.73 1479.47 2090.43 1479.44 2090.11C1479.43 2089.96 1479.43 2089.8 1479.43 2089.65C1479.43 2089.64 1479.43 2089.63 1479.43 2089.61V2064.8C1479.43 2064.64 1479.43 2064.48 1479.44 2064.32C1479.69 2059.67 1483.53 2055.87 1488.39 2055.32H1597.65C1606.91 2069.03 1614.59 2083.72 1620.48 2099.17" fill="#F09210"/>
<path d="M1425.75 2011.57L1434.84 1955.99C1446.15 1957.49 1457.15 1959.76 1467.8 1962.72C1469.21 1965.79 1472.28 1968.04 1475.92 1968.45H1463.63H1462.4C1462 1968.45 1461.59 1968.47 1461.2 1968.52C1456.35 1969.07 1452.51 1972.87 1452.25 1977.52C1452.24 1977.68 1452.24 1977.85 1452.24 1978.01V2002.83C1452.24 2002.99 1452.24 2003.15 1452.25 2003.32C1452.25 2003.45 1452.27 2003.59 1452.28 2003.71C1452.61 2007.05 1454.8 2009.92 1457.87 2011.37H1429.03H1427.81C1427.11 2011.37 1426.41 2011.44 1425.75 2011.57Z" fill="#E6BA84"/>
<path d="M1597.65 2055.32H1427.81C1424.27 2055.32 1421.12 2053.59 1419.31 2050.99L1419.33 2050.76L1425.72 2011.8L1425.75 2011.57C1426.41 2011.44 1427.11 2011.37 1427.81 2011.37H1429.03H1457.87C1459.23 2012.03 1460.77 2012.39 1462.4 2012.39H1559.87C1571.24 2022.4 1581.52 2033.48 1590.56 2045.4V2055.31H1595.92V2052.77C1596.51 2053.61 1597.08 2054.47 1597.65 2055.32" fill="#F09210"/>
<path d="M1595.92 2055.31H1590.56V2045.4C1592.4 2047.83 1594.19 2050.28 1595.92 2052.77V2055.31Z" fill="#F09210"/>
<path d="M1559.87 2012.39H1462.4C1460.77 2012.39 1459.23 2012.03 1457.87 2011.37C1454.8 2009.92 1452.61 2007.05 1452.28 2003.71C1452.27 2003.59 1452.25 2003.45 1452.25 2003.32C1452.24 2003.15 1452.24 2002.99 1452.24 2002.83V1978.01C1452.24 1977.85 1452.24 1977.68 1452.25 1977.52C1452.51 1972.87 1456.35 1969.07 1461.2 1968.52C1461.59 1968.47 1462 1968.45 1462.4 1968.45H1463.63H1475.92C1476.32 1968.49 1476.72 1968.52 1477.13 1968.52H1485.84C1513.64 1978.68 1538.65 1993.71 1559.87 2012.39" fill="#F09210"/>
<path d="M1485.84 1968.52H1477.13C1476.72 1968.52 1476.32 1968.49 1475.92 1968.45C1472.28 1968.04 1469.21 1965.79 1467.8 1962.72C1473.93 1964.43 1479.95 1966.36 1485.84 1968.52Z" fill="#F09210"/>
<path d="M1147.87 2274.75C1086.15 2162.77 1126.88 2021.96 1238.85 1960.24C1350.83 1898.52 1491.64 1939.25 1553.36 2051.23C1615.08 2163.2 1574.35 2304 1462.37 2365.73C1350.4 2427.45 1209.6 2386.72 1147.87 2274.75Z" fill="#E2810E"/>
<path d="M1453.39 2370.43C1450.53 2372.17 1447.64 2373.85 1444.69 2375.48C1443.69 2376.03 1442.69 2376.57 1441.69 2377.09C1439.41 2378.32 1437.13 2379.48 1434.83 2380.63C1324.58 2434.77 1190.11 2393.21 1130.18 2284.49C1073.01 2180.8 1103.74 2052.36 1197.54 1984.92C1205.02 1979.53 1212.89 1974.55 1221.17 1969.99C1224.13 1968.35 1227.13 1966.79 1230.13 1965.29C1233.05 1963.84 1236 1962.45 1238.95 1961.15C1248.01 1957.11 1257.23 1953.71 1266.52 1950.92C1280.35 1946.75 1294.38 1943.95 1308.44 1942.47C1352.05 1937.84 1395.93 1945.81 1434.83 1964.84C1476.11 1985.03 1511.8 2017.68 1535.68 2060.97C1595.77 2170 1558.73 2306.36 1453.39 2370.43" fill="#FFB93E"/>
<path d="M1333.91 1973.32C1300.99 1973.32 1267.62 1981.39 1236.81 1998.37C1189.59 2024.4 1155.34 2067.25 1140.36 2119.04C1125.38 2170.83 1131.46 2225.36 1157.49 2272.57C1183.51 2319.79 1226.37 2354.04 1278.16 2369.03C1329.95 2384 1384.47 2377.92 1431.69 2351.89C1529.16 2298.16 1564.73 2175.16 1511.01 2077.69C1474.27 2011.04 1405.12 1973.32 1333.91 1973.32V1973.32ZM1334.55 2382.67C1315.19 2382.67 1295.72 2379.92 1276.61 2374.4C1223.38 2359 1179.33 2323.8 1152.59 2275.27C1125.84 2226.75 1119.59 2170.71 1134.98 2117.49C1150.38 2064.27 1185.58 2020.21 1234.11 1993.47C1334.28 1938.25 1460.69 1974.83 1515.91 2074.99C1571.13 2175.16 1534.56 2301.57 1434.39 2356.79C1403.29 2373.93 1369.09 2382.67 1334.55 2382.67" fill="#FFA412"/>
<path d="M1436.27 2195.28C1435.81 2194.13 1435.32 2193.04 1434.83 2191.95C1431.08 2183.71 1426.4 2177.01 1420.79 2171.89C1414.44 2166.11 1407.08 2161.77 1398.68 2158.89C1390.29 2156 1380.92 2154.24 1370.6 2153.61C1360.27 2152.97 1349.01 2152.83 1336.87 2153.17C1329.36 2153.4 1322.94 2153.27 1317.61 2152.79C1312.28 2152.29 1307.76 2151.31 1304.05 2149.81C1300.33 2148.32 1297.32 2146.28 1295 2143.68C1292.68 2141.09 1290.77 2137.93 1289.25 2134.2C1287.73 2130.45 1286.86 2126.75 1286.63 2123.07C1286.4 2119.4 1286.95 2115.92 1288.28 2112.6C1289.6 2109.31 1291.75 2106.25 1294.73 2103.45C1297.71 2100.65 1301.64 2098.25 1306.54 2096.27C1315.57 2092.6 1324 2092.69 1331.83 2096.51C1339.65 2100.35 1346.03 2108.32 1350.95 2120.44L1398.11 2101.29C1394 2091.2 1388.87 2082.65 1382.68 2075.69C1376.49 2068.73 1369.52 2063.35 1361.77 2059.55C1354.01 2055.75 1345.57 2053.53 1336.44 2052.88C1327.31 2052.24 1317.81 2053.2 1307.97 2055.79L1294.62 2022.89L1268.51 2033.49L1281.68 2065.93C1272.26 2070.83 1264.27 2076.51 1257.71 2082.99C1251.16 2089.48 1246.12 2096.51 1242.6 2104.05C1239.08 2111.61 1237.23 2119.53 1237.05 2127.84C1236.88 2136.16 1238.53 2144.61 1242.02 2153.19C1246.05 2163.09 1251.23 2170.95 1257.57 2176.72C1263.91 2182.51 1271.27 2186.81 1279.64 2189.65C1288.02 2192.49 1297.38 2194.2 1307.75 2194.75C1318.11 2195.31 1329.39 2195.29 1341.56 2194.71C1348.63 2194.31 1354.76 2194.35 1359.96 2194.84C1365.16 2195.31 1369.65 2196.31 1373.44 2197.83C1377.23 2199.36 1380.37 2201.49 1382.88 2204.24C1385.39 2206.99 1387.51 2210.48 1389.24 2214.72C1390.76 2218.47 1391.51 2222.19 1391.49 2225.91C1391.48 2229.61 1390.64 2233.17 1388.97 2236.55C1387.31 2239.93 1384.8 2243.07 1381.48 2245.95C1378.15 2248.84 1373.93 2251.31 1368.81 2253.39C1364.35 2255.2 1359.75 2256.39 1354.97 2256.99C1350.2 2257.56 1345.55 2257.09 1341 2255.59C1336.45 2254.07 1332.21 2251.32 1328.25 2247.35C1324.29 2243.37 1320.85 2237.79 1317.94 2230.61L1270.78 2249.76C1275.7 2261.88 1281.89 2271.51 1289.33 2278.59C1296.78 2285.69 1304.92 2290.79 1313.77 2293.83C1322.62 2296.89 1331.87 2298.24 1341.52 2297.84C1351.19 2297.44 1360.72 2295.88 1370.12 2293.11L1382.31 2323.12L1408.25 2312.59L1396 2282.44C1405.43 2277.55 1413.49 2271.91 1420.21 2265.53C1426.44 2259.63 1431.31 2253.28 1434.83 2246.45C1435.12 2245.89 1435.39 2245.35 1435.65 2244.79C1439.21 2237.33 1441.12 2229.45 1441.35 2221.11C1441.57 2212.79 1439.88 2204.17 1436.27 2195.28" fill="#FFA412"/>
<path d="M1160.91 1357.71C1161.62 1354.87 1099.25 1385.89 1096.09 1389.4C1066.84 1421.84 1075.18 1464.19 1091.91 1464.59C1102.65 1464.85 1100.57 1482.69 1100.57 1482.69L1220.15 1432.11C1220.15 1432.11 1205.75 1348.15 1160.91 1357.71" fill="#2C3A64"/>
<path d="M1175.64 1364.25C1175.64 1364.25 1179.91 1317.67 1127.86 1317.67C1127.86 1317.67 1143.63 1321.95 1151.79 1330.51C1151.79 1330.51 1118.59 1311.01 1082.47 1340.96C1046.34 1370.91 1068.79 1446.01 1057.8 1460.28C1046.81 1474.53 1004.03 1477.39 1009.26 1523.49C1014.49 1569.61 1145.04 1627.36 1136.66 1665.51C1136.66 1665.51 1187.82 1590.31 1151.24 1555.99C1151.24 1555.99 1169.07 1572.77 1170.88 1592.75C1170.88 1592.75 1175.72 1553.76 1150.92 1541.29C1128.97 1530.27 1110.99 1489.91 1112.89 1482.69C1114.79 1475.49 1175.64 1364.25 1175.64 1364.25" fill="#2C3A64"/>
<path d="M1128.38 1583.41C1120.35 1544.77 1070.23 1532.79 1046.53 1564.35C1042.26 1570.01 1039.26 1576.73 1038.28 1584.65C1032.87 1628.52 1103.01 1807.21 1113.06 1823.4C1131.35 1852.85 1239.04 1953.83 1239.04 1953.83L1258.89 1941.8C1258.89 1941.8 1182.5 1812.48 1170.67 1800.39C1157 1786.39 1143.61 1656.8 1128.38 1583.41" fill="#ED985F"/>
<path d="M1231.49 1941.85C1231.49 1941.85 1260.46 1922.84 1271.43 1924.07C1282.39 1925.28 1314.13 1934.41 1314.52 1939.08C1314.9 1943.75 1279.15 1946.67 1276.75 1949.21C1274.35 1951.76 1250.08 1967.97 1241.28 1962.88C1232.48 1957.8 1231.49 1941.85 1231.49 1941.85" fill="#ED985F"/>
<path d="M1029.44 2371.55L1003.56 2367.75C1003.56 2367.75 916.547 2298.6 903.588 2169.57C902.267 2156.44 901.991 2143.12 902.971 2129.68C903.084 2128.13 902.913 2126.59 902.067 2125.28L902.039 2125.24C899.252 2120.97 892.323 2110.28 882.939 2095.07C873.688 2080.08 857.859 2051.75 840.441 2019.96C809.067 1962.71 772.54 1894.23 760.009 1872.43C720.088 1802.92 739.332 1756.17 739.332 1756.17C739.332 1756.17 850.699 1745.17 881.217 1718.47L892.208 1735.41C892.208 1735.41 916.337 1842.24 915.196 1842.73C916.385 1846.36 917.592 1850.07 918.819 1853.83C937.861 1912.6 959.767 1986.07 971.708 2045.89C978.419 2079.56 981.975 2108.89 980.064 2128.87C979.408 2135.72 980.207 2146.27 982.032 2159.27C992.813 2235.93 1029.44 2371.55 1029.44 2371.55Z" fill="#2B478B"/>
<path d="M1083.72 2404.28H975.753C975.753 2404.28 973.167 2387.83 978.805 2375.35C984.209 2363.37 991.911 2362.99 979.789 2344.21C986.649 2351.28 1008.7 2354.2 1024.31 2352.09C1026.22 2355.2 1036.64 2376 1043.03 2380.59C1050.08 2385.65 1081.55 2383.85 1083.72 2404.28" fill="#233862"/>
<path d="M918.819 1853.83C909.388 1905.84 887.112 1992.4 840.441 2019.96C809.067 1962.71 772.54 1894.23 760.009 1872.43C720.088 1802.92 739.332 1756.17 739.332 1756.17C739.332 1756.17 850.699 1745.17 881.217 1718.47L892.208 1735.41C892.208 1735.41 916.337 1842.24 915.196 1842.73C916.385 1846.36 917.592 1850.07 918.819 1853.83" fill="#233862"/>
<path d="M1116.83 1559.44C1116.83 1559.44 1132.09 1575.31 1139.06 1594.33C1139.06 1594.33 1114.71 1664.25 1057.8 1673.03C1057.8 1673.03 1102.83 1559.41 1116.83 1559.44Z" fill="#ED7D2B"/>
<path d="M843.099 1764.21L843.465 1744.01C803.233 1749.09 704.745 1695.95 704.745 1695.95C704.745 1695.95 662.656 1723.93 656.895 1803.88C654.083 1842.91 636.291 2007.93 634.323 2057.2C633.605 2075.07 633.368 2087.81 633.285 2092.91L633.292 2092.96C633.267 2094.51 632.537 2095.88 631.581 2097.11C623.257 2107.69 616.035 2118.89 609.781 2130.52C548.391 2244.75 580.495 2399.95 580.495 2399.95L594.751 2396.32C594.751 2396.32 646.66 2235.43 680.584 2165.84C686.343 2154.04 691.573 2144.85 695.949 2139.53C708.705 2124.04 722.156 2097.73 735.415 2066.07C760.476 2006.2 784.807 1927.21 802.16 1866.04C803.384 1866.27 843.099 1764.21 843.099 1764.21" fill="#2B478B"/>
<path d="M1078.53 1629.44C1012.76 1614.35 1054.78 1521.93 1058.59 1523.56C1067.7 1521.69 1087.72 1505.69 1105.62 1474.45L1108.04 1476.55L1148.44 1511.96C1148.44 1511.96 1139.1 1525.73 1131.24 1539.23C1125.11 1549.79 1119.89 1560.2 1120.72 1563.77C1123.97 1566.33 1096.07 1633.48 1078.53 1629.44" fill="#FFB27D"/>
<path d="M1148.43 1511.97C1148.43 1511.97 1139.09 1525.73 1131.24 1539.24C1106.13 1523.76 1106.1 1492.67 1108.03 1476.56L1148.43 1511.97Z" fill="#ED985F"/>
<path d="M1149.55 1529.71C1149.55 1529.71 1088.57 1495.77 1110.29 1458.13C1132.01 1420.48 1138.76 1390.75 1178.61 1410.81C1218.47 1430.89 1217.68 1449.57 1213.49 1463.91C1209.29 1478.24 1165.98 1537.56 1149.55 1529.71" fill="#FFB27D"/>
<path d="M1223.79 1441.95C1220.99 1425.23 1212.5 1423.64 1206.58 1424.75C1184.06 1387.51 1147.27 1402.04 1147.27 1402.04C1127.62 1426.71 1099.2 1430.91 1099.2 1430.91C1099.2 1430.91 1106.28 1444.08 1135.44 1452.23C1144.34 1454.72 1154.45 1453.21 1164.2 1449.93C1143.97 1461.21 1122.82 1465.53 1122.82 1465.53C1161.24 1469.04 1197.8 1433.92 1201.59 1430.16C1203.36 1435.6 1206.47 1447 1204.61 1455.33C1202.08 1466.65 1192.03 1487.16 1198.17 1489.81C1198.17 1489.81 1227.97 1467.01 1223.79 1441.95" fill="#2C3A64"/>
<path d="M666.35 2404.28H558.385C558.385 2404.28 555.797 2387.83 561.437 2375.35C566.84 2363.37 575.304 2357.92 573.277 2343.43C580.139 2350.49 591.318 2358.4 606.928 2356.31C608.84 2359.4 619.273 2376 625.661 2380.59C632.716 2385.65 664.177 2383.85 666.35 2404.28" fill="#233862"/>
<path d="M1086.27 1702.71C1072.38 1707.56 1052.88 1710.21 1032.93 1712.37C1004.55 1715.48 975.235 1717.6 959.88 1723.72C954.28 1725.96 950.535 1728.71 949.365 1732.24C942.711 1752.25 913.38 1783.13 913.38 1783.13C725.384 1774.57 704.744 1695.95 704.744 1695.95C831.228 1548.87 1045.39 1506.29 1045.39 1506.29C1045.39 1506.29 1060.69 1499.8 1099.21 1530.41C1124.92 1550.85 1121.53 1558.71 1121.53 1558.71C1121.53 1558.71 1127.15 1688.45 1086.27 1702.71" fill="#F99746"/>
<path d="M1032.93 1712.37C1004.55 1715.48 975.235 1717.6 959.88 1723.72C953.605 1629.96 997.852 1559.44 997.852 1559.44C997.852 1559.44 1026.72 1676.89 1032.93 1712.37" fill="#ED7D2B"/>
<path d="M1062.15 1541.29C1062.15 1541.29 991.003 1548.32 985.299 1594.56C979.595 1640.79 1053.51 1829.09 1064.1 1846.15C1083.37 1877.19 1196.85 1983.59 1196.85 1983.59L1217.77 1970.92C1217.77 1970.92 1137.28 1834.64 1124.81 1821.89C1105.25 1801.87 1086.25 1557.31 1062.15 1541.29" fill="#FFB27D"/>
<path d="M987.352 1622.37C987.537 1623.43 1053.02 1643.76 1095.15 1622.37C1095.15 1622.37 1104.17 1525.15 1053.86 1530.43C1003.56 1535.69 973.768 1551.55 972.5 1575.63C971.232 1599.72 987.352 1622.37 987.352 1622.37" fill="#F99746"/>
<path d="M1190.39 1970.08C1190.39 1970.08 1215.91 1946.64 1226.93 1946.08C1237.95 1945.52 1270.75 1949.41 1271.88 1953.96C1273.01 1958.51 1238.2 1967.13 1236.24 1970.04C1234.28 1972.95 1212.94 1992.85 1203.43 1989.25C1193.93 1985.65 1190.39 1970.08 1190.39 1970.08" fill="#FFB27D"/>
<path d="M2669 2410.32C2662.55 2410.36 2655.77 2405.65 2653.88 2399.81L2265.24 1205.83C2263.35 1199.99 2267.03 1195.23 2273.48 1195.19C2279.93 1195.15 2286.71 1199.85 2288.61 1205.69L2677.24 2399.67C2679.15 2405.51 2675.45 2410.28 2669 2410.32Z" fill="#233862"/>
<path d="M2982.21 2408.49C2975.76 2408.52 2968.99 2403.83 2967.09 2397.97L2578.45 1204C2576.56 1198.16 2580.24 1193.4 2586.69 1193.36C2593.15 1193.32 2599.92 1198.03 2601.83 1203.87L2990.45 2397.84C2992.36 2403.68 2988.67 2408.45 2982.21 2408.49" fill="#233862"/>
<path d="M2644.97 1370.37L2330.45 1372.21C2324.39 1372.24 2317.96 1367.77 2316.17 1362.29C2314.39 1356.8 2317.88 1352.27 2323.95 1352.24L2638.47 1350.4C2644.53 1350.36 2650.96 1354.83 2652.75 1360.32C2654.53 1365.81 2651.04 1370.33 2644.97 1370.37Z" fill="#233862"/>
<path d="M2712.83 1578.84L2398.31 1580.68C2392.24 1580.71 2385.81 1576.24 2384.03 1570.75C2382.24 1565.27 2385.73 1560.73 2391.8 1560.71L2706.32 1558.87C2712.39 1558.83 2718.81 1563.29 2720.6 1568.79C2722.39 1574.28 2718.89 1578.8 2712.83 1578.84" fill="#233862"/>
<path d="M2778.17 1779.61L2463.65 1781.45C2457.59 1781.48 2451.16 1777.01 2449.37 1771.53C2447.59 1766.04 2451.09 1761.51 2457.15 1761.48L2771.67 1759.64C2777.73 1759.6 2784.16 1764.07 2785.95 1769.56C2787.73 1775.05 2784.24 1779.57 2778.17 1779.61Z" fill="#233862"/>
<path d="M2851.75 2005.64L2537.23 2007.48C2531.16 2007.52 2524.73 2003.05 2522.95 1997.56C2521.16 1992.07 2524.65 1987.55 2530.72 1987.51L2845.24 1985.67C2851.31 1985.64 2857.73 1990.09 2859.52 1995.59C2861.31 2001.08 2857.81 2005.61 2851.75 2005.64Z" fill="#233862"/>
<path d="M2928.75 2242.23L2614.23 2244.05C2608.16 2244.09 2601.73 2239.63 2599.95 2234.13C2598.16 2228.64 2601.67 2224.12 2607.73 2224.08L2922.25 2222.25C2928.32 2222.21 2934.73 2226.68 2936.52 2232.17C2938.32 2237.67 2934.81 2242.19 2928.75 2242.23" fill="#233862"/>
<path d="M2269.52 985.72C2263.73 981.64 2250.6 972.64 2249.92 974.654C2249.43 976.094 2250.13 978.533 2251.71 981.08C2243.76 978.12 2235.71 976.173 2216.64 979.84C2212.81 980.573 2209.36 982.747 2207.25 986.013C2205.32 989.04 2204.59 992.827 2209.45 995.84C2219.19 1001.89 2216.36 998.28 2229.88 1007.08C2243.4 1015.89 2259.96 1018.15 2269.85 1011.96L2283.12 1009.75L2284.77 987.907C2284.77 987.907 2277.21 987.014 2269.52 985.72" fill="#FFB27D"/>
<path d="M2617.36 802.6C2617.36 802.6 2586.07 839.72 2546.23 824.187C2546.23 824.187 2537.65 803.454 2537.52 788.174C2537.51 786.294 2537.49 784.467 2537.45 782.734C2537.24 765.52 2536.67 755.867 2536.67 755.867L2536.71 755.854C2538.52 755.094 2597.63 730.827 2597.57 732.854C2596.56 779.4 2617.36 802.6 2617.36 802.6Z" fill="#FFB27D"/>
<path d="M2591.64 743.947C2585.95 754.507 2566.39 775.187 2537.45 782.734C2537.24 765.52 2536.67 755.867 2536.67 755.867L2536.71 755.854C2538.35 755.414 2593.33 740.827 2591.64 743.947" fill="#ED975D"/>
<path d="M2524.28 754.08C2524.28 754.08 2590.76 769.707 2599.85 728.16C2608.95 686.613 2623.65 660.653 2581.6 648.92C2539.55 637.173 2527.8 651.227 2521.39 664.347C2514.99 677.48 2507.23 748.947 2524.28 754.08" fill="#FFB27D"/>
<path d="M2597.59 739.48C2598.49 740.053 2612.79 744.453 2639.88 690.493C2644.13 682.013 2647.03 663.693 2637.12 647.507C2627.2 631.307 2592.05 618.587 2562.85 613.04C2533.65 607.507 2526.65 623.933 2519.77 640.44C2512.56 657.773 2491.71 672.053 2491.71 672.053C2516.89 686.12 2547.21 666 2557.72 669.307C2568.23 672.613 2571.95 689.173 2572.73 694.48C2573.52 699.787 2574.73 704.2 2587.95 699.453C2601.15 694.72 2593.92 718.187 2591.8 722.667C2591.8 722.667 2590 734.627 2597.59 739.48Z" fill="#233862"/>
<path d="M2669.28 1772.11H2709.53C2717.97 1772.11 2727.35 1763.65 2729.69 1748.19C2732.04 1732.72 2749.39 1724.28 2753.15 1711.61C2756.89 1698.95 2737.67 1681.12 2737.67 1681.12L2734.45 1677L2731.11 1672.69L2699.23 1680.19C2699.23 1680.19 2698.44 1687.79 2697.95 1697.45C2697.6 1704.43 2697.41 1712.51 2697.81 1719.59C2698.76 1736.47 2693.08 1754.64 2678.09 1757.93C2663.08 1761.21 2669.28 1772.11 2669.28 1772.11" fill="#2C3A64"/>
<path d="M2488.61 1775.53H2595.31C2596.33 1775.33 2597.11 1775.12 2597.57 1774.88C2604.69 1771.32 2602.47 1744.04 2601.61 1735.61C2601.44 1734.05 2601.32 1733.15 2601.32 1733.15C2601.32 1733.15 2563.81 1703.13 2558.64 1726.11C2558.48 1726.83 2558.29 1727.53 2558.09 1728.23V1728.24C2551.59 1749.73 2522.47 1759.49 2505.65 1762.21C2492.8 1764.31 2489.47 1771.8 2488.61 1775.53" fill="#2C3A64"/>
<path d="M2510.12 1160.28C2510.12 1160.28 2515.81 1231.36 2522.51 1316.81C2531.61 1432.89 2542.56 1575.48 2543.64 1602.49C2545.51 1649.39 2553.03 1724.41 2553.03 1724.41C2553.03 1724.41 2570.84 1742.24 2606.48 1734.73C2606.48 1734.73 2638.25 1627.63 2647.33 1514.31C2647.47 1512.45 2647.61 1510.57 2647.75 1508.71C2656.19 1393.35 2669.32 1150.43 2669.32 1150.43L2510.12 1160.28" fill="#2B478B"/>
<path d="M2510.12 1160.28C2510.12 1160.28 2515.81 1231.36 2522.51 1316.81L2647.33 1514.31C2647.47 1512.45 2647.61 1510.57 2647.75 1508.71C2656.19 1393.35 2669.32 1150.43 2669.32 1150.43L2510.12 1160.28" fill="#233862"/>
<path d="M2545.61 1145.11C2545.61 1145.11 2603.29 1382.93 2647.33 1514.31C2691.36 1645.68 2693.21 1709.28 2693.21 1709.28C2693.21 1709.28 2743.12 1699.53 2748.52 1689.81C2748.52 1689.81 2765.63 1464.81 2731.69 1400.51C2712.52 1364.16 2715.75 1279.96 2715.75 1241.6C2715.75 1170.53 2693.57 1099.96 2693.57 1099.96L2545.61 1145.11" fill="#2B478B"/>
<path d="M2770.35 1121.93L2771.43 1138.49C2771.43 1138.49 2760.51 1167.91 2791.11 1183C2791.11 1183 2804.2 1188.28 2804.73 1178.08C2805.27 1167.89 2803.59 1171.72 2804.65 1157.36C2805.72 1143.01 2800.08 1129.44 2790.57 1124.87L2782.79 1115.88L2770.35 1121.93Z" fill="#FFB27D"/>
<path d="M2782.29 1133.99C2770.93 1137.64 2769.11 1136.81 2769.11 1136.81C2769.11 1136.81 2713.79 1036.09 2708.17 1026.87C2702.57 1017.64 2590.71 913.907 2590.71 913.907L2619.45 806.707C2619.45 806.707 2746.69 971.467 2760.43 995.107C2783.13 1034.17 2796.44 1124.92 2796.44 1124.92C2796.44 1124.92 2791.23 1131.12 2782.29 1133.99" fill="#1E3D70"/>
<path d="M2488.44 956C2488.84 978.013 2490.12 1002.76 2491.84 1027.89C2491.95 1029.39 2492.05 1030.88 2492.16 1032.37C2493.25 1047.95 2494.45 1063.55 2495.83 1078.77C2496.39 1084.87 2496.97 1090.91 2497.57 1096.83L2497.67 1097.63C2497.72 1099.84 2497.99 1102.25 2498.24 1104.44C2503.84 1161.45 2509.72 1206.49 2510.81 1207.19C2512.12 1208.05 2513.59 1208.48 2515.19 1208.29C2530.15 1206.41 2574.75 1209.81 2611.27 1201.87C2642.08 1195.36 2668.61 1183.04 2696.73 1166.43C2700.47 1164.23 2708.97 1158.37 2708.28 1154.01C2707.6 1149.21 2706.35 1142.28 2704.75 1133.56C2699.2 1103.24 2689.64 1051.08 2686.39 990.027C2685.75 978.653 2684.83 967.427 2683.63 956.387C2680.49 927.627 2675.47 900.307 2668.73 876.04C2656.21 830.947 2637.81 796.427 2614.72 782.92C2611.71 781.227 2595.48 791.56 2580.57 801.12C2566.81 809.947 2552.32 812.387 2538.23 811.16L2525.83 824.88C2510.8 842.333 2494.81 865.587 2490.44 898.627C2490.12 901.067 2489.84 903.667 2489.6 906.413C2488.39 919.88 2488.09 936.92 2488.44 956" fill="#2A4E96"/>
<path d="M2488.44 956C2488.84 978.013 2490.12 1002.76 2491.84 1027.89C2491.95 1029.39 2492.05 1030.88 2492.16 1032.37C2577.55 978.92 2590.71 881.107 2590.71 881.107C2548.69 882.947 2515.32 892.613 2489.6 906.413C2488.39 919.88 2488.09 936.92 2488.44 956Z" fill="#1E3D70"/>
<path d="M2272.67 998.107C2271.79 985.44 2278.35 983.333 2278.35 983.333C2278.35 983.333 2407.11 960 2418.05 956.547C2429 953.107 2522.59 855.747 2522.59 855.747C2522.59 855.747 2558.47 815.294 2587.84 824.227C2613.36 831.987 2623.33 851.907 2626.73 870.867C2630.79 893.467 2620.36 916.214 2600.79 928.227C2556.85 955.174 2468.88 1008.28 2448.17 1014.35C2402.05 1027.87 2278.17 1015.43 2278.17 1015.43C2278.17 1015.43 2273.36 1008.05 2272.67 998.107" fill="#2A4E96"/>
<path d="M2340.73 1140.29C2338.87 1146.28 2332.49 1150.11 2325.83 1148.12C2265.75 1129.37 2202.11 1116.97 2139.32 1109.75C2070.43 1101.83 2000.08 1100.29 1966.97 1102.61C1960.41 1103.03 1954.76 1098.03 1954.35 1091.45C1953.96 1084.89 1958.95 1079.25 1965.49 1078.85C2016.99 1075.77 2089.37 1079.83 2144.05 1086.27C2206.73 1093.65 2271.6 1106.27 2332.91 1125.39C2339.19 1127.35 2342.69 1134.01 2340.73 1140.29" fill="#2B478B"/>
<path d="M3522.89 2212.32C3521.84 2210.07 3520.53 2208.01 3519.01 2206.16L3518.99 2206.13C3517.85 2204.76 3516.6 2203.48 3515.23 2202.31L3509.52 2196.53L3508.03 2197.64C3478.88 2183.37 3418.67 2198.51 3357.77 2238.27C3284.16 2286.32 3236.91 2352.48 3250.53 2387.64L3248.47 2389.17L3256.65 2397.33C3257.04 2397.75 3257.44 2398.15 3257.85 2398.55L3258.09 2398.77L3258.16 2398.83C3260.24 2400.72 3262.6 2402.36 3265.24 2403.75L3265.28 2403.77H3265.29C3294.07 2418.85 3354.92 2403.84 3416.48 2363.64C3491.47 2314.69 3539.11 2246.95 3522.89 2212.32" fill="#FFA412"/>
<path d="M3349.01 2229.51C3423.99 2180.55 3497.92 2168.93 3514.13 2203.56C3530.35 2238.19 3482.71 2305.93 3407.73 2354.89C3332.75 2403.84 3258.81 2415.45 3242.6 2380.84C3226.39 2346.21 3274.03 2278.45 3349.01 2229.51Z" fill="#FFB93E"/>
<path d="M3461.73 2201.75C3434.55 2201.75 3394.61 2216.59 3356.17 2241.76C3325.33 2261.96 3298.81 2286.24 3281.48 2310.15C3264.8 2333.13 3258.57 2353.59 3264.39 2366.25C3267.13 2372.24 3272.45 2376.41 3280.2 2378.64C3284.53 2379.89 3289.51 2380.49 3295 2380.49C3322.19 2380.49 3362.12 2365.65 3400.56 2340.48C3431.4 2320.29 3457.93 2296 3475.27 2272.11C3491.93 2249.12 3498.16 2228.67 3492.35 2215.99C3489.6 2210 3484.28 2205.84 3476.55 2203.6C3472.21 2202.36 3467.23 2201.75 3461.73 2201.75V2201.75ZM3295.17 2386.01C3289.09 2386.01 3283.55 2385.33 3278.67 2383.93C3269.32 2381.23 3262.84 2376.05 3259.39 2368.55C3252.63 2353.8 3258.89 2331.92 3277.03 2306.91C3294.73 2282.48 3321.79 2257.71 3353.17 2237.16C3401.37 2205.59 3450.4 2190.35 3478.07 2198.32C3487.41 2201.01 3493.91 2206.19 3497.35 2213.69C3504.11 2228.44 3497.85 2250.33 3479.72 2275.33C3462 2299.76 3434.96 2324.53 3403.57 2345.09C3363.87 2371.09 3323.6 2386.01 3295.17 2386.01Z" fill="#FFA412"/>
<path d="M3348.16 2310.04C3350.48 2309.03 3352.53 2307.91 3354.35 2306.71C3356.15 2305.49 3357.81 2304.07 3359.35 2302.45C3360.87 2300.83 3362.32 2298.97 3363.68 2296.87C3365.04 2294.77 3366.41 2292.33 3367.79 2289.56C3370.21 2284.77 3372.69 2280.31 3375.23 2276.15C3377.76 2272 3380.6 2268.15 3383.75 2264.6C3386.88 2261.05 3390.47 2257.8 3394.51 2254.83C3398.53 2251.87 3403.25 2249.19 3408.65 2246.81C3413.33 2244.76 3417.56 2243.44 3421.31 2242.85C3425.05 2242.28 3428.27 2242.39 3430.93 2243.19C3433.6 2244 3435.68 2245.44 3437.2 2247.53C3438.71 2249.63 3439.55 2252.35 3439.69 2255.69L3457.39 2247.93L3456.45 2257.45L3438.52 2265.33C3437.53 2269.04 3435.88 2272.72 3433.57 2276.4C3431.27 2280.07 3428.39 2283.6 3424.95 2286.97C3421.51 2290.35 3417.52 2293.53 3412.99 2296.53C3408.44 2299.53 3403.41 2302.24 3397.91 2304.65L3399.57 2287.45C3406.19 2284.55 3411.23 2281.4 3414.69 2277.99C3418.17 2274.59 3420.07 2271.24 3420.39 2267.95C3420.56 2266.16 3420.33 2264.79 3419.71 2263.83C3419.09 2262.85 3418.17 2262.24 3416.96 2261.97C3415.75 2261.72 3414.28 2261.77 3412.56 2262.15C3410.83 2262.52 3408.95 2263.16 3406.91 2264.05C3404.87 2264.96 3403 2265.96 3401.31 2267.09C3399.61 2268.21 3398.03 2269.56 3396.52 2271.16C3395.03 2272.75 3393.57 2274.61 3392.19 2276.77C3390.79 2278.92 3389.31 2281.48 3387.76 2284.44C3385.24 2289.23 3382.69 2293.71 3380.13 2297.85C3377.56 2302 3374.69 2305.85 3371.53 2309.41C3368.36 2312.96 3364.76 2316.23 3360.73 2319.2C3356.69 2322.17 3352 2324.83 3346.65 2327.17C3341.81 2329.31 3337.51 2330.65 3333.76 2331.21C3330.01 2331.77 3326.84 2331.64 3324.23 2330.81C3321.61 2329.99 3319.6 2328.49 3318.17 2326.32C3316.75 2324.16 3315.96 2321.4 3315.81 2318.04L3299.36 2325.27L3300.28 2315.8L3316.64 2308.61C3317.45 2305.11 3318.84 2301.44 3320.79 2297.64C3322.75 2293.84 3325.39 2290.07 3328.73 2286.32C3332.08 2282.57 3336.19 2278.93 3341.07 2275.43C3345.95 2271.92 3351.69 2268.71 3358.31 2265.8L3356.64 2283.01C3352.72 2284.72 3349.43 2286.53 3346.73 2288.41C3344.04 2290.29 3341.85 2292.2 3340.17 2294.12C3338.48 2296.04 3337.24 2297.92 3336.45 2299.77C3335.67 2301.61 3335.2 2303.35 3335.04 2304.97C3334.85 2306.84 3335.05 2308.32 3335.64 2309.41C3336.21 2310.51 3337.09 2311.25 3338.27 2311.65C3339.44 2312.05 3340.88 2312.11 3342.57 2311.81C3344.25 2311.53 3346.12 2310.93 3348.16 2310.04" fill="#FFA412"/>
<path d="M2048.03 495.96C2048.69 494.533 2049.52 493.227 2050.48 492.04H2050.49C2051.21 491.16 2052.01 490.347 2052.89 489.613L2056.51 485.947L2057.45 486.64C2075.95 477.587 2114.15 487.187 2152.8 512.413C2199.51 542.907 2229.48 584.893 2220.84 607.213L2222.16 608.187L2216.96 613.36C2216.71 613.613 2216.45 613.88 2216.19 614.12L2216.04 614.267L2216 614.307C2214.68 615.507 2213.19 616.547 2211.51 617.427L2211.48 617.44C2193.21 627.013 2154.6 617.48 2115.53 591.973C2067.96 560.92 2037.73 517.92 2048.03 495.96" fill="#FFA412"/>
<path d="M2158.35 506.867C2110.77 475.8 2063.87 468.427 2053.57 490.4C2043.29 512.373 2073.52 555.36 2121.09 586.427C2168.67 617.48 2215.59 624.853 2225.87 602.88C2236.16 580.92 2205.93 537.92 2158.35 506.867Z" fill="#FFB93E"/>
<path d="M2077.43 490.427C2072.52 491.84 2069.15 494.48 2067.4 498.293C2063.71 506.333 2067.67 519.307 2078.24 533.893C2089.24 549.053 2106.08 564.467 2125.64 577.28C2150.04 593.253 2175.37 602.68 2192.63 602.667C2196.11 602.667 2199.27 602.28 2202.01 601.493C2206.93 600.08 2210.31 597.44 2212.05 593.64C2215.73 585.587 2211.79 572.613 2201.2 558.027C2190.21 542.867 2173.37 527.453 2153.8 514.64C2129.41 498.667 2104.08 489.253 2086.83 489.253C2083.33 489.253 2080.17 489.64 2077.43 490.427ZM2123.73 580.2C2103.81 567.16 2086.65 551.44 2075.41 535.947C2063.91 520.08 2059.93 506.187 2064.23 496.827C2066.41 492.067 2070.53 488.787 2076.47 487.08C2094.03 482.013 2125.13 491.693 2155.72 511.72C2175.63 524.76 2192.79 540.48 2204.03 555.973C2215.53 571.84 2219.51 585.733 2215.23 595.093C2213.04 599.853 2208.92 603.147 2202.99 604.853C2199.89 605.747 2196.37 606.173 2192.51 606.173C2174.48 606.173 2148.92 596.707 2123.73 580.2" fill="#FFA412"/>
<path d="M2162.44 559.093C2163.51 559.28 2164.43 559.24 2165.17 558.987C2165.92 558.734 2166.47 558.267 2166.84 557.573C2167.21 556.88 2167.33 555.933 2167.21 554.747C2167.12 553.72 2166.83 552.613 2166.32 551.44C2165.83 550.28 2165.04 549.08 2163.96 547.867C2162.89 546.64 2161.51 545.44 2159.8 544.24C2158.09 543.04 2156 541.907 2153.52 540.813L2152.45 529.893C2156.65 531.733 2160.29 533.773 2163.39 536C2166.49 538.227 2169.09 540.533 2171.21 542.907C2173.35 545.293 2175.03 547.68 2176.25 550.093C2177.49 552.507 2178.37 554.827 2178.89 557.054L2189.28 561.627L2189.85 567.627L2179.43 563.04C2179.32 565.173 2178.83 566.92 2177.92 568.293C2177.01 569.667 2175.73 570.627 2174.08 571.147C2172.43 571.68 2170.4 571.76 2168.03 571.4C2165.65 571.04 2162.92 570.187 2159.84 568.84C2156.45 567.347 2153.48 565.653 2150.92 563.773C2148.36 561.893 2146.07 559.827 2144.07 557.56C2142.05 555.307 2140.24 552.867 2138.61 550.227C2136.99 547.6 2135.36 544.76 2133.76 541.72C2132.77 539.84 2131.84 538.214 2130.96 536.854C2130.08 535.494 2129.16 534.293 2128.2 533.293C2127.25 532.28 2126.24 531.427 2125.16 530.707C2124.09 530 2122.91 529.36 2121.61 528.787C2120.32 528.214 2119.13 527.813 2118.03 527.573C2116.93 527.333 2116 527.307 2115.24 527.467C2114.47 527.64 2113.88 528.027 2113.49 528.64C2113.09 529.253 2112.96 530.12 2113.07 531.254C2113.27 533.347 2114.47 535.467 2116.67 537.627C2118.87 539.787 2122.07 541.787 2126.27 543.64L2127.32 554.547C2123.83 553.013 2120.64 551.294 2117.76 549.387C2114.88 547.48 2112.35 545.467 2110.17 543.32C2107.99 541.187 2106.16 538.947 2104.69 536.613C2103.23 534.28 2102.19 531.947 2101.56 529.6L2090.17 524.6L2089.59 518.547L2100.81 523.48C2100.91 521.36 2101.44 519.627 2102.4 518.307C2103.36 516.973 2104.68 516.053 2106.37 515.547C2108.07 515.04 2110.09 514.96 2112.48 515.333C2114.85 515.707 2117.53 516.547 2120.51 517.854C2123.93 519.36 2126.92 521.053 2129.48 522.933C2132.04 524.813 2134.32 526.88 2136.31 529.133C2138.31 531.387 2140.11 533.827 2141.72 536.467C2143.33 539.093 2144.91 541.933 2146.44 544.973C2147.31 546.733 2148.17 548.28 2149.04 549.613C2149.91 550.947 2150.83 552.12 2151.8 553.147C2152.77 554.173 2153.83 555.08 2154.97 555.84C2156.12 556.613 2157.43 557.32 2158.89 557.96C2160.19 558.533 2161.37 558.907 2162.44 559.093" fill="#FFA412"/>
<path d="M3972.15 2418.04H286.897C284.007 2418.04 281.643 2415.67 281.643 2412.79V2407.85C281.643 2404.96 284.007 2402.6 286.897 2402.6H3972.15C3975.04 2402.6 3977.4 2404.96 3977.4 2407.85V2412.79C3977.4 2415.67 3975.04 2418.04 3972.15 2418.04Z" fill="#2E3552"/>
</svg>
