<svg width="32" height="31" viewBox="0 0 32 31" fill="none" xmlns="http://www.w3.org/2000/svg">
<circle cx="16" cy="16" r="15" fill="white"/>
<path d="M16.5 10.3514C18.5026 10.3514 18.7398 10.359 19.5306 10.3951C20.2619 10.4284 20.659 10.5506 20.9233 10.6533C21.2734 10.7894 21.5232 10.9519 21.7856 11.2143C22.0481 11.4768 22.2106 11.7266 22.3467 12.0767C22.4494 12.341 22.5716 12.7381 22.6049 13.4694C22.641 14.2602 22.6487 14.4974 22.6487 16.5C22.6487 18.5026 22.641 18.7398 22.6049 19.5306C22.5716 20.2619 22.4494 20.659 22.3467 20.9233C22.2106 21.2733 22.0481 21.5232 21.7857 21.7856C21.5232 22.0481 21.2734 22.2106 20.9233 22.3467C20.659 22.4494 20.2619 22.5715 19.5306 22.6049C18.7399 22.641 18.5027 22.6486 16.5 22.6486C14.4973 22.6486 14.2601 22.641 13.4694 22.6049C12.7381 22.5715 12.341 22.4494 12.0767 22.3467C11.7266 22.2106 11.4768 22.0481 11.2144 21.7856C10.9519 21.5232 10.7894 21.2733 10.6533 20.9233C10.5506 20.659 10.4284 20.2619 10.3951 19.5306C10.359 18.7398 10.3513 18.5026 10.3513 16.5C10.3513 14.4974 10.359 14.2602 10.3951 13.4694C10.4284 12.7381 10.5506 12.341 10.6533 12.0767C10.7894 11.7266 10.9519 11.4768 11.2144 11.2144C11.4768 10.9519 11.7266 10.7894 12.0767 10.6533C12.341 10.5506 12.7381 10.4284 13.4694 10.3951C14.2602 10.359 14.4974 10.3514 16.5 10.3514ZM16.5 9.00002C14.4631 9.00002 14.2077 9.00865 13.4078 9.04515C12.6095 9.08156 12.0643 9.20835 11.5872 9.39374C11.094 9.58541 10.6758 9.84186 10.2588 10.2588C9.84184 10.6758 9.58539 11.094 9.39376 11.5872C9.20834 12.0643 9.08154 12.6095 9.04513 13.4078C9.00863 14.2077 9 14.4631 9 16.5C9 18.5369 9.00863 18.7923 9.04513 19.5922C9.08154 20.3905 9.20834 20.9357 9.39376 21.4128C9.58539 21.9059 9.84184 22.3242 10.2588 22.7412C10.6758 23.1581 11.094 23.4146 11.5872 23.6062C12.0643 23.7916 12.6095 23.9184 13.4078 23.9548C14.2077 23.9913 14.4631 24 16.5 24C18.5369 24 18.7923 23.9913 19.5922 23.9548C20.3905 23.9184 20.9357 23.7916 21.4128 23.6062C21.906 23.4146 22.3242 23.1581 22.7412 22.7412C23.1582 22.3242 23.4146 21.9059 23.6063 21.4128C23.7917 20.9357 23.9185 20.3905 23.9549 19.5922C23.9914 18.7923 24 18.5369 24 16.5C24 14.4631 23.9914 14.2077 23.9549 13.4078C23.9185 12.6095 23.7917 12.0643 23.6063 11.5872C23.4146 11.094 23.1582 10.6758 22.7412 10.2588C22.3242 9.84186 21.906 9.58541 21.4128 9.39374C20.9357 9.20835 20.3905 9.08156 19.5922 9.04515C18.7923 9.00865 18.5369 9.00002 16.5 9.00002Z" fill="#E95950"/>
<path d="M16.5035 12.6521C14.3764 12.6521 12.6521 14.3764 12.6521 16.5035C12.6521 18.6305 14.3764 20.3548 16.5035 20.3548C18.6305 20.3548 20.3548 18.6305 20.3548 16.5035C20.3548 14.3764 18.6305 12.6521 16.5035 12.6521ZM16.5035 19.0035C15.1227 19.0035 14.0034 17.8842 14.0034 16.5035C14.0034 15.1228 15.1227 14.0035 16.5035 14.0035C17.8842 14.0035 19.0035 15.1228 19.0035 16.5035C19.0035 17.8842 17.8842 19.0035 16.5035 19.0035Z" fill="#E95950"/>
<path d="M21.4068 12.4976C21.4068 12.9946 21.0039 13.3976 20.5068 13.3976C20.0098 13.3976 19.6068 12.9946 19.6068 12.4976C19.6068 12.0005 20.0098 11.5976 20.5068 11.5976C21.0039 11.5976 21.4068 12.0005 21.4068 12.4976Z" fill="#E95950"/>
</svg>
